<svg width="310" height="85" viewBox="0 0 310 85" fill="none" xmlns="http://www.w3.org/2000/svg">
<path d="M88.408 71.6572C88.408 69.8082 89.8289 68.3029 92.2554 68.3029C93.7317 68.3029 95.0418 68.8325 95.7707 69.6409L94.9311 70.8117C94.2576 70.1334 93.4549 69.7617 92.3385 69.7617C90.9176 69.7617 90.0411 70.5143 90.0411 71.6572C90.0411 74.8349 96.2689 73.6363 96.2689 78.022C96.2689 80.1312 94.4329 81.5063 92.117 81.5063C90.5485 81.5063 88.7309 80.7909 88.0943 79.583L88.9893 78.5237C89.7366 79.5179 91.0652 80.0476 92.1447 80.0476C93.4733 80.0476 94.6451 79.3507 94.6451 78.0499C94.6451 74.9093 88.408 75.9221 88.408 71.6665" fill="#191109"/>
<path d="M98.8616 73.0695H100.319V74.0451C100.882 73.3854 101.98 72.8929 103.106 72.8929C105.44 72.8929 106.898 74.6398 106.898 77.0742C106.898 79.5086 105.2 81.5156 102.635 81.5156C101.759 81.5156 100.901 81.3298 100.319 80.9488V85H98.8616V73.0695ZM100.319 75.4017V79.49C101.048 79.9825 101.722 80.1311 102.506 80.1311C104.25 80.1311 105.348 78.8675 105.348 77.1206C105.348 75.3738 104.379 74.2588 102.691 74.2588C101.722 74.2588 100.827 74.7513 100.319 75.3924" fill="#191109"/>
<path d="M113.181 72.8837C115.801 72.8837 117.554 74.7234 117.554 77.195C117.554 79.6666 115.811 81.5063 113.181 81.5063C110.552 81.5063 108.808 79.6759 108.808 77.195C108.808 74.7141 110.561 72.8837 113.181 72.8837ZM113.181 80.1311C114.823 80.1311 116.004 78.9604 116.004 77.195C116.004 75.4296 114.823 74.2588 113.181 74.2588C111.539 74.2588 110.358 75.4482 110.358 77.195C110.358 78.9418 111.548 80.1311 113.181 80.1311Z" fill="#191109"/>
<path d="M119.999 73.0696H121.457V74.0452C121.882 73.4226 122.481 72.9302 123.515 72.9302C124.188 72.9302 124.52 73.0417 124.788 73.2461L124.28 74.6213C123.884 74.3797 123.662 74.3053 123.164 74.3053C122.214 74.3053 121.762 74.8721 121.457 75.4761V81.3298H119.999V73.0696Z" fill="#191109"/>
<path d="M126.375 70.7745H127.833V73.0695H130.84V74.4447H127.833V78.0406C127.833 79.3414 128.257 80.094 129.29 80.094C129.853 80.094 130.287 79.8524 130.582 79.6387L131.034 80.7723C130.601 81.1347 129.853 81.4692 128.94 81.4692C127.104 81.4692 126.366 80.2891 126.366 78.1799V70.7652L126.375 70.7745Z" fill="#191109"/>
<path d="M133.073 75.2159C133.073 73.7664 134.236 72.8837 135.86 72.8837C137.207 72.8837 138.194 73.3854 138.683 73.8593L137.991 74.9836C137.502 74.5469 136.792 74.1752 135.934 74.1752C135.075 74.1752 134.623 74.6491 134.623 75.2066C134.623 76.9534 139.052 76.1265 139.052 79.0254C139.052 80.763 137.52 81.5249 135.878 81.5249C134.55 81.5249 133.239 80.828 132.852 80.2427L133.673 79.1927C134.144 79.7409 135.223 80.2427 136.044 80.2427C136.81 80.2427 137.502 79.8524 137.502 79.0998C137.502 77.4273 133.073 78.2542 133.073 75.2252" fill="#191109"/>
<path d="M153.999 79.6387C153.196 80.6794 151.978 81.5064 150.078 81.5064C147.66 81.5064 145.963 79.9639 145.963 77.8362C145.963 75.7084 147.476 74.4075 148.989 73.3762C148.002 73.0417 147.291 72.1775 147.291 70.9511C147.291 69.3529 148.62 68.2936 150.096 68.2936C151.572 68.2936 152.919 69.3529 152.919 70.9511C152.919 72.1497 152.061 73.1903 151.028 73.3948L154.128 77.418C154.746 76.3123 155.189 74.8071 155.189 73.0695H156.628C156.628 75.1044 156.047 77.13 155.023 78.5981L157.154 81.3298H155.337L154.008 79.6387H153.999ZM153.104 78.468L149.912 74.2496C148.583 75.2624 147.596 76.2473 147.596 77.5574C147.596 79.0255 148.758 80.0569 150.115 80.0569C151.471 80.0569 152.467 79.4343 153.104 78.4773M150.096 72.4191C150.917 72.4191 151.554 71.7594 151.554 70.9696C151.554 70.1798 150.899 69.5016 150.096 69.5016C149.293 69.5016 148.657 70.1427 148.657 70.9696C148.657 71.7966 149.293 72.4191 150.096 72.4191Z" fill="#191109"/>
<path d="M173.55 75.5132H166.528V81.3298H164.978V68.4794H166.528V74.0451H173.55V68.4794H175.091V81.3298H173.55V75.5132Z" fill="#191109"/>
<path d="M185.6 80.4285C184.797 81.1625 183.616 81.5156 182.518 81.5156C179.852 81.5156 178.126 79.8059 178.126 77.2043C178.126 74.7977 179.658 72.8929 182.352 72.8929C184.465 72.8929 186.162 74.3982 186.162 76.6746C186.162 77.0835 186.126 77.4087 186.07 77.6689H179.768C179.898 79.2298 181.033 80.1497 182.629 80.1497C183.69 80.1497 184.612 79.7781 185.138 79.2856L185.59 80.4378L185.6 80.4285ZM179.676 76.4609H184.649C184.575 75.1044 183.699 74.2588 182.278 74.2588C180.783 74.2588 179.833 75.1973 179.676 76.4609Z" fill="#191109"/>
<path d="M188.561 73.6363C189.29 73.181 190.277 72.8837 191.292 72.8837C193.627 72.8837 194.448 74.1102 194.448 76.2565V81.3205H193.064V80.2519C192.575 80.8745 191.791 81.4506 190.443 81.4506C188.949 81.4506 187.934 80.4935 187.934 78.8954C187.934 77.2136 189.262 76.2751 191.034 76.2751C191.671 76.2751 192.529 76.4052 193.073 76.8047C193.073 75.2623 192.833 74.2031 191.218 74.2031C190.213 74.2031 189.613 74.4632 188.958 74.807L188.58 73.6363H188.561ZM193.064 79.0719V78.0219C192.556 77.6503 191.938 77.4737 191.228 77.4737C190.351 77.4737 189.475 77.8733 189.475 78.8303C189.475 79.6201 190.001 80.1311 190.951 80.1311C192.03 80.1311 192.649 79.5644 193.064 79.0719Z" fill="#191109"/>
<path d="M197.253 68.4887H198.71V78.468C198.71 79.583 198.987 80.1033 199.679 80.1033C200.076 80.1033 200.445 79.9174 200.722 79.7316L201.054 80.8559C200.62 81.1997 199.974 81.4785 199.126 81.4785C197.889 81.4785 197.271 80.7258 197.271 79.1277V68.4794L197.253 68.4887Z" fill="#191109"/>
<path d="M202.705 70.7745H204.163V73.0695H207.171V74.4447H204.163V78.0406C204.163 79.3414 204.578 80.094 205.621 80.094C206.184 80.094 206.627 79.8524 206.913 79.6387L207.365 80.7723C206.931 81.1347 206.184 81.4692 205.27 81.4692C203.425 81.4692 202.696 80.2891 202.696 78.1799V70.7652L202.705 70.7745Z" fill="#191109"/>
<path d="M209.681 68.4888H211.138V74.0359C211.738 73.4133 212.781 72.9302 213.814 72.9302C215.945 72.9302 217.219 74.0173 217.219 76.6004V81.3391H215.761V76.8048C215.761 75.1509 214.977 74.3053 213.464 74.3053C212.55 74.3053 211.637 74.7606 211.129 75.3553V81.3391H209.671V68.4888H209.681Z" fill="#191109"/>
<path d="M225.107 81.3298V68.4794C225.818 68.4794 228.17 68.4423 228.53 68.4423C232.009 68.4423 233.07 70.1891 233.07 72.2518C233.07 74.3146 231.704 75.5225 230.302 75.8849L234.546 81.3205H232.645L228.724 76.1822H226.648V81.3205H225.098L225.107 81.3298ZM226.657 69.9568V74.7234H228.53C230.007 74.7234 231.427 73.8035 231.427 72.2797C231.427 70.9603 230.699 69.9103 228.438 69.9103C228.041 69.9103 227.257 69.9289 226.657 69.9475" fill="#191109"/>
<path d="M242.721 80.4285C241.918 81.1625 240.737 81.5156 239.639 81.5156C236.973 81.5156 235.247 79.8059 235.247 77.2043C235.247 74.7977 236.779 72.8929 239.473 72.8929C241.586 72.8929 243.283 74.3982 243.283 76.6746C243.283 77.0835 243.247 77.4087 243.191 77.6689H236.89C237.019 79.2298 238.154 80.1497 239.75 80.1497C240.811 80.1497 241.733 79.7781 242.259 79.2856L242.711 80.4378L242.721 80.4285ZM236.797 76.4609H241.77C241.696 75.1044 240.82 74.2588 239.399 74.2588C237.904 74.2588 236.954 75.1973 236.797 76.4609Z" fill="#191109"/>
<path d="M245.359 75.2159C245.359 73.7664 246.522 72.8837 248.146 72.8837C249.493 72.8837 250.48 73.3854 250.969 73.8593L250.277 74.9836C249.788 74.5469 249.078 74.1752 248.22 74.1752C247.362 74.1752 246.909 74.6491 246.909 75.2066C246.909 76.9534 251.338 76.1265 251.338 79.0254C251.338 80.763 249.807 81.5249 248.164 81.5249C246.836 81.5249 245.525 80.828 245.138 80.2427L245.959 79.1927C246.43 79.7409 247.509 80.2427 248.33 80.2427C249.096 80.2427 249.788 79.8524 249.788 79.0998C249.788 77.4273 245.359 78.2542 245.359 75.2252" fill="#191109"/>
<path d="M257.649 72.8837C260.279 72.8837 262.022 74.7234 262.022 77.195C262.022 79.6666 260.279 81.5063 257.649 81.5063C255.019 81.5063 253.276 79.6759 253.276 77.195C253.276 74.7141 255.029 72.8837 257.649 72.8837ZM257.649 80.1311C259.291 80.1311 260.472 78.9604 260.472 77.195C260.472 75.4296 259.291 74.2588 257.649 74.2588C256.007 74.2588 254.826 75.4482 254.826 77.195C254.826 78.9418 256.007 80.1311 257.649 80.1311Z" fill="#191109"/>
<path d="M264.477 73.0696H265.934V74.0452C266.35 73.4226 266.959 72.9302 267.992 72.9302C268.665 72.9302 268.998 73.0417 269.265 73.2461L268.758 74.6213C268.361 74.3797 268.14 74.3053 267.641 74.3053C266.691 74.3053 266.239 74.8721 265.934 75.4761V81.3298H264.477V73.0696Z" fill="#191109"/>
<path d="M270.852 70.7745H272.31V73.0695H275.318V74.4447H272.31V78.0406C272.31 79.3414 272.734 80.094 273.768 80.094C274.33 80.094 274.764 79.8524 275.059 79.6387L275.511 80.7723C275.078 81.1347 274.33 81.4692 273.417 81.4692C271.572 81.4692 270.843 80.2891 270.843 78.1799V70.7652L270.852 70.7745Z" fill="#191109"/>
<path d="M66.0799 59.1507C47.341 59.1507 37.5794 52.6 28.9711 46.8206C21.0917 41.5337 14.301 36.9715 0 36.9715V22.1885C18.739 22.1885 28.5006 28.7391 37.1088 34.5185C44.979 39.8054 51.7789 44.3676 66.0707 44.3676V59.1507H66.0799Z" fill="#009A82"/>
<path d="M66.0799 66.5468H0V81.3391H66.0799V66.5468Z" fill="#36499B"/>
<path d="M36.7121 14.783C36.7121 22.9504 43.2906 29.566 51.4006 29.566C59.5107 29.566 66.0892 22.9504 66.0892 14.783C66.0892 6.61565 59.5015 0 51.3914 0C43.2814 0 36.7029 6.61565 36.7029 14.783" fill="#F05C5F"/>
<path d="M106.427 36.9343L99.9411 51.5408L93.4549 36.9343H88.1035L98.0681 59.1785H101.777L111.751 36.9343H106.427Z" fill="#191109"/>
<path d="M128.709 38.1515C127.002 37.1852 125.056 36.6927 122.933 36.6927C120.811 36.6927 118.865 37.1852 117.158 38.1701C115.432 39.155 114.067 40.5302 113.089 42.2492C112.12 43.9681 111.622 45.9194 111.622 48.0564C111.622 50.1935 112.111 52.154 113.089 53.873C114.067 55.6105 115.442 56.9857 117.167 57.9613C118.874 58.9277 120.821 59.4201 122.943 59.4201C125.065 59.4201 127.012 58.9277 128.718 57.9427C130.444 56.9578 131.809 55.5827 132.787 53.8637C133.756 52.1448 134.254 50.1935 134.254 48.0471C134.254 45.9008 133.765 43.9495 132.787 42.2306C131.809 40.493 130.435 39.1179 128.709 38.1422M122.933 54.6256C121.679 54.6256 120.59 54.3562 119.63 53.7894C118.68 53.2319 117.951 52.4886 117.416 51.5036C116.862 50.5001 116.595 49.3758 116.595 48.0564C116.595 46.737 116.862 45.6127 117.416 44.6092C117.96 43.6243 118.68 42.881 119.63 42.3235C120.599 41.766 121.679 41.4872 122.933 41.4872C124.188 41.4872 125.268 41.7567 126.236 42.3235C127.187 42.881 127.916 43.6243 128.451 44.6092C129.004 45.6127 129.272 46.7463 129.272 48.0564C129.272 49.3666 129.004 50.5001 128.46 51.5036C127.916 52.4886 127.196 53.2412 126.236 53.7894C125.277 54.3562 124.188 54.6256 122.933 54.6256Z" fill="#191109"/>
<path d="M142.429 36.9343H137.539V59.1785H153.768V54.3933H142.429V36.9343Z" fill="#191109"/>
<path d="M161.666 36.9343H156.767V59.1785H173.005V54.3933H161.666V36.9343Z" fill="#191109"/>
<path d="M180.894 50.4537H191.837V45.6592H180.894V41.7009H193.341V36.9343H176.004V59.1785H193.608V54.3933H180.894V50.4537Z" fill="#191109"/>
<path d="M212.236 36.9343L206.47 45.9379L200.676 36.9343H194.946L203.997 50.8532V59.1785H208.915V50.9368L217.994 36.9343H212.236Z" fill="#191109"/>
<path d="M225.615 42.3142C226.593 41.7567 227.681 41.4872 228.946 41.4872C230.763 41.4872 232.285 42.0911 233.596 43.3362L234.758 44.4419L238.098 41.0784L236.936 39.9076C235.884 38.8484 234.657 38.04 233.282 37.4918C231.935 36.9622 230.468 36.6834 228.918 36.6834C226.796 36.6834 224.849 37.1852 223.142 38.1608C221.417 39.1457 220.051 40.5209 219.073 42.2584C218.104 43.9866 217.606 45.9379 217.606 48.075C217.606 50.2121 218.095 52.1447 219.073 53.873C220.051 55.6105 221.426 56.9857 223.17 57.9613C224.886 58.9276 226.833 59.4201 228.955 59.4201C230.523 59.4201 232.027 59.132 233.448 58.556C234.869 57.9799 236.133 57.1622 237.212 56.1215L237.72 55.6384V47.4338H232.959V53.427C231.815 54.2353 230.514 54.6349 229.01 54.6349C227.728 54.6349 226.62 54.3654 225.633 53.8079C224.674 53.2597 223.936 52.5257 223.4 51.5408C222.856 50.5373 222.588 49.3944 222.588 48.0657C222.588 46.737 222.856 45.5941 223.41 44.5906C223.945 43.6057 224.674 42.8716 225.633 42.3234" fill="#191109"/>
<path d="M258.332 49.8497C259.771 48.521 260.5 46.7277 260.5 44.5163C260.5 42.1098 259.596 40.1399 257.88 38.8112C256.274 37.5661 254.042 36.9436 251.255 36.9436H242.499V59.1878H247.417V52.1262H249.751L256.145 59.1878H262.65L255.656 51.4386C256.699 51.0576 257.594 50.528 258.332 49.8497ZM247.417 41.7102H251.255C252.824 41.7102 253.995 41.989 254.733 42.5279C255.139 42.8252 255.61 43.327 255.61 44.5256C255.61 45.7242 255.158 46.2538 254.761 46.5419C254.041 47.0622 252.824 47.341 251.237 47.341H247.426V41.7195L247.417 41.7102Z" fill="#191109"/>
<path d="M273.869 36.9343L263.609 59.1785H268.951L271.101 54.4955H280.318L282.468 59.1785H287.81L277.56 36.9343H273.878H273.869ZM273.26 49.7289L275.696 44.4048L278.132 49.7289H273.26Z" fill="#191109"/>
<path d="M308.542 42.2213C307.555 40.5209 306.134 39.1922 304.326 38.2816C302.573 37.3896 300.524 36.9436 298.255 36.9436H289.333V59.1878H298.255C300.534 59.1878 302.573 58.7325 304.326 57.8498C306.134 56.9299 307.555 55.6012 308.542 53.9009C309.511 52.2284 310 50.2678 310 48.0657C310 45.8636 309.511 43.903 308.542 42.2306M294.26 41.7102H298.181C299.639 41.7102 300.893 41.9797 301.927 42.5C302.914 43.0111 303.661 43.7079 304.187 44.6278C304.722 45.5663 304.999 46.7184 304.999 48.0657C304.999 49.413 304.722 50.528 304.187 51.4757C303.652 52.4049 302.914 53.0925 301.927 53.6035C300.893 54.1332 299.639 54.4026 298.209 54.4026H294.26V41.7195V41.7102Z" fill="#191109"/>
</svg>
