<svg width="236" height="153" viewBox="0 0 236 153" fill="none" xmlns="http://www.w3.org/2000/svg">
<path d="M149.012 113.433L144.181 125.09L139.349 113.433C140.774 113.099 142.31 112.854 144.181 112.854C146.051 112.854 147.587 113.099 148.99 113.433H149.012Z" fill="#66C3EC"/>
<path d="M144.203 17.0104C155.669 17.0104 156.938 24.3881 167.848 24.3881C177.823 24.3881 179.826 18.3032 188.821 17.2333L183.121 31.008C178.312 33.1923 175.329 36.6248 167.848 36.6248C156.938 36.6248 155.669 29.2471 144.203 29.2471C132.737 29.2471 131.468 36.6248 120.558 36.6248C113.077 36.6248 110.071 33.1923 105.262 31.008L99.5623 17.2333C108.579 18.3032 110.583 24.3881 120.558 24.3881C131.468 24.3881 132.737 17.0104 144.203 17.0104Z" fill="#66C3EC"/>
<path d="M144.203 40.9713C155.669 40.9713 156.938 48.3489 167.848 48.3489C171.811 48.3489 174.505 47.3682 176.887 46.12L171.01 60.3182C170.03 60.4742 169.028 60.5856 167.848 60.5856C156.938 60.5856 155.669 53.208 144.203 53.208C132.737 53.208 131.468 60.5856 120.558 60.5856C119.378 60.5856 118.376 60.4742 117.396 60.3182L111.518 46.12C113.901 47.3682 116.572 48.3489 120.558 48.3489C131.468 48.3489 132.737 40.9713 144.203 40.9713Z" fill="#66C3EC"/>
<path d="M166.089 72.1537L161.413 83.4542C155.758 81.4036 152.931 77.1687 144.203 77.1687C135.475 77.1687 132.625 81.4259 126.97 83.4542L122.294 72.1537C131.557 71.3736 133.405 64.932 144.203 64.932C155.001 64.932 156.849 71.3736 166.111 72.1537H166.089Z" fill="#66C3EC"/>
<path d="M157.361 93.2391L153.242 103.202C150.882 102.043 148.166 101.129 144.181 101.129C140.195 101.129 137.479 102.043 135.119 103.202L131 93.2391C134.518 91.2108 137.746 88.8927 144.181 88.8927C150.615 88.8927 153.844 91.1885 157.361 93.2391Z" fill="#66C3EC"/>
<path d="M193.697 5.4647C192.985 5.39783 192.317 5.28638 191.493 5.28638C180.027 5.28638 178.758 12.6641 167.848 12.6641C156.938 12.6641 155.669 5.28638 144.203 5.28638C132.737 5.28638 131.468 12.6641 120.558 12.6641C109.648 12.6641 108.379 5.28638 96.9129 5.28638C96.0891 5.28638 95.4211 5.39783 94.7087 5.4647L92.8162 0.917725H195.567L193.697 5.4647Z" fill="#66C3EC"/>
<path d="M149.012 113.433L144.181 125.09L139.349 113.433C140.774 113.099 142.31 112.854 144.181 112.854C146.051 112.854 147.587 113.099 148.99 113.433H149.012Z" fill="#66C3EC"/>
<path d="M127.126 125.112H144.181L92.8161 0.917725L41.4293 125.112H58.484L67.7239 102.801H117.908L127.148 125.112H127.126ZM74.2696 86.9536L92.7938 42.1748L111.318 86.9536H74.2474H74.2696Z" fill="black"/>
<path d="M3.89115 149.118V138.129H10.4815V135.499H0.974487V149.118H3.89115ZM10.9936 142.32C10.9936 143.256 11.1494 144.147 11.4611 144.994C11.7728 145.841 12.2181 146.599 12.797 147.246C13.3759 147.914 14.1552 148.427 15.0903 148.828C16.0254 149.207 17.0718 149.408 18.2296 149.408C19.3873 149.408 20.4338 149.207 21.3689 148.828C22.304 148.449 23.061 147.914 23.6621 147.246C24.241 146.577 24.7086 145.841 24.998 144.994C25.3097 144.147 25.4656 143.256 25.4656 142.32C25.4656 141.384 25.3097 140.492 24.998 139.645C24.6863 138.798 24.241 138.04 23.6621 137.394C23.0833 136.725 22.304 136.212 21.3689 135.811C20.4338 135.432 19.3873 135.232 18.2296 135.232C17.0718 135.232 16.0254 135.432 15.0903 135.811C14.1552 136.19 13.3982 136.725 12.797 137.394C12.2181 138.062 11.7506 138.798 11.4611 139.645C11.1494 140.492 10.9936 141.384 10.9936 142.32ZM22.4599 142.32C22.4599 143.568 22.0814 144.615 21.3466 145.462C20.6119 146.287 19.5655 146.711 18.2073 146.711C16.8492 146.711 15.8027 146.287 15.068 145.462C14.3333 144.638 13.9548 143.59 13.9548 142.32C13.9548 141.049 14.3333 140.024 15.068 139.177C15.8027 138.352 16.8492 137.929 18.2073 137.929C19.5655 137.929 20.5896 138.352 21.3466 139.177C22.1036 140.002 22.4599 141.049 22.4599 142.32ZM27.603 135.522V149.14H30.5197V144.66H32.7239C36.6424 144.66 38.6017 143.144 38.6017 140.091C38.6017 137.037 36.6424 135.522 32.7239 135.522H27.603ZM35.6183 140.091C35.6183 141.428 34.7054 142.097 32.8574 142.097H30.4974V138.085H32.8574C34.7054 138.085 35.6183 138.753 35.6183 140.091ZM39.804 142.32C39.804 143.256 39.9599 144.147 40.2716 144.994C40.5833 145.841 41.0286 146.599 41.6074 147.246C42.1863 147.914 42.9656 148.427 43.9007 148.828C44.8358 149.207 45.8823 149.408 47.04 149.408C48.1978 149.408 49.2442 149.207 50.1793 148.828C51.1144 148.449 51.8714 147.914 52.4726 147.246C53.0515 146.577 53.519 145.841 53.8085 144.994C54.1202 144.147 54.276 143.256 54.276 142.32C54.276 141.384 54.1202 140.492 53.8085 139.645C53.4968 138.798 53.0515 138.04 52.4726 137.394C51.8937 136.725 51.1144 136.212 50.1793 135.811C49.2442 135.432 48.1978 135.232 47.04 135.232C45.8823 135.232 44.8358 135.432 43.9007 135.811C42.9656 136.19 42.2086 136.725 41.6074 137.394C41.0286 138.062 40.561 138.798 40.2716 139.645C39.9599 140.492 39.804 141.384 39.804 142.32ZM51.2703 142.32C51.2703 143.568 50.8918 144.615 50.1571 145.462C49.4223 146.287 48.3759 146.711 47.0178 146.711C45.6596 146.711 44.6132 146.287 43.8784 145.462C43.1437 144.638 42.7652 143.59 42.7652 142.32C42.7652 141.049 43.1437 140.024 43.8784 139.177C44.6132 138.352 45.6596 137.929 47.0178 137.929C48.3759 137.929 49.4001 138.352 50.1571 139.177C50.8918 140.002 51.2703 141.049 51.2703 142.32ZM57.4599 152.082V149.118H67.0559V152.082H69.6164V146.555H67.8797V135.499H58.6399C58.6399 140.291 57.9274 143.969 56.4802 146.555H54.8772V152.082H57.4376H57.4599ZM61.3562 138.129H64.9631V146.555H59.5527C60.4879 144.749 61.089 141.941 61.3339 138.129H61.3562ZM70.9077 143.256V145.529H78.1437V143.256H70.9077ZM83.5763 149.14V143.568H85.7805L89.4987 149.14H92.7271L88.0737 142.164L92.4821 135.522H89.2315L85.8027 140.938H83.5985V135.522H80.6819V149.14H83.5985H83.5763ZM100.698 146.02L105.641 135.522H102.434L99.451 142.52L95.8664 135.522H92.638L98.0483 145.15L97.8257 145.641C97.603 146.109 97.3136 146.421 96.9796 146.599C96.6456 146.778 96.2226 146.867 95.7328 146.867C95.1984 146.867 94.6641 146.778 94.152 146.621V149.096C94.909 149.318 95.5992 149.43 96.2226 149.43C97.1577 149.43 97.9815 149.185 98.7162 148.672C99.451 148.159 100.097 147.29 100.698 146.042V146.02ZM107.043 135.522V149.14H109.96V144.66H112.164C116.083 144.66 118.042 143.144 118.042 140.091C118.042 137.037 116.083 135.522 112.164 135.522H107.043ZM115.058 140.091C115.058 141.428 114.146 142.097 112.298 142.097H109.938V138.085H112.298C114.146 138.085 115.058 138.753 115.058 140.091ZM119.244 142.32C119.244 143.256 119.4 144.147 119.712 144.994C120.023 145.841 120.469 146.599 121.048 147.246C121.627 147.914 122.406 148.427 123.341 148.828C124.276 149.207 125.322 149.408 126.48 149.408C127.638 149.408 128.684 149.207 129.62 148.828C130.555 148.449 131.312 147.914 131.913 147.246C132.492 146.577 132.959 145.841 133.249 144.994C133.56 144.147 133.716 143.256 133.716 142.32C133.716 141.384 133.56 140.492 133.249 139.645C132.937 138.798 132.492 138.04 131.913 137.394C131.334 136.725 130.555 136.212 129.62 135.811C128.684 135.432 127.638 135.232 126.48 135.232C125.322 135.232 124.276 135.432 123.341 135.811C122.406 136.19 121.649 136.725 121.048 137.394C120.469 138.062 120.001 138.798 119.712 139.645C119.4 140.492 119.244 141.384 119.244 142.32ZM130.711 142.32C130.711 143.568 130.332 144.615 129.597 145.462C128.863 146.287 127.816 146.711 126.458 146.711C125.1 146.711 124.053 146.287 123.319 145.462C122.584 144.638 122.205 143.59 122.205 142.32C122.205 141.049 122.584 140.024 123.319 139.177C124.053 138.352 125.1 137.929 126.458 137.929C127.816 137.929 128.84 138.352 129.597 139.177C130.332 140.002 130.711 141.049 130.711 142.32ZM135.854 135.522V149.14H138.77V144.66H140.975C144.893 144.66 146.852 143.144 146.852 140.091C146.852 137.037 144.893 135.522 140.975 135.522H135.854ZM143.869 140.091C143.869 141.428 142.956 142.097 141.108 142.097H138.748V138.085H141.108C142.956 138.085 143.869 138.753 143.869 140.091ZM147.609 135.522V138.152H151.795V149.14H154.69V138.152H158.875V135.522H147.632H147.609ZM166.49 149.14L167.492 146.599H173.704L174.705 149.14H177.711L172.167 135.522H169.028L163.462 149.14H166.468H166.49ZM170.297 139.288C170.431 138.976 170.52 138.62 170.609 138.218C170.676 138.575 170.765 138.932 170.898 139.288L172.813 144.17H168.427L170.319 139.288H170.297ZM188.242 135.522V141.005H182.142V135.522H179.225V149.14H182.142V143.657H188.242V149.14H191.159V135.522H188.242ZM195.679 149.14L196.681 146.599H202.892L203.894 149.14H206.9L201.356 135.522H198.217L192.651 149.14H195.656H195.679ZM199.486 139.288C199.62 138.976 199.709 138.62 199.798 138.218C199.864 138.575 199.954 138.932 200.087 139.288L202.002 144.17H197.616L199.508 139.288H199.486ZM211.331 149.14V138.152H217.364V149.14H220.259V135.522H208.436V149.14H211.353H211.331ZM224.779 149.14L225.781 146.599H231.992L232.994 149.14H236L230.456 135.522H227.317L221.751 149.14H224.756H224.779ZM228.586 139.288C228.719 138.976 228.809 138.62 228.898 138.218C228.964 138.575 229.053 138.932 229.187 139.288L231.102 144.17H226.716L228.608 139.288H228.586Z" fill="black"/>
</svg>
