<svg width="251" height="171" viewBox="0 0 251 171" fill="none" xmlns="http://www.w3.org/2000/svg">
<path d="M0 12.234H50.0218V17.0128H0V12.234ZM200.087 12.234H250.109V17.0128H200.087V12.234ZM0 12.234H4.77883V160.036H0V12.234ZM250.109 160.036H200.087V155.258H250.109V160.036ZM50.0218 160.036H0V155.258H50.0218V160.036ZM250.109 160.036H245.33V12.234H250.109V160.036Z" fill="black"/>
<path d="M84.0607 92.4914C74.5025 92.4914 66.7264 100.269 66.7264 109.827C66.7264 119.386 74.5025 127.165 84.0607 127.165C93.6206 127.165 101.397 119.387 101.397 109.829C101.397 100.271 93.6206 92.4914 84.0607 92.4914ZM125.512 92.4914C115.954 92.4914 108.176 100.269 108.176 109.827C108.176 119.386 115.954 127.165 125.512 127.165C135.071 127.165 142.847 119.387 142.847 109.829C142.847 100.271 135.071 92.4914 125.512 92.4914ZM166.644 92.4914C157.084 92.4914 149.309 100.269 149.309 109.827C149.309 119.386 157.084 127.165 166.644 127.165C176.204 127.165 183.978 119.387 183.978 109.829C183.978 100.271 176.204 92.4914 166.644 92.4914ZM67.9994 76.2699C69.473 77.7452 72.0493 77.7452 73.5212 76.2699L84.059 65.7321L94.5969 76.2716C95.3354 77.0084 96.3166 77.4131 97.3586 77.4131C98.404 77.4131 99.3836 77.0084 100.12 76.2699C100.859 75.5314 101.267 74.5501 101.267 73.5082C101.267 72.4662 100.859 71.4849 100.12 70.7464L89.5826 60.2086L99.5235 50.2676C100.254 49.5347 100.665 48.542 100.665 47.507C100.665 46.4721 100.255 45.4792 99.5252 44.7458C98.0499 43.2705 95.477 43.2688 94.0034 44.7458L84.0607 54.6868L74.1198 44.7458C72.6445 43.2705 70.0715 43.2705 68.5979 44.7458C67.8674 45.4789 67.4573 46.4717 67.4573 47.5067C67.4573 48.5417 67.8674 49.5344 68.5979 50.2676L78.5389 60.2086L68.0011 70.7464C67.2698 71.4794 66.859 72.4724 66.8587 73.5078C66.8584 74.5432 67.2686 75.5365 67.9994 76.2699ZM109.449 76.2716C110.928 77.7452 113.499 77.7452 114.971 76.2699L125.511 65.7321L136.047 76.2699C136.785 77.0084 137.767 77.4131 138.81 77.4131C139.852 77.4131 140.832 77.0084 141.574 76.2699C142.303 75.5363 142.713 74.5437 142.713 73.509C142.713 72.4743 142.303 71.4817 141.574 70.7481L131.036 60.2103L140.977 50.2693C141.707 49.5361 142.118 48.5433 142.118 47.5084C142.118 46.4734 141.707 45.4806 140.977 44.7475C139.502 43.2722 136.927 43.2722 135.453 44.7475L125.512 54.6884L115.571 44.7475C114.096 43.2722 111.523 43.2722 110.048 44.7475C109.317 45.4806 108.907 46.4734 108.907 47.5084C108.907 48.5433 109.317 49.5361 110.048 50.2693L119.989 60.2103L109.451 70.7481C108.72 71.4811 108.309 72.4741 108.309 73.5095C108.308 74.5449 108.719 75.5381 109.449 76.2716ZM150.584 76.2699C152.058 77.7452 154.632 77.7452 156.106 76.2699L166.644 65.7321L177.181 76.2699C177.92 77.0084 178.901 77.4131 179.945 77.4131C180.989 77.4131 181.968 77.0084 182.707 76.2699C183.437 75.5363 183.846 74.5435 183.846 73.5087C183.845 72.4738 183.435 71.4812 182.705 70.7481L172.167 60.2103L182.11 50.2693C182.84 49.5361 183.25 48.5433 183.25 47.5084C183.25 46.4734 182.84 45.4806 182.11 44.7475C180.636 43.2722 178.063 43.2705 176.586 44.7475L166.645 54.6884L156.704 44.7475C155.229 43.2722 152.658 43.2722 151.183 44.7475C150.444 45.486 150.038 46.4672 150.038 47.5092C150.038 48.5512 150.444 49.5325 151.183 50.271L161.123 60.2119L150.586 70.7498C149.854 71.4818 149.443 72.4744 149.442 73.5095C149.442 74.5446 149.853 75.5375 150.584 76.2699Z" fill="black"/>
<path fill-rule="evenodd" clip-rule="evenodd" d="M93.2562 43.9998C95.1431 42.1089 98.385 42.1125 100.272 43.9992L100.272 44L100.273 44.0008C101.201 44.9321 101.721 46.193 101.721 47.5073C101.72 48.8216 101.199 50.0822 100.271 51.0129L100.271 51.0135L91.0756 60.2085L100.867 69.9998C101.802 70.9353 102.323 72.1847 102.323 73.5081C102.323 74.8315 101.802 76.0809 100.867 77.0164C99.931 77.9539 98.6824 78.4687 97.3586 78.4687C96.0377 78.4687 94.788 77.9536 93.8512 77.0189L93.8507 77.0185L84.059 67.2251L74.2686 77.0155L74.2683 77.0158C72.3836 78.9045 69.1381 78.9038 67.2524 77.016L67.9994 76.2699L67.2515 77.015C66.3235 76.0836 65.8026 74.8223 65.803 73.5074C65.8034 72.1926 66.325 70.9316 67.2536 70.0007L67.2541 70.0003L67.2545 69.9998L77.0458 60.2085L67.8507 51.0134L67.85 51.0127C66.9224 50.0817 66.4015 48.8209 66.4015 47.5066C66.4015 46.1923 66.9224 44.9316 67.85 44.0006L67.8505 44.0001L67.851 43.9996C69.7372 42.1112 72.9789 42.1119 74.8662 43.9992L84.0608 53.1937L93.256 44.0001L93.2562 43.9998ZM68.7472 75.5247C69.8089 76.5865 71.7149 76.5855 72.7738 75.5242L72.7742 75.5238L72.7747 75.5233L84.0591 64.2389L95.3425 75.5242C95.8826 76.063 96.5956 76.3573 97.3586 76.3573C98.1251 76.3573 98.8353 76.0631 99.373 75.5242L99.3734 75.5238L99.3738 75.5233C99.9154 74.9818 100.211 74.2687 100.211 73.5081C100.211 72.7476 99.9154 72.0344 99.3738 71.4929L88.0895 60.2085L98.7758 49.5222L98.7764 49.5217C99.3095 48.9866 99.609 48.2621 99.6093 47.5067C99.6095 46.7514 99.3106 46.0269 98.7779 45.4915C97.714 44.4285 95.8108 44.4288 94.7507 45.4914L94.7503 45.4918L94.7498 45.4923L84.0606 56.1797L73.3732 45.4922C72.3101 44.4292 70.4064 44.4296 69.3454 45.4913C68.8123 46.0266 68.513 46.7512 68.513 47.5066C68.513 48.262 68.8122 48.9866 69.3452 49.5218L69.3458 49.5224L80.0319 60.2085L68.7485 71.492L68.7483 71.4921C68.2145 72.0272 67.9147 72.7522 67.9144 73.5081C67.9142 74.264 68.2137 74.9892 68.7472 75.5247ZM175.84 44.0009C177.729 42.1116 180.971 42.1132 182.857 44.0013L182.858 44.0023C183.785 44.9333 184.306 46.194 184.306 47.5083C184.306 48.8226 183.785 50.0834 182.858 51.0144L173.66 60.2103L183.451 70.0015L183.452 70.0022L183.453 70.003C184.38 70.9339 184.901 72.1943 184.901 73.5083C184.902 74.8223 184.382 76.083 183.455 77.0145L183.454 77.0154L183.453 77.0164C182.516 77.9533 181.268 78.4687 179.945 78.4687C178.622 78.4687 177.372 77.9537 176.435 77.0164L166.644 67.2251L156.853 77.016L156.852 77.0164C154.966 78.9041 151.723 78.904 149.837 77.016C148.908 76.0855 148.386 74.8241 148.386 73.5091C148.387 72.1942 148.909 70.9332 149.839 70.0033L159.63 60.2119L150.436 51.0174C149.5 50.0811 148.982 48.8314 148.982 47.5092C148.982 46.1869 149.5 44.9372 150.436 44.0009C152.324 42.1133 155.563 42.1133 157.451 44.0009L166.645 53.1954L175.84 44.0009ZM151.331 75.5238C152.392 76.5862 154.298 76.5862 155.359 75.5238L155.359 75.5233L166.644 64.239L177.928 75.5233C178.468 76.063 179.18 76.3573 179.945 76.3573C180.709 76.3573 181.419 76.0639 181.959 75.5247C182.491 74.989 182.79 74.2643 182.79 73.5089C182.79 72.754 182.491 72.0298 181.958 71.4946C181.958 71.4941 181.957 71.4936 181.957 71.4931L170.674 60.2101L181.362 49.5241C181.362 49.5238 181.362 49.5235 181.363 49.5232C181.896 48.988 182.195 48.2636 182.195 47.5083C182.195 46.7527 181.895 46.0279 181.362 45.4926M151.331 75.5238C150.797 74.9894 150.498 74.265 150.498 73.5098C150.498 72.7546 150.798 72.0303 151.332 71.4962L162.616 60.2119L151.929 49.5244C151.388 48.9837 151.093 48.2709 151.093 47.5092C151.093 46.7474 151.388 46.0346 151.929 45.4939C152.992 44.4309 154.895 44.4309 155.958 45.4939L166.645 56.1814L177.333 45.4939C178.397 44.4296 180.3 44.4311 181.362 45.4926M109.301 44.0009C111.189 42.1133 114.43 42.1133 116.318 44.0009L125.512 53.1954L134.706 44.0013L134.707 44.0009C136.593 42.1129 139.836 42.1137 141.723 44.0009L141.724 44.0016L141.725 44.0023C142.652 44.9333 143.173 46.194 143.173 47.5083C143.173 48.8226 142.652 50.0834 141.725 51.0144L141.724 51.0151L141.723 51.0157L132.529 60.2102L142.32 70.0015L142.322 70.0035C143.249 70.9349 143.769 72.1952 143.769 73.509C143.769 74.8227 143.249 76.083 142.322 77.0144L142.32 77.0162L142.318 77.0181C141.379 77.9529 140.132 78.4687 138.81 78.4687C137.488 78.4687 136.238 77.9537 135.3 77.0164L125.511 67.2251L115.718 77.0155C113.833 78.9051 110.594 78.9027 108.704 77.0193L109.449 76.2715L108.701 77.0167C107.773 76.0853 107.253 74.8239 107.253 73.5091C107.253 72.1943 107.775 70.9333 108.704 70.0024L108.704 70.002L108.704 70.0015L118.496 60.2102L109.301 51.0151L109.3 51.0144C108.372 50.0834 107.851 48.8226 107.851 47.5083C107.851 46.194 108.372 44.9333 109.3 44.0023L109.301 44.0009ZM110.196 75.5249C111.263 76.5877 113.166 76.5848 114.224 75.5242L125.511 64.239L136.793 75.5233C137.333 76.063 138.045 76.3573 138.81 76.3573C139.571 76.3573 140.283 76.0644 140.827 75.5234C141.359 74.9879 141.657 74.2637 141.657 73.509C141.657 72.754 141.359 72.0296 140.827 71.494C140.826 71.4935 140.826 71.493 140.825 71.4925L129.543 60.2102L140.229 49.5241L140.229 49.5235C140.762 48.9883 141.062 48.2637 141.062 47.5083C141.062 46.7529 140.762 46.0283 140.229 45.4931C139.166 44.4307 137.261 44.4316 136.2 45.4935L125.512 56.1814L114.825 45.4939C113.762 44.4309 111.857 44.4309 110.794 45.4939C110.262 46.0291 109.963 46.7533 109.963 47.5083C109.963 48.2633 110.262 48.9876 110.794 49.5227L121.482 60.2102M65.6707 109.827C65.6707 99.6862 73.9193 91.4357 84.0607 91.4357C94.2039 91.4357 102.452 99.688 102.452 109.829C102.452 119.97 94.2038 128.221 84.0607 128.221C73.9191 128.221 65.6707 119.968 65.6707 109.827ZM84.0607 93.5471C75.0857 93.5471 67.7821 100.852 67.7821 109.827C67.7821 118.803 75.0858 126.109 84.0607 126.109C93.0375 126.109 100.341 118.804 100.341 109.829C100.341 100.854 93.0374 93.5471 84.0607 93.5471ZM107.121 109.827C107.121 99.6861 115.371 91.4357 125.512 91.4357C135.654 91.4357 143.902 99.688 143.902 109.829C143.902 119.97 135.654 128.221 125.512 128.221C115.371 128.221 107.121 119.969 107.121 109.827ZM125.512 93.5471C116.537 93.5471 109.232 100.852 109.232 109.827C109.232 118.803 116.537 126.109 125.512 126.109C134.487 126.109 141.791 118.804 141.791 109.829C141.791 100.854 134.487 93.5471 125.512 93.5471ZM148.254 109.827C148.254 99.6863 156.5 91.4357 166.644 91.4357C176.787 91.4357 185.034 99.6881 185.034 109.829C185.034 119.97 176.787 128.221 166.644 128.221C156.5 128.221 148.254 119.968 148.254 109.827ZM166.644 93.5471C157.667 93.5471 150.365 100.852 150.365 109.827C150.365 118.803 157.667 126.109 166.644 126.109C175.62 126.109 182.922 118.804 182.922 109.829C182.922 100.854 175.62 93.5471 166.644 93.5471Z" fill="black"/>
<path d="M71.4554 24.0614C73.5522 24.0614 75.2068 23.5656 76.4135 22.574C77.6261 21.5764 78.2354 20.1547 78.2354 18.3029V14.8622C78.2354 13.0283 77.7635 11.7201 76.8256 10.9375C75.8878 10.149 74.6513 9.64726 73.128 9.42624L68.2477 8.77512C67.9669 8.75123 67.7459 8.6437 67.5965 8.44658C67.4412 8.24945 67.3636 8.01051 67.3636 7.72378C67.3636 7.44302 67.4412 7.21005 67.5965 7.02488C67.7459 6.8397 67.9669 6.74412 68.2477 6.74412H75.8759C76.288 6.74412 76.5927 6.65452 76.7779 6.46336C76.963 6.27818 77.0526 5.97951 77.0526 5.56733V1.67259C77.0526 1.25444 76.963 0.955764 76.7779 0.770584C76.5927 0.585405 76.288 0.48983 75.8759 0.48983H66.7125C64.5919 0.48983 62.9372 0.985633 61.7365 1.98321C60.5358 2.97482 59.9325 4.39652 59.9325 6.25429V9.68907C59.9325 11.5229 60.3984 12.8312 61.3243 13.6197C62.2502 14.4022 63.4808 14.904 65.01 15.125L69.9202 15.8119C70.201 15.8358 70.416 15.9314 70.5594 16.1046C70.6968 16.2839 70.7685 16.5527 70.7685 16.923C70.7685 17.1859 70.6968 17.4128 70.5594 17.598C70.416 17.7832 70.201 17.8728 69.9202 17.8728H61.1153C60.6971 17.8728 60.3984 17.9684 60.2133 18.1536C60.0281 18.3387 59.9325 18.6374 59.9325 19.0556V22.8846C59.9325 23.2968 60.0281 23.5955 60.2133 23.7806C60.3984 23.9658 60.6971 24.0614 61.1153 24.0614H71.4554ZM74.1077 3.44075V3.76333H66.8439C65.9239 3.76333 65.1952 4.01421 64.6456 4.51599C64.102 5.01777 63.8272 5.65096 63.8272 6.41557V9.10366C63.8272 9.8623 63.9826 10.3999 64.2872 10.7046C64.5919 11.0092 64.9981 11.2063 65.4998 11.296L72.4052 12.6997C73.0623 12.8312 73.5999 13.1179 74.0241 13.5539C74.4542 13.99 74.6632 14.7725 74.6632 15.9075V17.8071C74.6632 18.7688 74.3407 19.5574 73.6836 20.1846C73.0265 20.8058 72.1424 21.1164 71.0313 21.1164H62.8774V20.7879H71.0313C72.0349 20.7879 72.8353 20.5071 73.4387 19.9516C74.036 19.3961 74.3407 18.6792 74.3407 17.8071V15.9075C74.3407 14.886 74.1555 14.1812 73.7971 13.7989C73.4387 13.4166 72.9548 13.1597 72.3395 13.0283L65.4341 11.6245C64.8666 11.511 64.4007 11.29 64.0423 10.9495C63.6839 10.615 63.5047 9.99372 63.5047 9.10366V6.41557C63.5047 5.54344 63.8093 4.82661 64.4186 4.27108C65.0279 3.71554 65.8403 3.44075 66.8439 3.44075H74.1077ZM88.0559 24.0614C88.4681 24.0614 88.7667 23.9658 88.9519 23.7806C89.1371 23.5955 89.2327 23.2968 89.2327 22.8846V17.4487H92.996C95.9649 17.4487 97.9959 16.8573 99.083 15.6805C100.176 14.5037 100.72 12.9626 100.72 11.063V6.87554C100.72 4.97595 100.176 3.44075 99.083 2.258C97.9959 1.08121 95.9649 0.48983 92.996 0.48983H82.9784C82.5662 0.48983 82.2675 0.585405 82.0824 0.770584C81.8912 0.955764 81.8016 1.25444 81.8016 1.67259V22.8846C81.8016 23.2968 81.8912 23.5955 82.0824 23.7806C82.2675 23.9658 82.5662 24.0614 82.9784 24.0614H88.0559ZM92.536 14.665H85.7979V21.1164H85.4694V3.44075H92.536C93.5635 3.44075 94.3998 3.55425 95.0449 3.78125C95.6841 4.00824 96.1859 4.32484 96.5323 4.71312C96.8788 5.10737 97.1237 5.57928 97.2551 6.12287C97.3806 6.66646 97.4463 7.25784 97.4463 7.89104V10.3103C97.4463 10.9435 97.3806 11.5289 97.2551 12.0665C97.1237 12.5982 96.8788 13.0581 96.5323 13.4404C96.1859 13.8228 95.6841 14.1214 95.0449 14.3365C94.3998 14.5575 93.5635 14.665 92.536 14.665ZM85.7979 14.3365H92.536C93.4978 14.3365 94.2803 14.2409 94.8777 14.0438C95.481 13.8467 95.941 13.5719 96.2695 13.2075C96.598 12.8491 96.8191 12.4249 96.9385 11.9351C97.064 11.4393 97.1237 10.9017 97.1237 10.3103V7.89104C97.1237 7.29966 97.064 6.75607 96.9385 6.25429C96.8191 5.75251 96.598 5.31644 96.2695 4.94609C95.941 4.57573 95.481 4.28302 94.8777 4.07395C94.2803 3.87085 93.4978 3.76333 92.536 3.76333H85.7979V14.3365ZM89.167 6.6127H92.1119C92.7451 6.6127 93.1633 6.77996 93.3544 7.10253C93.5515 7.43108 93.6531 7.80143 93.6531 8.21958V9.95191C93.6531 10.3701 93.5515 10.7404 93.3544 11.063C93.1633 11.3915 92.7451 11.5588 92.1119 11.5588H89.167V6.6127ZM124.094 17.8728V6.71425C124.094 5.7107 123.945 4.79675 123.652 3.97837C123.359 3.16 122.834 2.45512 122.081 1.86971C121.328 1.27833 120.295 0.818374 118.975 0.48983C117.655 0.167259 115.976 0 113.945 0C111.92 0 110.236 0.167259 108.904 0.48983C107.577 0.818374 106.532 1.27833 105.779 1.86971C105.027 2.45512 104.501 3.16 104.208 3.97837C103.916 4.79675 103.766 5.7107 103.766 6.71425V17.8728C103.766 18.8764 103.916 19.7903 104.208 20.6087C104.501 21.4271 105.027 22.126 105.779 22.7054C106.532 23.2789 107.577 23.7328 108.904 24.0614C110.236 24.3899 111.92 24.5512 113.945 24.5512C115.976 24.5512 117.655 24.3899 118.975 24.0614C120.295 23.7328 121.328 23.2789 122.081 22.7054C122.834 22.126 123.359 21.4271 123.652 20.6087C123.945 19.7903 124.094 18.8764 124.094 17.8728ZM120.528 17.1201C120.528 18.4284 120.056 19.4976 119.118 20.316C118.18 21.1344 116.436 21.5406 113.879 21.5406C111.329 21.5406 109.596 21.1344 108.677 20.316C107.763 19.4976 107.303 18.4284 107.303 17.1201V7.46692C107.303 6.15274 107.763 5.08945 108.677 4.27108C109.596 3.4527 111.329 3.0465 113.879 3.0465C116.436 3.0465 118.18 3.4527 119.118 4.27108C120.056 5.08945 120.528 6.15274 120.528 7.46692V17.1201ZM107.631 17.1201C107.631 18.3447 108.067 19.3304 108.939 20.083C109.812 20.8357 111.46 21.212 113.879 21.212C116.305 21.212 117.965 20.8357 118.855 20.083C119.751 19.3304 120.199 18.3447 120.199 17.1201V7.46692C120.199 6.24234 119.751 5.25671 118.855 4.50404C117.965 3.75138 116.305 3.37505 113.879 3.37505C111.46 3.37505 109.812 3.75138 108.939 4.50404C108.067 5.25671 107.631 6.24234 107.631 7.46692V17.1201ZM111.197 16.696V7.89104C111.197 7.47289 111.359 7.12045 111.687 6.82775C112.016 6.52907 112.768 6.38571 113.945 6.38571C115.128 6.38571 115.881 6.52907 116.203 6.82775C116.532 7.12045 116.699 7.47289 116.699 7.89104V16.696C116.699 17.1321 116.532 17.4965 116.203 17.7952C115.881 18.0879 115.128 18.2372 113.945 18.2372C112.768 18.2372 112.016 18.0879 111.687 17.7952C111.359 17.4965 111.197 17.1321 111.197 16.696ZM139.249 3.76333H132.117V13.2254H139.249C140.605 13.2254 141.513 12.8969 141.967 12.2457C142.427 11.5887 142.654 10.6628 142.654 9.46208V7.16824C142.654 6.16469 142.379 5.34631 141.824 4.71312C141.262 4.07992 140.408 3.76333 139.249 3.76333ZM135.653 6.38571H138.108C138.676 6.38571 139.058 6.52907 139.249 6.82775C139.446 7.12045 139.548 7.48484 139.548 7.9209V9.03796C139.548 9.47402 139.446 9.83841 139.249 10.1311C139.058 10.4298 138.676 10.5732 138.108 10.5732H135.653V6.38571ZM132.117 21.1164H131.788V3.44075H139.249C140.515 3.44075 141.453 3.79319 142.069 4.50404C142.678 5.20892 142.983 6.09898 142.983 7.16824V9.42624C142.983 10.4298 142.851 11.2541 142.588 11.8993C142.331 12.5444 141.806 12.9865 141.017 13.2254H141.382C142.708 13.2254 143.705 13.5241 144.356 14.1274C145.014 14.7248 145.342 15.5909 145.342 16.7259V21.1164H145.014V16.7259C145.014 15.6566 144.721 14.8562 144.129 14.3245C143.538 13.7869 142.624 13.5181 141.382 13.5181H132.117V21.1164ZM134.47 24.0614C134.888 24.0614 135.187 23.9658 135.372 23.7806C135.557 23.5955 135.653 23.2968 135.653 22.8846V16.469H140.235C140.695 16.469 141.011 16.5825 141.196 16.8095C141.388 17.0425 141.477 17.3949 141.477 17.8728V22.8846C141.477 23.2968 141.573 23.5955 141.758 23.7806C141.943 23.9658 142.242 24.0614 142.654 24.0614H147.731C148.144 24.0614 148.442 23.9658 148.628 23.7806C148.819 23.5955 148.908 23.2968 148.908 22.8846V15.9434C148.908 14.5694 148.544 13.4643 147.809 12.634C147.08 11.8097 146.125 11.3258 144.948 11.1944C145.623 10.9136 146.101 10.4477 146.37 9.80257C146.644 9.1634 146.782 8.38087 146.782 7.46692V5.96159C146.782 4.34276 146.316 3.02858 145.39 2.01308C144.464 0.99758 142.773 0.48983 140.33 0.48983H129.429C129.016 0.48983 128.718 0.585405 128.533 0.770584C128.347 0.955764 128.252 1.25444 128.252 1.67259V22.8846C128.252 23.2968 128.347 23.5955 128.533 23.7806C128.718 23.9658 129.016 24.0614 129.429 24.0614H134.47ZM162.725 24.0614C163.137 24.0614 163.436 23.9658 163.621 23.7806C163.806 23.5955 163.902 23.2968 163.902 22.8846V6.80983H168.711C169.129 6.80983 169.427 6.71425 169.613 6.52907C169.798 6.34389 169.893 6.04522 169.893 5.63304V1.67259C169.893 1.25444 169.798 0.955764 169.613 0.770584C169.427 0.585405 169.129 0.48983 168.711 0.48983H151.429C151.017 0.48983 150.712 0.585405 150.527 0.770584C150.342 0.955764 150.252 1.25444 150.252 1.67259V5.63304C150.252 6.04522 150.342 6.34389 150.527 6.52907C150.712 6.71425 151.017 6.80983 151.429 6.80983H156.244V22.8846C156.244 23.2968 156.333 23.5955 156.519 23.7806C156.704 23.9658 157.002 24.0614 157.421 24.0614H162.725ZM159.906 21.1164V3.76333H153.197V3.44075H166.948V3.76333H160.234V21.1164H159.906ZM184.003 24.0614C186.094 24.0614 187.748 23.5656 188.961 22.574C190.173 21.5764 190.777 20.1547 190.777 18.3029V14.8622C190.777 13.0283 190.305 11.7201 189.367 10.9375C188.429 10.149 187.199 9.64726 185.669 9.42624L180.795 8.77512C180.508 8.75123 180.293 8.6437 180.138 8.44658C179.983 8.24945 179.911 8.01051 179.911 7.72378C179.911 7.44302 179.983 7.21005 180.138 7.02488C180.293 6.8397 180.508 6.74412 180.795 6.74412H188.417C188.835 6.74412 189.134 6.65452 189.319 6.46336C189.504 6.27818 189.6 5.97951 189.6 5.56733V1.67259C189.6 1.25444 189.504 0.955764 189.319 0.770584C189.134 0.585405 188.835 0.48983 188.417 0.48983H179.254C177.139 0.48983 175.479 0.985633 174.278 1.98321C173.077 2.97482 172.48 4.39652 172.48 6.25429V9.68907C172.48 11.5229 172.94 12.8312 173.872 13.6197C174.798 14.4022 176.022 14.904 177.551 15.125L182.462 15.8119C182.748 15.8358 182.957 15.9314 183.101 16.1046C183.244 16.2839 183.316 16.5527 183.316 16.923C183.316 17.1859 183.244 17.4128 183.101 17.598C182.957 17.7832 182.748 17.8728 182.462 17.8728H173.657C173.244 17.8728 172.94 17.9684 172.755 18.1536C172.569 18.3387 172.48 18.6374 172.48 19.0556V22.8846C172.48 23.2968 172.569 23.5955 172.755 23.7806C172.94 23.9658 173.244 24.0614 173.657 24.0614H184.003ZM186.655 3.44075V3.76333H179.385C178.471 3.76333 177.737 4.01421 177.193 4.51599C176.643 5.01777 176.375 5.65096 176.375 6.41557V9.10366C176.375 9.8623 176.524 10.3999 176.835 10.7046C177.139 11.0092 177.539 11.2063 178.041 11.296L184.953 12.6997C185.604 12.8312 186.147 13.1179 186.571 13.5539C186.996 13.99 187.211 14.7725 187.211 15.9075V17.8071C187.211 18.7688 186.882 19.5574 186.225 20.1846C185.574 20.8058 184.69 21.1164 183.573 21.1164H175.425V20.7879H183.573C184.576 20.7879 185.383 20.5071 185.98 19.9516C186.583 19.3961 186.882 18.6792 186.882 17.8071V15.9075C186.882 14.886 186.703 14.1812 186.338 13.7989C185.98 13.4166 185.496 13.1597 184.887 13.0283L177.976 11.6245C177.408 11.511 176.948 11.29 176.584 10.9495C176.225 10.615 176.046 9.99372 176.046 9.10366V6.41557C176.046 5.54344 176.351 4.82661 176.96 4.27108C177.575 3.71554 178.382 3.44075 179.385 3.44075H186.655Z" fill="black"/>
<path d="M61.0257 152.849L71.0373 164.115V152.634H71.3121V167.329H71.0373V164.528L60.7509 152.987C60.733 152.969 60.7091 152.951 60.6852 152.933C60.6553 152.915 60.6314 152.903 60.6135 152.903C60.5956 152.903 60.5837 152.915 60.5717 152.933C60.5657 152.951 60.5598 152.969 60.5598 152.987V167.329H60.2909V152.933C60.2909 152.819 60.3268 152.742 60.3985 152.688C60.4702 152.634 60.5418 152.604 60.6135 152.604C60.6852 152.604 60.7509 152.622 60.8047 152.658C60.8584 152.694 60.9301 152.76 61.0257 152.849ZM62.4952 169.778C62.8357 169.778 63.0866 169.701 63.2419 169.545C63.3972 169.39 63.4748 169.145 63.4748 168.799V159.814L68.1282 165.453V168.799C68.1282 169.145 68.2059 169.39 68.3612 169.545C68.5105 169.701 68.7614 169.778 69.1079 169.778H73.1878C73.5343 169.778 73.7852 169.701 73.9405 169.545C74.0898 169.39 74.1675 169.145 74.1675 168.799V151.159C74.1675 150.818 74.0898 150.567 73.9405 150.412C73.7852 150.257 73.5343 150.179 73.1878 150.179H69.1079C68.7614 150.179 68.5105 150.257 68.3612 150.412C68.2059 150.567 68.1282 150.818 68.1282 151.159V156.959L62.8476 150.914C62.6087 150.645 62.3697 150.454 62.1248 150.346C61.8799 150.239 61.5872 150.179 61.2407 150.179H58.4093C58.0688 150.179 57.8179 150.257 57.6626 150.412C57.5073 150.567 57.4296 150.818 57.4296 151.159V168.799C57.4296 169.145 57.5073 169.39 57.6626 169.545C57.8179 169.701 58.0688 169.778 58.4093 169.778H62.4952ZM91.5325 169.778C91.879 169.778 92.1299 169.701 92.2852 169.545C92.4345 169.39 92.5122 169.145 92.5122 168.799V165.615C92.5122 165.268 92.4345 165.017 92.2852 164.868C92.1299 164.713 91.879 164.635 91.5325 164.635H84.0238V162.293H89.3283C89.6748 162.293 89.9257 162.216 90.081 162.061C90.2303 161.905 90.308 161.66 90.308 161.314V158.399C90.308 158.058 90.2303 157.807 90.081 157.652C89.9257 157.497 89.6748 157.419 89.3283 157.419H84.0238V155.328H91.5325C91.879 155.328 92.1299 155.251 92.2852 155.095C92.4345 154.94 92.5122 154.689 92.5122 154.349V151.159C92.5122 150.818 92.4345 150.567 92.2852 150.412C92.1299 150.257 91.879 150.179 91.5325 150.179H78.9045C78.558 150.179 78.3131 150.257 78.1578 150.412C78.0025 150.567 77.9248 150.818 77.9248 151.159V168.799C77.9248 169.145 78.0025 169.39 78.1578 169.545C78.3131 169.701 78.558 169.778 78.9045 169.778H91.5325ZM90.063 167.054V167.329H80.8937V152.634H90.063V152.903H81.1625V159.737H87.8588V160.006H81.1625V167.054H90.063ZM104.979 169.778C105.325 169.778 105.576 169.701 105.726 169.545C105.881 169.39 105.959 169.145 105.959 168.799V155.436H109.961C110.307 155.436 110.552 155.358 110.708 155.203C110.863 155.048 110.941 154.803 110.941 154.456V151.159C110.941 150.818 110.863 150.567 110.708 150.412C110.552 150.257 110.307 150.179 109.961 150.179H95.5886C95.2421 150.179 94.9972 150.257 94.8419 150.412C94.6866 150.567 94.6089 150.818 94.6089 151.159V154.456C94.6089 154.797 94.6866 155.048 94.8419 155.203C94.9972 155.358 95.2421 155.436 95.5886 155.436H99.5908V168.799C99.5908 169.145 99.6685 169.39 99.8238 169.545C99.9731 169.701 100.224 169.778 100.57 169.778H104.979ZM102.637 167.329V152.903H97.058V152.634H108.491V152.903H102.912V167.329H102.637ZM123.652 160.388C123.939 160.388 124.178 160.472 124.357 160.645C124.542 160.818 124.745 161.159 124.984 161.666L127.218 166.678C127.29 166.857 127.398 166.965 127.541 167.001C127.69 167.036 127.822 167.054 127.953 167.054H128.085C128.234 167.054 128.365 166.995 128.497 166.881C128.622 166.762 128.694 166.63 128.712 166.487L129.393 163.381C129.464 163.04 129.506 162.592 129.518 162.049C129.524 161.505 129.53 161.033 129.53 160.633V152.634H129.799V160.663C129.799 161.057 129.799 161.529 129.787 162.078C129.781 162.622 129.739 163.064 129.668 163.411L128.987 166.487C128.915 166.774 128.801 166.989 128.646 167.126C128.491 167.263 128.306 167.329 128.085 167.329H127.899C127.732 167.329 127.559 167.299 127.38 167.234C127.201 167.168 127.069 167.048 126.997 166.863L124.769 161.804C124.548 161.314 124.363 161.003 124.208 160.866C124.052 160.728 123.867 160.663 123.652 160.663H122.428C122.207 160.663 122.021 160.728 121.866 160.866C121.711 161.003 121.526 161.314 121.311 161.804L119.076 166.863C119.005 167.048 118.879 167.168 118.694 167.234C118.515 167.299 118.342 167.329 118.18 167.329H117.989C117.774 167.329 117.583 167.263 117.434 167.126C117.278 166.989 117.165 166.774 117.093 166.487L116.412 163.411C116.341 163.064 116.299 162.622 116.287 162.078C116.281 161.529 116.275 161.057 116.275 160.663V152.634H116.55V160.633C116.55 161.033 116.55 161.505 116.562 162.049C116.568 162.592 116.609 163.04 116.681 163.381L117.362 166.487C117.38 166.63 117.452 166.762 117.583 166.881C117.709 166.995 117.846 167.054 117.989 167.054H118.127C118.252 167.054 118.39 167.036 118.533 167.001C118.676 166.965 118.79 166.857 118.861 166.678L121.09 161.666C121.329 161.159 121.538 160.818 121.717 160.645C121.902 160.472 122.135 160.388 122.428 160.388H123.652ZM127.654 150.179C127.308 150.179 127.057 150.257 126.902 150.412C126.747 150.567 126.669 150.818 126.669 151.159V161.176L125.092 157.748C124.948 157.437 124.757 157.222 124.524 157.097C124.285 156.965 123.993 156.905 123.652 156.905H122.505C122.165 156.905 121.872 156.965 121.639 157.097C121.4 157.222 121.209 157.437 121.066 157.748L119.489 161.176V151.159C119.489 150.818 119.411 150.567 119.256 150.412C119.1 150.257 118.85 150.179 118.509 150.179H114.316C113.969 150.179 113.718 150.257 113.569 150.412C113.414 150.567 113.336 150.818 113.336 151.159V161.666C113.336 162.246 113.36 162.789 113.402 163.285C113.449 163.787 113.587 164.372 113.826 165.041L115.188 168.799C115.277 169.091 115.427 169.324 115.636 169.504C115.845 169.689 116.096 169.778 116.382 169.778H119.978C120.265 169.778 120.51 169.713 120.713 169.575C120.91 169.438 121.048 169.235 121.119 168.96L122.398 164.528C122.452 164.342 122.523 164.223 122.601 164.157C122.685 164.092 122.78 164.062 122.888 164.062H123.133C123.24 164.062 123.336 164.092 123.419 164.157C123.503 164.223 123.569 164.342 123.622 164.528L124.877 168.96C124.948 169.253 125.104 169.462 125.337 169.587C125.576 169.713 125.839 169.778 126.125 169.778H129.745C130.038 169.778 130.271 169.683 130.444 169.492C130.611 169.3 130.743 169.073 130.838 168.799L132.194 165.095C132.433 164.426 132.571 163.841 132.619 163.339C132.666 162.843 132.684 162.305 132.684 161.72V151.159C132.684 150.818 132.613 150.567 132.457 150.412C132.302 150.257 132.051 150.179 131.705 150.179H127.654ZM152.803 164.635V155.352C152.803 154.516 152.678 153.763 152.433 153.082C152.188 152.401 151.752 151.816 151.125 151.326C150.503 150.836 149.637 150.454 148.538 150.179C147.445 149.91 146.053 149.773 144.362 149.773C142.678 149.773 141.28 149.91 140.169 150.179C139.064 150.454 138.198 150.836 137.571 151.326C136.943 151.816 136.513 152.401 136.268 153.082C136.023 153.763 135.898 154.516 135.898 155.352V164.635C135.898 165.471 136.023 166.224 136.268 166.905C136.513 167.586 136.943 168.165 137.571 168.649C138.198 169.127 139.064 169.504 140.169 169.778C141.28 170.053 142.678 170.185 144.362 170.185C146.053 170.185 147.445 170.053 148.538 169.778C149.637 169.504 150.503 169.127 151.125 168.649C151.752 168.165 152.188 167.586 152.433 166.905C152.678 166.224 152.803 165.471 152.803 164.635ZM149.834 164.008C149.834 165.095 149.446 165.979 148.663 166.66C147.881 167.341 146.429 167.682 144.309 167.682C142.188 167.682 140.743 167.341 139.984 166.66C139.219 165.979 138.837 165.095 138.837 164.008V155.979C138.837 154.892 139.219 154.008 139.984 153.327C140.743 152.646 142.188 152.306 144.309 152.306C146.429 152.306 147.881 152.646 148.663 153.327C149.446 154.008 149.834 154.892 149.834 155.979V164.008ZM139.112 164.008C139.112 165.023 139.47 165.848 140.199 166.469C140.922 167.096 142.296 167.413 144.309 167.413C146.322 167.413 147.702 167.096 148.448 166.469C149.189 165.848 149.559 165.023 149.559 164.008V155.979C149.559 154.964 149.189 154.14 148.448 153.518C147.702 152.891 146.322 152.575 144.309 152.575C142.296 152.575 140.922 152.891 140.199 153.518C139.47 154.14 139.112 154.964 139.112 155.979V164.008ZM142.075 163.655V156.332C142.075 155.985 142.212 155.693 142.487 155.448C142.756 155.203 143.383 155.083 144.362 155.083C145.342 155.083 145.969 155.203 146.238 155.448C146.513 155.693 146.65 155.985 146.65 156.332V163.655C146.65 164.02 146.513 164.319 146.238 164.563C145.969 164.808 145.342 164.934 144.362 164.934C143.383 164.934 142.756 164.808 142.487 164.563C142.212 164.319 142.075 164.02 142.075 163.655ZM165.401 152.903H159.47V160.77H165.401C166.524 160.77 167.283 160.495 167.659 159.952C168.042 159.408 168.233 158.638 168.233 157.64V155.735C168.233 154.898 168 154.217 167.54 153.692C167.074 153.166 166.363 152.903 165.401 152.903ZM162.409 155.083H164.451C164.923 155.083 165.24 155.203 165.401 155.448C165.563 155.693 165.646 155.997 165.646 156.362V157.288C165.646 157.646 165.563 157.951 165.401 158.196C165.24 158.441 164.923 158.566 164.451 158.566H162.409V155.083ZM159.47 167.329H159.195V152.634H165.401C166.453 152.634 167.235 152.927 167.743 153.518C168.251 154.104 168.507 154.844 168.507 155.735V157.61C168.507 158.447 168.394 159.133 168.179 159.665C167.958 160.203 167.528 160.567 166.871 160.77H167.169C168.28 160.77 169.105 161.021 169.648 161.517C170.192 162.019 170.467 162.736 170.467 163.679V167.329H170.192V163.679C170.192 162.795 169.947 162.126 169.457 161.678C168.967 161.236 168.203 161.015 167.169 161.015H159.47V167.329ZM161.429 169.778C161.775 169.778 162.02 169.701 162.176 169.545C162.331 169.39 162.409 169.145 162.409 168.799V163.464H166.22C166.602 163.464 166.865 163.56 167.02 163.751C167.175 163.942 167.253 164.235 167.253 164.635V168.799C167.253 169.145 167.331 169.39 167.486 169.545C167.641 169.701 167.886 169.778 168.233 169.778H172.45C172.796 169.778 173.047 169.701 173.203 169.545C173.352 169.39 173.43 169.145 173.43 168.799V163.028C173.43 161.887 173.125 160.967 172.522 160.28C171.912 159.587 171.118 159.193 170.138 159.08C170.7 158.847 171.094 158.458 171.321 157.927C171.548 157.389 171.662 156.744 171.662 155.979V154.725C171.662 153.387 171.279 152.294 170.503 151.446C169.732 150.603 168.334 150.179 166.297 150.179H157.235C156.895 150.179 156.644 150.257 156.489 150.412C156.333 150.567 156.256 150.818 156.256 151.159V168.799C156.256 169.145 156.333 169.39 156.489 169.545C156.644 169.701 156.895 169.778 157.235 169.778H161.429ZM179.72 167.329H179.445V152.634H179.72V159.868H185.622L188.752 152.634H189.056L185.926 159.868H187.037C188.148 159.868 188.973 160.077 189.516 160.495C190.06 160.914 190.335 161.595 190.335 162.538V167.329H190.06V162.538C190.06 161.666 189.809 161.051 189.301 160.687C188.794 160.322 188.035 160.143 187.037 160.143H179.72V167.329ZM181.679 169.778C182.026 169.778 182.271 169.701 182.426 169.545C182.581 169.39 182.659 169.145 182.659 168.799V162.568H186.249C186.542 162.568 186.757 162.646 186.906 162.813C187.049 162.974 187.121 163.201 187.121 163.488V168.799C187.121 169.145 187.199 169.39 187.354 169.545C187.509 169.701 187.754 169.778 188.101 169.778H192.294C192.641 169.778 192.885 169.701 193.041 169.545C193.196 169.39 193.274 169.145 193.274 168.799V161.123C193.274 160.035 192.969 159.157 192.36 158.494C191.751 157.837 190.938 157.479 189.923 157.419L192.7 151.081C192.826 150.788 192.838 150.567 192.73 150.412C192.617 150.257 192.414 150.179 192.103 150.179H187.91C187.569 150.179 187.282 150.251 187.067 150.388C186.852 150.52 186.679 150.753 186.548 151.081L183.746 157.419H182.659V151.159C182.659 150.818 182.581 150.567 182.426 150.412C182.271 150.257 182.026 150.179 181.679 150.179H177.462C177.115 150.179 176.864 150.257 176.709 150.412C176.554 150.567 176.482 150.818 176.482 151.159V168.799C176.482 169.145 176.554 169.39 176.709 169.545C176.864 169.701 177.115 169.778 177.462 169.778H181.679Z" fill="black"/>
<path d="M184.573 84.874H66.1312V85.9298H184.573V84.874Z" fill="black"/>
</svg>
