<svg width="249" height="80" viewBox="0 0 249 80" fill="none" xmlns="http://www.w3.org/2000/svg">
<path d="M7.50516 22.2841C7.42881 22.3131 7.40532 22.3306 7.29373 22.3306C6.61832 22.3654 5.28512 22.3886 6.74753 20.891C6.77102 20.862 6.90023 20.7517 6.98245 20.7111C7.18214 20.5601 14.8172 17.4604 22.6637 15.5449C30.4868 13.4784 39.3141 13.1882 39.3141 13.194C39.3141 13.1882 43.5016 13.0547 47.1077 13.2985C53.2276 13.6642 51.4832 13.6874 47.7244 13.9138C48.1062 13.8093 38.3803 14.1982 38.392 14.3201C38.3979 14.3085 30.3752 15.214 22.7577 17.2341C15.1109 19.1264 7.67549 22.139 7.51104 22.2783" fill="#3066BF"/>
<path d="M2.51295 29.186C2.43072 29.2324 2.40136 29.2498 2.27215 29.2788C1.43816 29.4994 0.0462295 29.6561 1.55563 27.9206C1.58499 27.8915 1.72007 27.758 1.79643 27.7058C2.00199 27.52 10.3595 22.8589 19.2338 19.8811C28.0494 16.7233 37.2996 15.5276 37.2937 15.5624C37.2937 15.5334 43.114 14.5582 47.2839 14.6801C54.3434 14.8368 51.3305 14.9994 47.002 15.3592C47.4425 15.1967 37.0646 16.4157 37.0881 16.5898C37.094 16.5724 28.0083 18.4705 19.4335 21.5644C10.8117 24.49 2.70089 29.0118 2.51882 29.186" fill="#3066BF"/>
<path d="M9.66649 54.5465C9.62537 54.5988 9.60188 54.6162 9.51378 54.6568C8.9852 54.86 7.81645 55.3766 8.43313 53.6004C8.44487 53.5713 8.50948 53.432 8.55646 53.374C8.67392 53.1824 13.7483 48.1091 19.3807 43.8659C24.9425 39.524 31.0212 36.1051 31.0212 36.1051C31.0212 36.1051 35.0619 34.0502 38.0279 33.0286C43.0612 31.2814 41.1876 32.4713 38.2569 33.9225C38.5271 33.7077 31.356 37.6781 31.403 37.771C31.4147 37.771 25.5416 41.1029 20.1383 45.3345C14.6704 49.4674 9.74871 54.3898 9.66649 54.5407" fill="#3066BF"/>
<path d="M7.51097 62.5802C7.45811 62.6441 7.44049 62.6673 7.34652 62.7253C6.74159 63.1665 5.61982 63.7179 6.1484 61.8198C6.16015 61.785 6.21888 61.6224 6.25999 61.5586C6.36571 61.3496 11.3696 54.86 17.3132 49.4558C23.1629 43.9124 29.87 39.6459 29.87 39.6692C29.8583 39.6575 34.3042 37.0396 37.6402 35.7626C43.2725 33.5743 41.1523 34.9093 37.8869 36.6623C38.1688 36.3779 30.2283 41.1958 30.3046 41.3293C30.3046 41.3177 23.85 45.468 18.2001 50.849C12.4385 56.1138 7.59906 62.3945 7.51097 62.5802Z" fill="#3066BF"/>
<path d="M51.9296 4.69598C51.2483 6.19939 49.6449 7.33711 49.6449 7.33711C51.3834 5.7176 51.6594 3.70338 51.6712 3.57568C51.6653 3.55246 51.6594 3.53505 51.6535 3.51183C51.4421 2.9836 51.2013 2.55986 50.9723 2.2348C50.7373 1.91554 50.473 1.62531 50.1735 1.35829C50.0619 4.62052 47.9946 6.40836 47.9946 6.40836C49.9738 3.74401 49.3337 0.760412 49.3337 0.760412C48.5349 0.325062 47.8008 0.139312 47.3368 0.0580467C47.0725 0.017414 46.7965 0 46.5145 0C45.3223 0 44.224 0.365694 43.3313 0.992599C45.0169 0.812654 46.8258 1.57307 46.8258 1.57307C44.6058 0.957771 42.7264 1.64272 42.4562 1.75301C41.8983 2.35089 41.4813 3.07648 41.264 3.87752C41.2287 4.03425 41.217 4.12132 41.217 4.12132C44.2123 2.56567 46.82 3.40154 46.82 3.40154C43.6073 3.1055 41.3109 4.91656 41.0878 5.10231C41.0878 5.14294 41.0878 5.18357 41.0878 5.22421C41.0878 7.34291 42.3975 9.16558 44.2769 9.98404C43.2726 8.66638 43.0553 6.77986 43.0553 6.77986C43.6191 8.96241 45.2048 10.193 45.4045 10.3439C45.5748 10.3788 45.7452 10.402 45.9214 10.4194C45.9507 10.4194 45.9801 10.4194 46.0095 10.4252C46.0271 10.4252 46.0447 10.4252 46.0623 10.4252C47.372 10.5181 48.1473 10.1814 48.1473 10.1814C45.2636 8.45741 44.7056 5.86852 44.7056 5.86852C46.1034 8.82891 49.087 9.80409 49.1222 9.8099C49.1398 9.80409 49.1457 9.79248 49.1633 9.78668C49.9151 9.35713 50.4319 8.85793 50.7315 8.52126C51.5008 7.62153 51.959 6.47221 51.959 5.2184C51.959 5.03265 51.9472 4.85851 51.9296 4.67857M46.356 5.37513C44.1359 5.40995 42.28 6.90176 41.7749 7.37193V7.36032C43.6954 5.15455 45.9449 5.00363 46.3853 5.00363C46.4088 5.00363 46.4323 5.00363 46.4499 5.00363C47.607 3.00102 47.002 0.53403 46.8669 0.0638514C48.0298 2.93136 46.9257 4.98621 46.7377 5.27064C47.9124 7.14555 50.2205 7.9466 50.9077 8.12074C47.789 7.63895 46.5204 5.65375 46.356 5.36352" fill="#3066BF"/>
<path d="M67.8869 10.0247C69.0909 6.1646 62.3486 6.69863 61.262 8.45744C60.1637 10.2163 60.8509 10.9302 61.8317 13.3043C63.6465 17.7275 66.6829 13.8906 67.8928 10.0247" fill="#3066BF"/>
<path d="M72.1567 20.6298C75.3928 21.0245 78.5232 22.2725 84.0615 21.8081C82.0177 20.5079 77.0666 11.9808 76.4734 3.41895C75.7334 6.9656 74.6821 12.3756 78.4879 19.0161C41.7573 9.72863 30.5396 27.549 30.5396 27.549C47.5365 17.7333 50.89 20.2119 59.2769 19.2193C58.3078 19.5501 54.7545 20.328 54.1026 20.8794C50.9664 25.6392 51.2542 30.6371 51.6829 32.1463C53.4096 31.9141 56.8102 32.3901 58.5721 33.0982C57.3446 32.7964 53.6152 32.8486 51.2718 35.1705C50.9664 38.6127 52.6109 52.1085 56.1112 55.156C58.3783 57.1296 62.8066 60.2177 67.1234 63.1374L67.1704 63.2013C67.1704 63.2013 73.3724 67.3458 73.6602 67.3458C72.7029 64.8034 68.1277 59.7127 65.6433 56.8858C64.8681 55.9977 63.9108 55.2547 62.8301 54.7613C61.3325 54.0879 60.0697 54.1053 58.8834 52.8167C56.8982 50.6632 57.2565 46.5244 58.0905 43.3203C58.9186 40.1161 60.6218 34.6423 59.3767 31.6006C58.1375 28.559 61.6437 26.8814 64.4511 25.2329C62.9711 25.291 59.8877 25.9527 56.7984 24.606C60.8156 25.0588 68.0748 23.7991 72.1449 20.624" fill="#3066BF"/>
<path d="M92.3368 16.5201C91.9374 20.1887 91.3971 25.767 95.9076 32.1347C62.3955 26.6261 52.4347 43.9414 52.4347 43.9414C60.8215 37.0222 71.8101 34.3869 76.4617 34.1838C75.5161 34.6075 72.4797 35.5711 71.8747 36.1864C70.8704 40.0929 70.0952 45.2707 70.6708 46.7567C72.3975 46.3562 73.4311 46.4839 75.287 47.0353C74.0067 46.8496 73.1199 47.2559 70.9703 49.8332C70.9997 53.3508 72.8262 67.0672 76.6731 69.8186C80.52 72.5701 87.9789 75.751 94.0224 80C92.9358 77.8581 90.7628 74.8977 86.2581 71.264C81.7534 67.6303 80.5964 69.3543 78.3646 67.3575C76.1386 65.3607 76.0447 60.6821 77.5247 57.6404C81.6535 49.1656 77.5423 48.4981 75.9859 45.5319C74.4296 42.5715 78.899 39.9826 81.5772 38.0439C79.9209 38.6243 74.7056 40.894 74.1007 37.9858C76.7671 40.0581 83.1864 36.0645 85.5357 34.3463C88.8423 34.4392 96.2718 35.4318 101.845 34.4334C99.643 33.3131 93.7816 25.1401 92.3485 16.5201M77.6246 60.5486C77.9417 62.2668 77.8654 64.3042 82.417 66.3475C86.9746 68.3849 90.8744 70.254 95.2675 73.7252C93.3822 69.0408 86.957 64.5828 84.3317 63.6076C81.7123 62.6325 77.6246 60.5486 77.6246 60.5486ZM81.3599 29.3543C83.2804 28.1817 85.0423 26.4287 85.1715 25.0936C85.8352 26.1501 86.2522 27.9321 85.1246 29.569C86.8748 29.3659 89.4413 29.6735 91.3031 30.2772C90.0345 25.529 86.3344 24.6989 85.1246 24.5538C84.9307 23.9501 84.2612 23.4916 82.9221 23.3174C80.5729 23.0098 79.78 22.5686 78.4585 23.9211C77.1312 25.2736 78.1884 31.2814 81.3657 29.3485" fill="#3066BF"/>
<path d="M57.8966 46.6521C57.8966 46.6521 63.0121 48.7824 64.6742 49.6705C66.3363 50.5528 69.1907 52.8109 70.8234 59.3701C70.242 58.7955 69.5548 58.3021 68.9323 57.7913C67.047 56.2472 65.1676 54.7264 63.0298 53.5248C61.538 52.689 59.9229 51.8937 58.8128 50.5528C58.5133 50.193 58.2608 49.7982 58.067 49.3687C57.697 48.5502 57.6911 47.517 57.8966 46.6521Z" fill="#3066BF"/>
<path d="M121.626 6.74487H126.325C127.816 6.74487 129.678 6.91901 131 7.95224C131.992 8.73007 132.415 9.78652 132.415 11.1738C132.415 11.9226 132.292 12.9849 131.546 13.8672C130.9 14.645 129.778 15.1733 128.833 15.3706V15.4229C129.978 15.4983 131.023 15.9743 131.693 16.6302C132.392 17.3036 132.861 18.3658 132.861 19.6429C132.861 21.3262 132.186 22.3827 131.522 22.9631C130.078 24.2169 127.646 24.3446 126.254 24.3446H121.632V6.74487H121.626ZM124.116 14.2619H125.485C126.577 14.2619 128.369 14.2619 129.261 13.3854C129.884 12.7817 129.931 11.9517 129.931 11.5221C129.931 10.6688 129.708 9.96647 129.032 9.46146C128.416 8.98548 127.517 8.80553 126.724 8.80553H124.116V14.2619ZM124.116 22.284H125.978C127.047 22.284 128.692 22.2085 129.561 21.303C129.913 20.9257 130.23 20.322 130.23 19.3642C130.23 18.2323 129.831 17.379 128.739 16.8276C127.846 16.3748 126.753 16.3226 125.732 16.3226H124.116V22.2782V22.284Z" fill="#3066BF"/>
<path d="M150.146 9.15983C151.438 10.64 152.284 12.8574 152.284 15.545C152.284 18.2325 151.385 20.5254 150.146 21.9591C149.048 23.2362 147.11 24.6003 143.932 24.6003C140.755 24.6003 138.811 23.242 137.719 21.9591C136.479 20.5254 135.581 18.2906 135.581 15.545C135.581 12.7994 136.426 10.64 137.719 9.15983C139.134 7.49969 141.148 6.49548 143.932 6.49548C146.716 6.49548 148.731 7.5055 150.146 9.15983ZM139.68 10.7213C138.787 11.8764 138.218 13.7339 138.218 15.545C138.218 17.031 138.611 18.9929 139.68 20.3745C140.526 21.4773 141.847 22.3829 143.932 22.3829C146.017 22.3829 147.339 21.4773 148.19 20.3745C149.253 18.9929 149.653 17.031 149.653 15.545C149.653 13.7339 149.083 11.8764 148.19 10.7213C147.392 9.68805 145.97 8.70706 143.932 8.70706C141.894 8.70706 140.479 9.68225 139.68 10.7213Z" fill="#3066BF"/>
<path d="M166.755 6.74487V24.3446H164.271V8.95645H158.78L158.68 13.2809C158.656 14.7901 158.627 15.6667 158.504 17.8782C158.38 19.9157 158.204 21.9299 157.212 23.2359C156.466 24.2169 155.502 24.5942 154.234 24.5942C153.658 24.5942 153.188 24.4956 152.865 24.3911L152.942 22.2085C153.212 22.284 153.541 22.3594 153.811 22.3594C155.127 22.3594 155.602 21.5816 155.849 20.7515C155.996 20.2233 156.143 19.3933 156.295 16.6302C156.348 15.7247 156.442 13.159 156.442 12.5321L156.524 6.75068H166.761L166.755 6.74487Z" fill="#3066BF"/>
<path d="M171.43 6.74487H181.15V8.95645H173.921V14.111H180.504V16.3226H173.921V22.1331H181.15V24.3446H171.43V6.74487Z" fill="#3066BF"/>
<path d="M185.256 6.74504H187.74V18.7375L187.664 20.9259H187.787C188.386 19.7185 188.733 19.167 189.355 18.157L196.315 6.74504H199.099V24.3448H196.608V12.3524L196.685 10.164H196.562C195.915 11.5455 195.516 12.0737 194.993 12.927L188.034 24.339H185.25V6.74504H185.256ZM196.191 2.0955C196.115 3.65695 195.17 4.43478 194.876 4.63794C194.23 5.09071 193.137 5.39255 192.192 5.39255C191.246 5.39255 190.13 5.09071 189.508 4.63794C188.862 4.16196 188.286 3.27965 188.21 2.0955L189.878 1.89233C190.025 2.5947 190.448 2.97781 190.5 3.02425C191 3.47701 191.693 3.52345 192.192 3.52345C192.691 3.52345 193.361 3.4712 193.877 3.02425C194.124 2.79786 194.424 2.44378 194.524 1.89233L196.191 2.0955Z" fill="#3066BF"/>
<path d="M203.78 6.74487H213.77V8.95645H206.264V13.9833H208.525C209.723 13.9833 211.609 14.0588 213.048 15.0862C213.946 15.7421 215.009 16.9263 215.009 19.132C215.009 21.065 214.24 22.2724 213.5 22.9283C212.102 24.1821 210.17 24.3388 208.402 24.3388H203.78V6.74487ZM206.27 22.1331H208.132C209.101 22.1331 210.593 22.1331 211.491 21.3785C211.838 21.0766 212.384 20.3975 212.384 19.1204C212.384 17.9653 211.914 17.2862 211.515 16.9089C210.54 16.0033 209.077 16.0498 208.185 16.0498H206.27V22.1331Z" fill="#3066BF"/>
<path d="M232.147 9.15983C233.439 10.64 234.285 12.8574 234.285 15.545C234.285 18.2325 233.392 20.5254 232.147 21.9591C231.049 23.2362 229.11 24.6003 225.933 24.6003C222.756 24.6003 220.812 23.242 219.719 21.9591C218.474 20.5254 217.576 18.2906 217.576 15.545C217.576 12.7994 218.421 10.64 219.719 9.15983C221.129 7.49969 223.143 6.49548 225.933 6.49548C228.723 6.49548 230.731 7.5055 232.147 9.15983ZM221.675 10.7213C220.782 11.8764 220.207 13.7339 220.207 15.545C220.207 17.031 220.606 18.9929 221.675 20.3745C222.521 21.4773 223.842 22.3829 225.927 22.3829C228.012 22.3829 229.334 21.4773 230.179 20.3745C231.248 18.9929 231.648 17.031 231.648 15.545C231.648 13.7339 231.078 11.8764 230.179 10.7213C229.381 9.68805 227.965 8.70706 225.927 8.70706C223.889 8.70706 222.468 9.68225 221.675 10.7213Z" fill="#3066BF"/>
<path d="M248.756 6.74487V24.3446H246.272V8.95645H240.775L240.681 13.2809C240.651 14.7901 240.628 15.6667 240.504 17.8782C240.375 19.9157 240.205 21.9299 239.206 23.2359C238.466 24.2169 237.491 24.5942 236.223 24.5942C235.647 24.5942 235.183 24.4956 234.854 24.3911L234.931 22.2085C235.207 22.284 235.524 22.3594 235.8 22.3594C237.116 22.3594 237.585 21.5816 237.838 20.7515C237.985 20.2233 238.138 19.3933 238.284 16.6302C238.337 15.7247 238.437 13.159 238.437 12.5321L238.513 6.75068H248.75L248.756 6.74487Z" fill="#3066BF"/>
<path d="M129.549 46.2633C127.999 46.658 126.712 46.7392 125.919 46.7392C123.423 46.7392 122.366 45.9846 121.896 45.4042C121.244 44.6031 121.203 43.5699 121.203 43.0126V38.1483H123.241V42.3335C123.241 42.9314 123.224 43.7672 123.958 44.3883C124.592 44.9224 125.632 44.9804 126.284 44.9804C127.329 44.9804 128.41 44.8585 129.549 44.5219V38.1367H131.593V52.097H129.549V46.2575V46.2633Z" fill="#3066BF"/>
<path d="M135.434 38.1426H143.416V39.9014H137.472V43.9879H142.887V45.7409H137.472V50.344H143.416V52.1028H135.434V38.1426Z" fill="#3066BF"/>
<path d="M146.781 38.1426H150.152L154.621 49.7461L159.015 38.1426H162.386V52.1028H160.342V40.0175H160.301L155.585 52.1028H153.582L148.866 40.0175H148.825V52.1028H146.781V38.1426Z" fill="#3066BF"/>
<path d="M166.221 38.1426H176.857V52.1028H174.819V39.9014H168.259V52.1028H166.221V38.1426Z" fill="#3066BF"/>
<path d="M180.698 38.1425H182.736V47.6505L182.677 49.3861H182.783C183.276 48.4283 183.558 47.9872 184.069 47.192L189.784 38.1367H192.069V52.0969H190.025V42.583L190.089 40.8474H189.984C189.449 41.9445 189.126 42.3625 188.697 43.0416L182.977 52.0911H180.692V38.1309L180.698 38.1425Z" fill="#3066BF"/>
<path d="M207.033 40.058C208.096 41.2305 208.789 42.9893 208.789 45.1254C208.789 47.2616 208.055 49.0726 207.033 50.2103C206.135 51.2262 204.543 52.3 201.93 52.3C199.316 52.3 197.718 51.2204 196.82 50.2103C195.804 49.0726 195.064 47.2964 195.064 45.1254C195.064 42.9545 195.757 41.2363 196.82 40.058C197.989 38.7461 199.639 37.9451 201.93 37.9451C204.22 37.9451 205.865 38.7461 207.033 40.058ZM198.435 41.2944C197.701 42.2115 197.231 43.6859 197.231 45.1254C197.231 46.3038 197.56 47.8536 198.435 48.9507C199.128 49.833 200.209 50.547 201.93 50.547C203.65 50.547 204.725 49.833 205.418 48.9507C206.299 47.8536 206.622 46.298 206.622 45.1254C206.622 43.6917 206.152 42.2115 205.418 41.2944C204.766 40.4817 203.598 39.7039 201.93 39.7039C200.262 39.7039 199.087 40.4817 198.435 41.2944Z" fill="#3066BF"/>
<path d="M211.791 38.1426H213.834V43.9879H220.653V38.1426H222.691V52.1028H220.653V45.7409H213.834V52.1028H211.791V38.1426Z" fill="#3066BF"/>
<path d="M230.937 38.1426H233.081L239.101 52.1028H236.881L235.424 48.5736H228.441L226.99 52.1028H224.847L230.931 38.1426H230.937ZM231.941 40.0175L229.105 46.9367H234.784L231.941 40.0175Z" fill="#3066BF"/>
<path d="M242.372 39.9014H237.944V38.1426H248.844V39.9014H244.41V52.1028H242.372V39.9014Z" fill="#3066BF"/>
<path d="M121.761 59.8287H125.497C126.583 59.8287 128.233 59.9506 129.42 60.8562C130.113 61.3844 130.847 62.3305 130.847 64.0081C130.847 65.2735 130.401 66.2313 129.884 66.8118C128.656 68.2223 126.695 68.3036 125.802 68.3036H123.799V73.9573H121.755V59.8287H121.761ZM123.805 66.5331H125.825C126.601 66.5331 127.482 66.2893 127.987 65.825C128.316 65.5231 128.68 64.9601 128.68 64.0894C128.68 63.2187 128.351 62.6556 127.74 62.2145C127.006 61.6862 126.166 61.605 125.532 61.605H123.799V66.5331H123.805Z" fill="#3066BF"/>
<path d="M144.461 61.7734C145.524 62.9634 146.217 64.7396 146.217 66.899C146.217 69.0583 145.483 70.8926 144.461 72.0419C143.562 73.0751 141.971 74.1606 139.357 74.1606C136.744 74.1606 135.152 73.0693 134.248 72.0419C133.226 70.8926 132.491 69.0931 132.491 66.899C132.491 64.7048 133.185 62.9634 134.248 61.7734C135.41 60.4384 137.073 59.6373 139.357 59.6373C141.642 59.6373 143.298 60.4442 144.461 61.7734ZM135.869 63.0215C135.129 63.9502 134.659 65.442 134.659 66.899C134.659 68.0889 134.988 69.662 135.869 70.7765C136.562 71.6646 137.642 72.3902 139.357 72.3902C141.072 72.3902 142.153 71.6646 142.846 70.7765C143.727 69.6678 144.05 68.0889 144.05 66.899C144.05 65.442 143.58 63.9502 142.846 63.0215C142.194 62.1914 141.031 61.4078 139.357 61.4078C137.683 61.4078 136.52 62.1914 135.869 63.0215Z" fill="#3066BF"/>
<path d="M158.733 62.1913C157.834 61.6689 156.818 61.4076 155.79 61.4076C154.527 61.4076 153.265 61.7908 152.302 62.5338C151.156 63.4219 150.322 64.9369 150.322 66.8931C150.322 68.6054 150.957 69.836 151.667 70.6429C152.654 71.7748 154.058 72.3785 156.002 72.3785C156.695 72.3785 157.675 72.2392 158.797 71.7167L158.921 73.6497C157.734 74.0967 156.777 74.1547 155.943 74.1547C154.04 74.1547 151.796 73.7716 150.123 72.0766C149.06 70.9854 148.161 69.1685 148.161 66.8698C148.161 65.3955 148.531 62.9111 150.816 61.1755C152.29 60.0668 154.128 59.6256 155.796 59.6256C157.347 59.6256 158.245 59.9275 158.903 60.2293L158.739 62.1913H158.733Z" fill="#3066BF"/>
<path d="M171.495 62.1913C170.596 61.6689 169.574 61.4076 168.558 61.4076C167.29 61.4076 166.021 61.7908 165.064 62.5338C163.919 63.4219 163.079 64.9369 163.079 66.8931C163.079 68.6054 163.713 69.836 164.43 70.6429C165.41 71.7748 166.814 72.3785 168.758 72.3785C169.451 72.3785 170.432 72.2392 171.554 71.7167L171.677 73.6497C170.491 74.0967 169.533 74.1547 168.694 74.1547C166.796 74.1547 164.547 73.7716 162.873 72.0766C161.81 70.9854 160.906 69.1685 160.906 66.8698C160.906 65.3955 161.276 62.9111 163.566 61.1755C165.04 60.0668 166.867 59.6256 168.547 59.6256C170.097 59.6256 170.996 59.9275 171.648 60.2293L171.483 62.1913H171.495Z" fill="#3066BF"/>
<path d="M174.514 59.8288H176.558V69.4588L176.499 71.2118H176.599C177.086 70.2424 177.374 69.7954 177.885 68.9944L183.6 59.8288H185.884V73.9574H183.84V64.3274L183.905 62.5744H183.805C183.277 63.6831 182.948 64.1068 182.519 64.7918L176.798 73.9516H174.514V59.823V59.8288Z" fill="#3066BF"/>
<path d="M189.725 59.8288H191.763V69.4588L191.704 71.2118H191.804C192.298 70.2424 192.585 69.7954 193.09 68.9944L198.811 59.8288H201.101V73.9574H199.058V64.3274L199.122 62.5744H199.022C198.494 63.6831 198.165 64.1068 197.736 64.7918L192.022 73.9516H189.737V59.823L189.725 59.8288Z" fill="#3066BF"/>
</svg>
