<svg width="125" height="80" viewBox="0 0 125 80" fill="none" xmlns="http://www.w3.org/2000/svg">
<path d="M78.9639 59.546L76.407 65.7152L73.8501 59.546C74.6042 59.369 75.4173 59.2393 76.407 59.2393C77.3968 59.2393 78.2098 59.369 78.9522 59.546H78.9639Z" fill="#3066BF"/>
<path d="M76.4188 8.5166C82.4871 8.5166 83.1587 12.4211 88.9324 12.4211C94.2111 12.4211 95.2716 9.20077 100.032 8.63456L97.0155 15.9244C94.4704 17.0804 92.8914 18.897 88.9324 18.897C83.1587 18.897 82.4871 14.9926 76.4188 14.9926C70.3506 14.9926 69.6789 18.897 63.9053 18.897C59.9462 18.897 58.3555 17.0804 55.8104 15.9244L52.7939 8.63456C57.566 9.20077 58.6265 12.4211 63.9053 12.4211C69.6789 12.4211 70.3506 8.5166 76.4188 8.5166Z" fill="#3066BF"/>
<path d="M76.4188 21.1973C82.487 21.1973 83.1587 25.1017 88.9323 25.1017C91.0297 25.1017 92.4555 24.5827 93.7162 23.9221L90.6055 31.4361C90.0871 31.5187 89.5568 31.5777 88.9323 31.5777C83.1587 31.5777 82.487 27.6732 76.4188 27.6732C70.3506 27.6732 69.6789 31.5777 63.9053 31.5777C63.2808 31.5777 62.7505 31.5187 62.2321 31.4361L59.1214 23.9221C60.3821 24.5827 61.7961 25.1017 63.9053 25.1017C69.6789 25.1017 70.3506 21.1973 76.4188 21.1973Z" fill="#3066BF"/>
<path d="M88.0015 37.6998L85.5271 43.6803C82.5342 42.5951 81.0377 40.3539 76.4188 40.3539C71.7999 40.3539 70.2916 42.6069 67.2988 43.6803L64.8243 37.6998C69.7261 37.287 70.7041 33.8779 76.4188 33.8779C82.1336 33.8779 83.1115 37.287 88.0133 37.6998H88.0015Z" fill="#3066BF"/>
<path d="M83.3825 48.8588L81.2026 54.1316C79.9536 53.5182 78.5161 53.0346 76.407 53.0346C74.2978 53.0346 72.8603 53.5182 71.6113 54.1316L69.4314 48.8588C71.2931 47.7854 73.0017 46.5586 76.407 46.5586C79.8122 46.5586 81.5208 47.7736 83.3825 48.8588Z" fill="#3066BF"/>
<path d="M102.612 2.40637C102.235 2.37098 101.882 2.312 101.446 2.312C95.3776 2.312 94.706 6.21646 88.9323 6.21646C83.1586 6.21646 82.487 2.312 76.4188 2.312C70.3505 2.312 69.6789 6.21646 63.9052 6.21646C58.1315 6.21646 57.4599 2.312 51.3917 2.312C50.9557 2.312 50.6022 2.37098 50.2252 2.40637L49.2236 0H103.602L102.612 2.40637Z" fill="#3066BF"/>
<path d="M78.9639 59.546L76.407 65.7152L73.8501 59.546C74.6042 59.369 75.4173 59.2393 76.407 59.2393C77.3968 59.2393 78.2098 59.369 78.9522 59.546H78.9639Z" fill="#3066BF"/>
<path d="M67.3812 65.7269H76.407L49.2237 0L22.0285 65.7269H31.0543L35.9442 53.9192H62.5031L67.393 65.7269H67.3812ZM39.4084 45.5323L49.2119 21.8343L59.0153 45.5323H39.3966H39.4084Z" fill="#3066BF"/>
<path d="M2.16235 78.4311V72.6158H5.65011V71.2238H0.618774V78.4311H2.16235ZM5.92112 74.8334C5.92112 75.3288 6.0036 75.8007 6.16857 76.2489C6.33353 76.6971 6.56919 77.0982 6.87555 77.4403C7.1819 77.7942 7.59431 78.0655 8.08919 78.2778C8.58408 78.4783 9.13788 78.5845 9.7506 78.5845C10.3633 78.5845 10.9171 78.4783 11.412 78.2778C11.9069 78.0773 12.3075 77.7942 12.6256 77.4403C12.932 77.0864 13.1794 76.6971 13.3326 76.2489C13.4976 75.8007 13.5801 75.3288 13.5801 74.8334C13.5801 74.338 13.4976 73.8661 13.3326 73.4179C13.1677 72.9696 12.932 72.5686 12.6256 72.2265C12.3193 71.8726 11.9069 71.6013 11.412 71.389C10.9171 71.1884 10.3633 71.0823 9.7506 71.0823C9.13788 71.0823 8.58408 71.1884 8.08919 71.389C7.59431 71.5895 7.19369 71.8726 6.87555 72.2265C6.56919 72.5804 6.32174 72.9696 6.16857 73.4179C6.0036 73.8661 5.92112 74.338 5.92112 74.8334ZM11.9894 74.8334C11.9894 75.494 11.7891 76.0484 11.4002 76.4966C11.0114 76.9331 10.4576 77.1572 9.73881 77.1572C9.02005 77.1572 8.46625 76.9331 8.07741 76.4966C7.68857 76.0602 7.48826 75.5058 7.48826 74.8334C7.48826 74.161 7.68857 73.6184 8.07741 73.1702C8.46625 72.7337 9.02005 72.5096 9.73881 72.5096C10.4576 72.5096 10.9996 72.7337 11.4002 73.1702C11.8008 73.6066 11.9894 74.161 11.9894 74.8334ZM14.7112 71.2356V78.4429H16.2548V76.072H17.4213C19.4951 76.072 20.532 75.2698 20.532 73.6538C20.532 72.0377 19.4951 71.2356 17.4213 71.2356H14.7112ZM18.9531 73.6538C18.9531 74.3615 18.47 74.7154 17.492 74.7154H16.243V72.5922H17.492C18.47 72.5922 18.9531 72.946 18.9531 73.6538ZM21.1683 74.8334C21.1683 75.3288 21.2508 75.8007 21.4158 76.2489C21.5807 76.6971 21.8164 77.0982 22.1227 77.4403C22.4291 77.7942 22.8415 78.0655 23.3364 78.2778C23.8313 78.4783 24.3851 78.5845 24.9978 78.5845C25.6105 78.5845 26.1643 78.4783 26.6592 78.2778C27.1541 78.0773 27.5547 77.7942 27.8728 77.4403C28.1792 77.0864 28.4266 76.6971 28.5798 76.2489C28.7448 75.8007 28.8273 75.3288 28.8273 74.8334C28.8273 74.338 28.7448 73.8661 28.5798 73.4179C28.4149 72.9696 28.1792 72.5686 27.8728 72.2265C27.5665 71.8726 27.1541 71.6013 26.6592 71.389C26.1643 71.1884 25.6105 71.0823 24.9978 71.0823C24.3851 71.0823 23.8313 71.1884 23.3364 71.389C22.8415 71.5895 22.4409 71.8726 22.1227 72.2265C21.8164 72.5804 21.5689 72.9696 21.4158 73.4179C21.2508 73.8661 21.1683 74.338 21.1683 74.8334ZM27.2366 74.8334C27.2366 75.494 27.0363 76.0484 26.6474 76.4966C26.2586 76.9331 25.7048 77.1572 24.986 77.1572C24.2672 77.1572 23.7134 76.9331 23.3246 76.4966C22.9358 76.0602 22.7355 75.5058 22.7355 74.8334C22.7355 74.161 22.9358 73.6184 23.3246 73.1702C23.7134 72.7337 24.2672 72.5096 24.986 72.5096C25.7048 72.5096 26.2468 72.7337 26.6474 73.1702C27.0363 73.6066 27.2366 74.161 27.2366 74.8334ZM30.5122 80V78.4311H35.5907V80H36.9458V77.0746H36.0267V71.2238H31.1367C31.1367 73.76 30.7597 75.7063 29.9938 77.0746H29.1454V80H30.5005H30.5122ZM32.5743 72.6158H34.4831V77.0746H31.6198C32.1147 76.1191 32.4329 74.6329 32.5625 72.6158H32.5743ZM37.6292 75.3288V76.532H41.4586V75.3288H37.6292ZM44.3337 78.4429V75.494H45.5002L47.468 78.4429H49.1765L46.7139 74.7508L49.0469 71.2356H47.3266L45.512 74.102H44.3455V71.2356H42.8019V78.4429H44.3455H44.3337ZM53.3948 76.7915L56.0106 71.2356H54.3139L52.735 74.9395L50.8379 71.2356H49.1294L51.9926 76.3315L51.8748 76.591C51.757 76.8387 51.6038 77.0038 51.427 77.0982C51.2503 77.1926 51.0264 77.2398 50.7672 77.2398C50.4844 77.2398 50.2016 77.1926 49.9306 77.11V78.4194C50.3312 78.5373 50.6965 78.5963 51.0264 78.5963C51.5213 78.5963 51.9573 78.4665 52.3461 78.1952C52.735 77.9239 53.0767 77.4639 53.3948 76.8033V76.7915ZM56.753 71.2356V78.4429H58.2965V76.072H59.4631C61.5369 76.072 62.5738 75.2698 62.5738 73.6538C62.5738 72.0377 61.5369 71.2356 59.4631 71.2356H56.753ZM60.9948 73.6538C60.9948 74.3615 60.5117 74.7154 59.5338 74.7154H58.2848V72.5922H59.5338C60.5117 72.5922 60.9948 72.946 60.9948 73.6538ZM63.21 74.8334C63.21 75.3288 63.2925 75.8007 63.4575 76.2489C63.6225 76.6971 63.8581 77.0982 64.1645 77.4403C64.4708 77.7942 64.8832 78.0655 65.3781 78.2778C65.873 78.4783 66.4268 78.5845 67.0395 78.5845C67.6522 78.5845 68.206 78.4783 68.7009 78.2778C69.1958 78.0773 69.5964 77.7942 69.9146 77.4403C70.2209 77.0864 70.4684 76.6971 70.6216 76.2489C70.7865 75.8007 70.869 75.3288 70.869 74.8334C70.869 74.338 70.7865 73.8661 70.6216 73.4179C70.4566 72.9696 70.2209 72.5686 69.9146 72.2265C69.6082 71.8726 69.1958 71.6013 68.7009 71.389C68.206 71.1884 67.6522 71.0823 67.0395 71.0823C66.4268 71.0823 65.873 71.1884 65.3781 71.389C64.8832 71.5895 64.4826 71.8726 64.1645 72.2265C63.8581 72.5804 63.6107 72.9696 63.4575 73.4179C63.2925 73.8661 63.21 74.338 63.21 74.8334ZM69.2783 74.8334C69.2783 75.494 69.078 76.0484 68.6891 76.4966C68.3003 76.9331 67.7465 77.1572 67.0277 77.1572C66.309 77.1572 65.7552 76.9331 65.3663 76.4966C64.9775 76.0602 64.7772 75.5058 64.7772 74.8334C64.7772 74.161 64.9775 73.6184 65.3663 73.1702C65.7552 72.7337 66.309 72.5096 67.0277 72.5096C67.7465 72.5096 68.2885 72.7337 68.6891 73.1702C69.078 73.6066 69.2783 74.161 69.2783 74.8334ZM72.0002 71.2356V78.4429H73.5437V76.072H74.7103C76.7841 76.072 77.821 75.2698 77.821 73.6538C77.821 72.0377 76.7841 71.2356 74.7103 71.2356H72.0002ZM76.242 73.6538C76.242 74.3615 75.7589 74.7154 74.7809 74.7154H73.532V72.5922H74.7809C75.7589 72.5922 76.242 72.946 76.242 73.6538ZM78.2216 71.2356V72.6275H80.4368V78.4429H81.9686V72.6275H84.1838V71.2356H78.2334H78.2216ZM88.2136 78.4429L88.7438 77.0982H92.0313L92.5615 78.4429H94.1522L91.2182 71.2356H89.5568L86.6111 78.4429H88.2018H88.2136ZM90.2285 73.2291C90.2992 73.064 90.3463 72.8753 90.3934 72.6629C90.4288 72.8517 90.4759 73.0404 90.5466 73.2291L91.5599 75.8124H89.2387L90.2402 73.2291H90.2285ZM99.7255 71.2356V74.1374H96.497V71.2356H94.9534V78.4429H96.497V75.5411H99.7255V78.4429H101.269V71.2356H99.7255ZM103.661 78.4429L104.191 77.0982H107.479L108.009 78.4429H109.6L106.666 71.2356H105.004L102.059 78.4429H103.649H103.661ZM105.676 73.2291C105.747 73.064 105.794 72.8753 105.841 72.6629C105.876 72.8517 105.923 73.0404 105.994 73.2291L107.007 75.8124H104.686L105.688 73.2291H105.676ZM111.945 78.4429V72.6275H115.138V78.4429H116.669V71.2356H110.413V78.4429H111.956H111.945ZM119.061 78.4429L119.592 77.0982H122.879L123.409 78.4429H125L122.066 71.2356H120.405L117.459 78.4429H119.05H119.061ZM121.076 73.2291C121.147 73.064 121.194 72.8753 121.241 72.6629C121.277 72.8517 121.324 73.0404 121.394 73.2291L122.408 75.8124H120.087L121.088 73.2291H121.076Z" fill="#3066BF"/>
</svg>
