<svg width="380" height="402" viewBox="0 0 380 402" fill="none" xmlns="http://www.w3.org/2000/svg">
<path fill-rule="evenodd" clip-rule="evenodd" d="M235.708 32.1439C233.7 31.6656 231.657 31.1874 229.614 30.7775C229.423 30.7433 229.224 30.7006 229.025 30.6579C228.826 30.6152 228.627 30.5725 228.436 30.5384C228.219 30.4956 228.003 30.4528 227.787 30.4101C226.279 30.1117 224.787 29.8167 223.242 29.5477C223.117 29.5322 222.984 29.5098 222.848 29.4866C222.683 29.4587 222.512 29.4298 222.342 29.4111C220.438 29.1037 218.533 28.7962 216.594 28.5229H216.213C216.107 28.5058 216.001 28.489 215.895 28.4724C215.89 28.4715 215.884 28.4706 215.879 28.4697C213.878 28.1561 211.875 27.9296 209.841 27.7031C207.521 27.6006 204.37 28.5912 201.046 31.1532C201.011 31.1703 200.986 31.1959 200.96 31.2215C200.934 31.2472 200.908 31.2728 200.873 31.2899C200.691 31.4531 200.501 31.6085 200.307 31.7672C200.095 31.9408 199.878 32.1184 199.661 32.3147C198.484 33.3736 197.306 34.6375 196.198 36.1064C198.613 36.1858 201.018 36.3114 203.41 36.4831C203.418 36.4836 203.425 36.4842 203.432 36.4847L203.435 36.4849C203.519 36.4909 203.602 36.497 203.685 36.503C204.212 36.5417 204.738 36.5825 205.264 36.6256C205.406 36.6373 205.548 36.6491 205.69 36.6611C206.733 36.749 207.774 36.8459 208.811 36.9515C209.018 36.9725 209.224 36.9939 209.43 37.0156C211.18 37.1998 212.921 37.4091 214.655 37.6436C214.682 37.6472 214.709 37.6508 214.736 37.6545C214.923 37.6795 215.11 37.7048 215.296 37.7304C215.602 37.7723 215.908 37.8149 216.213 37.8584C216.34 37.8764 216.467 37.8946 216.594 37.913C218.023 38.1194 219.446 38.3422 220.862 38.5815C221.017 38.6078 221.173 38.6342 221.328 38.6609C221.434 38.6791 221.54 38.6975 221.646 38.7159C221.798 38.7422 221.95 38.7688 222.102 38.7956C223.621 39.0633 225.133 39.3501 226.637 39.6559C226.69 39.6666 226.743 39.6773 226.795 39.6881C227.125 39.7555 227.455 39.8238 227.785 39.8931C227.847 39.9062 227.909 39.9193 227.972 39.9325C229.826 40.3243 231.669 40.7453 233.503 41.1953C233.519 41.1991 233.534 41.203 233.55 41.2068C234.259 41.3811 234.967 41.5598 235.673 41.7428C313.239 61.7263 370.478 131.31 370.478 214.079C370.478 214.09 370.478 214.102 370.478 214.113C370.477 215.33 370.443 216.513 370.408 217.697L370.408 217.7C370.36 219.377 370.15 221.293 369.761 223.371C366.8 239.199 353.463 264.396 322.242 264.396C312.892 264.396 304.097 262.279 296.479 258.453C283.123 251.778 273.235 239.922 269.959 225.013C269.364 222.306 268.988 219.497 268.848 216.601C268.847 216.592 268.847 216.582 268.846 216.573H268.777L268.846 216.402V216.265C268.846 216.06 268.838 215.855 268.829 215.65C268.82 215.445 268.812 215.24 268.812 215.036C268.8 215.038 268.789 215.04 268.777 215.043C268.06 215.19 267.348 215.345 266.641 215.508C266.536 215.532 266.432 215.556 266.328 215.58C265.404 215.796 264.488 216.024 263.58 216.265C263.41 216.31 263.24 216.356 263.071 216.402C262.436 216.575 261.804 216.754 261.176 216.939C260.408 217.166 259.646 217.402 258.889 217.647C258.371 217.815 257.855 217.988 257.341 218.165C235.812 225.59 218.927 240.746 205.652 262.825C204.717 264.499 203.747 266.139 202.708 267.778C198.103 275.157 192.597 281.92 186.33 287.933C167.562 305.901 141.937 316.968 113.716 316.968C62.0117 316.968 19.0902 279.863 10.8223 231.173C9.88002 225.624 9.38785 219.925 9.38402 214.113C9.38401 214.09 9.384 214.068 9.384 214.045C9.45325 122.018 80.3007 46.2519 171.163 36.9604C172.34 33.6127 173.691 30.3676 175.18 27.2249C173.518 27.3511 171.862 27.4985 170.212 27.6667C168.034 27.8888 165.867 28.1473 163.711 28.4414C71.254 41.0565 0.0377979 119.333 1.5041e-05 214.038C1.41022e-05 214.04 1.32074e-05 214.043 1.23565e-05 214.045C4.11908e-06 214.068 0 214.09 0 214.113C0 220.323 0.306239 226.462 0.904624 232.517C10.2801 327.386 91.374 401.548 190 401.548C204.855 401.548 219.295 399.874 233.18 396.697C305.898 380.027 362.582 322.161 376.641 249.366C378.215 241.262 379.248 232.969 379.714 224.522C379.834 222.35 379.916 220.168 379.961 217.977L379.961 217.975C379.987 216.691 380 215.404 380 214.113C380 214.102 380 214.09 380 214.079C379.984 126.949 319.696 53.7018 238.011 32.7202C238.007 32.7191 238.003 32.7181 237.999 32.717C237.237 32.5214 236.473 32.3304 235.708 32.1439ZM291.992 267.389C315.989 279.441 347.066 276.139 365.128 255.276L291.992 267.389ZM365.128 255.276C349.419 320.424 297.254 371.748 230.95 386.949C217.792 389.96 204.101 391.548 190 391.548C116.282 391.548 53.0162 347.888 25.1625 285.481C46.1506 310.822 78.061 326.968 113.716 326.968C144.596 326.968 172.676 314.848 193.245 295.156L193.252 295.149C200.105 288.576 206.13 281.177 211.174 273.1C212.284 271.347 213.316 269.605 214.301 267.846C226.501 247.605 241.522 234.286 260.316 227.719C264.387 245.447 276.259 259.521 291.992 267.389" fill="white"/>
<path d="M213.374 352.29C207.071 344.16 203.678 334.185 203.678 323.869C203.678 317.959 204.786 312.186 206.933 306.755C210.084 306.857 213.2 307.199 216.178 307.814C211.469 316.49 209.288 324.996 209.461 333.775C209.565 339.856 210.915 346.073 213.408 352.29" fill="white"/>
<path d="M261.087 315.329C256.377 306.345 252.187 300.572 247.132 295.994C241.418 290.836 234.389 287.181 225.144 284.551C229.541 281.715 234.32 279.597 239.375 278.333C241.488 278.402 243.704 278.778 245.955 279.392C255.754 282.159 263.511 289.128 267.285 293.056C272.306 298.317 275.803 303.851 275.942 306.754C273.622 308.804 271.163 310.546 268.635 311.981C266.246 313.313 263.718 314.406 261.087 315.26" fill="white"/>
<path d="M244.642 317.652C239.309 312.562 233.422 308.668 227.12 306.003C221.476 303.646 215.451 302.28 209.149 301.87C211.365 297.703 214.204 293.945 217.598 290.597C218.429 289.777 219.26 289.026 220.091 288.309C220.229 288.343 220.333 288.411 220.472 288.411C230.583 290.871 237.993 294.423 243.741 299.615C248.208 303.612 251.913 308.736 256.138 316.593C252.744 317.276 249.039 317.652 245.161 317.652H244.642Z" fill="white"/>
<path d="M251.773 370.77C242.181 363.323 235.567 353.895 232.728 343.647C230.166 334.287 230.858 324.483 234.702 315.909C236.987 317.515 239.203 319.359 241.35 321.409C242.043 348.873 255.201 358.677 268.221 367.764C263.027 369.711 257.521 370.77 251.877 370.804C251.877 370.804 251.808 370.77 251.808 370.736" fill="white"/>
<path d="M243.502 370.19C236.75 369.097 230.24 366.535 224.561 362.743C217.982 352.802 214.588 343.033 214.415 333.673C214.242 325.44 216.458 317.379 221.098 309.078C222.483 309.522 223.799 310 225.046 310.512C226.916 311.298 228.682 312.186 230.413 313.143C225.807 322.912 224.907 334.151 227.85 344.877C230.413 354.135 235.815 362.845 243.502 370.156" fill="white"/>
<path d="M271.996 364.348C270.126 363.05 268.395 361.854 266.733 360.59C271.13 360.01 275.597 358.916 280.099 357.311C282.731 356.354 285.328 355.227 287.821 353.963C286.921 355.022 285.951 356.081 284.947 357.038C281.553 360.385 277.71 363.186 273.485 365.373C273.104 365.099 272.619 364.792 271.996 364.314" fill="white"/>
<path d="M279.964 302.827C278.406 298.898 275.081 294.116 270.891 289.744C265.628 284.21 259.499 279.769 253.335 276.934C265.282 277.446 276.432 282.263 284.95 290.632C285.747 291.417 286.474 292.169 287.166 292.955C284.95 296.678 282.526 299.991 279.964 302.827Z" fill="white"/>
<path d="M261.126 356.116C256.417 351.914 253.093 347.508 250.738 342.418C251.05 342.418 251.361 342.418 251.673 342.418C261.022 342.418 269.506 340.642 276.882 337.123C285.365 333.092 292.637 326.67 298.524 317.994C298.766 319.941 298.904 321.888 298.904 323.835C298.904 330.974 297.312 337.806 294.23 344.16C289.624 347.644 284.153 350.582 278.37 352.666C272.518 354.784 266.563 355.979 261.161 356.082" fill="white"/>
<path d="M251.638 337.464C250.704 337.464 249.734 337.464 248.799 337.396C247.414 332.955 246.618 328.104 246.375 322.57C255.794 322.4 263.862 320.35 271.064 316.285C274.181 314.543 277.124 312.391 279.894 309.863C279.929 309.863 280.033 309.76 280.102 309.692C283.842 306.242 287.305 302.006 290.421 297.087C293.399 301.323 295.615 305.969 297.069 310.922C291.217 321.067 283.703 328.378 274.7 332.648C268.017 335.824 260.261 337.464 251.638 337.464Z" fill="white"/>
<path d="M191.661 93.6321C189.133 95.7841 186.467 97.8337 183.662 99.7467C182.727 94.9301 182.242 90.0111 182.173 85.0238V82.8376C182.173 79.7632 182.381 76.7571 182.727 73.7852C187.159 73.4778 191.73 73.5803 196.336 74.1268C199.937 74.5367 203.434 75.1174 206.828 75.8006C202.742 82.7351 197.548 88.5423 191.626 93.6321M134.56 280.179C132.76 280.52 130.89 280.691 128.951 280.691C125.453 279.803 117.143 280.35 116.52 269.692C118.112 263.953 123.964 262.313 130.163 262.04C134.63 261.869 142.282 265.661 151.805 270.717C147.096 275.465 141.382 278.915 134.56 280.111M323.452 193.584C323.487 193.174 323.522 192.764 323.556 192.354C323.695 190.919 323.799 189.485 323.902 188.05C323.902 187.537 323.972 187.059 324.006 186.547C324.076 185.146 324.11 183.712 324.145 182.277C324.145 181.764 324.18 181.286 324.18 180.774C324.18 178.997 324.18 177.187 324.11 175.377C324.11 175.308 324.11 175.206 324.11 175.137V175.035C324.041 173.6 323.972 172.166 323.833 170.731C323.833 170.355 323.764 169.979 323.729 169.604C323.625 168.408 323.487 167.246 323.348 166.085C323.245 165.334 323.141 164.582 323.037 163.831C322.968 163.455 322.933 163.113 322.898 162.737C315.834 115.153 279.787 76.0056 230.824 60.9411C233.387 54.4849 235.083 48.0287 235.672 41.7091C228.816 39.9328 221.787 38.5664 214.653 37.61C215.242 42.0507 215.034 48.3362 214.134 56.8419C205.373 55.2023 196.266 54.3483 186.952 54.28C189.445 46.9014 192.7 40.5819 196.197 36.0386H196.128C197.201 34.6722 198.309 33.5108 199.383 32.5202C199.487 32.4177 199.59 32.3152 199.694 32.2469C203.538 28.8309 207.243 27.5328 209.875 27.6353C212.022 27.8403 214.134 28.1135 216.246 28.3868C216.385 28.3868 216.523 28.421 216.627 28.4551C218.532 28.7284 220.471 29.0017 222.341 29.3433C222.652 29.3775 222.929 29.4458 223.241 29.4799C224.972 29.7874 226.704 30.0948 228.435 30.4706C228.816 30.5389 229.231 30.6072 229.612 30.7097C231.655 31.1196 233.664 31.5978 235.707 32.0761C234.287 15.2694 225.699 0.785676 212.022 0C201.841 0 193.6 4.03086 187.021 10.3504C187.021 10.3504 186.813 10.5554 186.709 10.6579C182.104 15.167 178.295 20.8717 175.213 27.1229H175.248C175.074 27.4645 174.936 27.8061 174.763 28.1477C167.837 42.324 166.348 55.6464 166.348 55.6464C83.97 67.534 51.2818 152.114 90.9993 185.112C116.277 201.133 147.719 182.448 149.45 159.526C129.332 161.952 122.649 149.449 122.718 133.497C122.856 106.51 140.378 85.6387 164.409 77.372C164.444 80.2756 164.548 82.9401 164.79 85.3654C164.929 86.7318 165.102 88.064 165.206 89.4304C165.967 96.4332 166.66 103.06 167.318 109.482C159.388 113.752 150.939 117.783 142.317 122.087L142.559 148.049C150.766 144.599 160.115 139.201 169.638 132.438C170.053 136.844 170.504 141.217 170.884 145.623C173.447 172.917 173.135 197.546 168.08 234.712C167.041 242.296 164.582 250.801 160.566 258.419C144.775 252.578 130.094 246.087 118.944 245.848C108.382 245.302 93.3193 250.391 91.1378 264.944C87.9175 286.396 110.148 297.908 130.232 296.371C133.522 296.132 136.707 295.619 139.789 294.868C150.316 292.34 159.804 287.045 168.426 279.598C174.139 282.536 180.165 285.439 186.294 287.933C192.561 281.921 198.067 275.157 202.672 267.779C195.92 267.95 188.995 266.925 182.069 265.251C204.646 236.83 220.505 192.286 233.629 145.623C210.325 141.592 196.682 130.456 189.341 116.485C193.15 113.001 196.924 109.346 200.525 105.554C208.178 97.458 215.242 88.7814 220.956 79.8315C255.791 92.8806 273.624 124.137 275.805 164.104C275.909 165.914 275.978 167.759 275.978 169.638C275.978 170.116 275.978 170.56 275.978 171.038C275.978 172.951 275.978 174.864 275.944 176.811V176.914C275.563 191.261 273.243 204.515 268.776 216.3V216.437C268.776 216.437 268.741 216.573 268.707 216.607H268.776C269.676 235.429 280.584 250.562 296.408 258.453C306.831 246.156 314.657 231.33 319.297 214.831H319.332C320.751 209.707 321.859 204.412 322.656 198.981C322.656 198.776 322.725 198.571 322.76 198.366C323.002 196.795 323.175 195.189 323.348 193.584" fill="white"/>
</svg>
