<svg class="soc_ico" width="36" height="23" viewBox="0 0 36 23" fill="none" xmlns="http://www.w3.org/2000/svg">
<path fill-rule="evenodd" clip-rule="evenodd" d="M30.8071 14.5882C31.9945 15.8472 33.2477 17.0318 34.3127 18.4178C34.7831 19.0337 35.2285 19.6693 35.5692 20.384C36.052 21.4001 35.6147 22.5183 34.7758 22.5789L29.561 22.5764C28.216 22.6976 27.1431 22.1095 26.2409 21.1108C25.5189 20.3121 24.8503 19.4621 24.1561 18.6364C23.8715 18.299 23.5736 17.9815 23.2177 17.7305C22.5058 17.2286 21.8879 17.3823 21.4811 18.1886C21.0667 19.0088 20.9727 19.9169 20.9321 20.831C20.8762 22.1646 20.505 22.5152 19.2715 22.5762C16.6354 22.7113 14.1337 22.2781 11.8096 20.8339C9.76062 19.5607 8.17172 17.7633 6.78876 15.7284C4.0961 11.7662 2.03406 7.41228 0.180779 2.93641C-0.23638 1.92799 0.0686979 1.38667 1.09319 1.36751C2.7944 1.33162 4.49538 1.33418 6.19859 1.36496C6.89002 1.37595 7.34775 1.80665 7.61472 2.51605C8.53513 4.97394 9.66136 7.3124 11.075 9.47995C11.4515 10.057 11.8354 10.6341 12.382 11.0403C12.9867 11.49 13.4472 11.341 13.7317 10.6093C13.9122 10.1454 13.9912 9.64575 14.0319 9.14888C14.1667 7.43949 14.1845 5.73303 13.9481 4.02964C13.803 2.96655 13.2516 2.27835 12.2749 2.07718C11.7764 1.97461 11.8506 1.77318 12.092 1.46421C12.5111 0.931322 12.9054 0.599609 13.6912 0.599609H19.5847C20.5125 0.798483 20.7186 1.25115 20.8456 2.26507L20.8507 9.37483C20.8406 9.76734 21.0312 10.9321 21.6822 11.1919C22.2032 11.3769 22.5466 10.9242 22.8592 10.5654C24.2703 8.93889 25.2774 7.0167 26.1771 5.02631C26.5763 4.15111 26.9196 3.24219 27.2524 2.33404C27.4989 1.66014 27.8857 1.32856 28.5846 1.34325L34.2568 1.34874C34.425 1.34874 34.5952 1.35142 34.758 1.38169C35.7139 1.5586 35.9758 2.00514 35.6806 3.01879C35.2154 4.60914 34.3104 5.93446 33.4255 7.2659C32.4796 8.6874 31.4679 10.0602 30.5299 11.4901C29.6681 12.7959 29.7365 13.4541 30.8071 14.5882Z" fill="white"/>
</svg>
