<svg width="1440" height="1438" viewBox="0 0 1440 1438" fill="none" xmlns="http://www.w3.org/2000/svg">
<g opacity="0.05">
<path d="M146.565 1154.27C51.8212 1029.69 0 877.353 0 718.738C0 628.176 16.7503 539.708 49.2039 456.475C96.8375 458.045 143.948 463.28 188.964 472.703C117.775 605.667 84.7982 736.013 87.4155 870.547C88.9858 963.727 109.4 1059 147.088 1154.27" fill="#A7A7A7"/>
<path d="M867.874 588.392C796.685 450.716 733.348 362.248 656.925 292.102C570.556 213.056 464.297 157.044 324.537 116.736C391.014 73.2872 463.25 40.8315 539.673 21.4627C571.603 22.5096 605.104 28.2679 639.128 37.6906C787.263 80.0925 904.515 186.882 961.57 247.083C1037.47 327.699 1090.34 412.502 1092.43 456.998C1057.36 488.407 1020.2 515.104 981.985 537.091C945.867 557.506 907.655 574.258 867.874 587.345" fill="#A7A7A7"/>
<path d="M619.76 623.988C539.149 545.99 450.164 486.313 354.896 445.482C269.575 409.361 178.495 388.422 83.2279 382.141C116.728 318.276 159.651 260.693 210.949 209.392C223.511 196.829 236.074 185.312 248.637 174.319C250.731 174.842 252.301 175.889 254.395 175.889C407.241 213.58 519.258 268.022 606.151 347.591C673.675 408.838 729.684 487.36 793.544 607.76C742.246 618.23 686.238 623.988 627.612 623.988H619.76Z" fill="#A7A7A7"/>
<path d="M727.067 1437.48C582.072 1323.36 482.094 1178.88 439.171 1021.83C400.436 878.4 410.905 728.161 469.008 596.767C503.555 621.371 537.056 649.639 569.509 681.048C579.978 1101.93 778.888 1252.16 975.703 1391.41C897.186 1421.25 813.959 1437.48 728.637 1438C728.637 1438 727.59 1437.48 727.59 1436.95" fill="#A7A7A7"/>
<path d="M602.486 1429.1C500.414 1412.35 402.007 1373.09 316.161 1314.98C216.707 1162.65 165.409 1012.93 162.792 869.501C160.174 743.342 193.675 619.8 263.817 492.595C284.755 499.4 304.646 506.729 323.49 514.581C351.756 526.621 378.451 540.231 404.624 554.889C335.005 704.604 321.396 876.829 365.889 1041.2C404.624 1183.07 486.281 1316.55 602.486 1428.58" fill="#A7A7A7"/>
<path d="M1032.76 1339.59C1004.49 1319.69 978.321 1301.37 953.195 1282C1019.67 1273.1 1087.2 1256.35 1155.25 1231.75C1195.03 1217.09 1234.29 1199.82 1271.97 1180.45C1258.36 1196.68 1243.71 1212.9 1228.53 1227.56C1177.23 1278.86 1119.13 1321.79 1055.27 1355.29C1049.51 1351.1 1042.18 1346.39 1032.76 1339.06" fill="#A7A7A7"/>
<path d="M1153.15 396.798C1129.6 336.598 1079.35 263.311 1016.01 196.305C936.445 111.501 843.795 43.4489 750.622 0C931.211 7.8522 1099.76 81.6629 1228.53 209.916C1240.57 221.956 1251.56 233.472 1262.03 245.512C1228.53 302.572 1191.89 353.349 1153.15 396.798Z" fill="#A7A7A7"/>
<path d="M868.92 1212.9C797.732 1148.52 747.481 1080.99 711.887 1002.99C716.598 1002.99 721.309 1002.99 726.02 1002.99C867.35 1002.99 995.594 975.767 1107.09 921.849C1235.33 860.078 1345.26 761.664 1434.24 628.7C1437.91 658.538 1440 688.376 1440 718.215C1440 827.622 1415.92 932.318 1369.33 1029.69C1299.72 1083.08 1217.01 1128.1 1129.6 1160.03C1041.13 1192.49 951.101 1210.81 869.444 1212.38" fill="#A7A7A7"/>
<path d="M725.496 927.607C711.363 927.607 696.707 927.607 682.574 926.56C661.636 858.507 649.596 784.173 645.932 699.37C788.31 696.752 910.273 665.343 1019.15 603.049C1066.26 576.352 1110.75 543.372 1152.63 504.635C1153.15 504.635 1154.72 503.064 1155.77 502.017C1212.3 449.146 1264.65 384.234 1311.76 308.853C1356.77 373.765 1390.27 444.958 1412.26 520.863C1323.79 676.336 1210.21 788.361 1074.11 853.796C973.086 902.48 855.834 927.607 725.496 927.607Z" fill="#A7A7A7"/>
</g>
</svg>
