<svg class="soc_ico" width="36" height="28" viewBox="0 0 36 28" fill="none" xmlns="http://www.w3.org/2000/svg">
<path d="M35.2625 4.42456C34.85 2.77251 33.641 1.47022 32.1077 1.02538C29.3066 0.199707 18.1019 0.199707 18.1019 0.199707C18.1019 0.199707 6.89768 0.199707 4.09657 0.994074C2.59278 1.43845 1.35422 2.77275 0.941737 4.42456C0.20459 7.44198 0.20459 13.6997 0.20459 13.6997C0.20459 13.6997 0.20459 19.989 0.941737 22.9749C1.35466 24.6267 2.56328 25.929 4.09679 26.3738C6.92717 27.1997 18.1024 27.1997 18.1024 27.1997C18.1024 27.1997 29.3066 27.1997 32.1077 26.4053C33.6412 25.9607 34.85 24.6584 35.263 23.0066C35.9999 19.989 35.9999 13.7315 35.9999 13.7315C35.9999 13.7315 36.0294 7.44198 35.2625 4.42456ZM14.5346 19.4808V7.9186L23.8518 13.6997L14.5346 19.4808Z" fill="white"/>
</svg>
