<svg width="283" height="60" viewBox="0 0 283 60" fill="none" xmlns="http://www.w3.org/2000/svg">
<path class="mob_logo" d="M55.1682 32.6592C55.1682 47.7608 42.8448 60.0002 27.6396 60.0002C12.4343 60.0002 0.115967 47.7608 0.115967 32.6592C0.115967 17.5575 12.4394 5.31812 27.6446 5.31812C42.8498 5.31812 55.1732 17.5575 55.1732 32.6592" fill="#2696F5"/>
<path class="mob_logo" d="M39.1263 32.9136V32.8894C39.1263 32.8894 39.1214 32.9088 39.1165 32.9136H39.1263Z" fill="#61B0FF"/>
<path class="mob_logo" d="M25.4932 5.16797C25.468 5.21801 25.4479 5.26805 25.4277 5.31808C25.4529 5.26805 25.4731 5.21801 25.4983 5.16797" fill="#61B0FF"/>
<path class="mob_logo" d="M28.5414 6.46877H28.5515C28.7026 6.27362 28.8588 6.10348 29.01 5.95337C28.8538 6.09848 28.6976 6.26861 28.5364 6.46877" fill="#61B0FF"/>
<path class="mob_logo" d="M34.2949 5.88852C34.0027 5.81847 33.7054 5.74842 33.4082 5.68837C33.3528 5.67836 33.2923 5.66335 33.2369 5.65334C32.985 5.6033 32.7381 5.55327 32.4812 5.50823C32.4409 5.50323 32.3955 5.49322 32.3502 5.48822C32.0731 5.44318 31.796 5.39815 31.5138 5.35812H31.4584C31.1511 5.30808 30.8438 5.27305 30.5314 5.23802C30.1938 5.22301 29.7354 5.36812 29.2517 5.74341C29.2416 5.74842 29.2366 5.75842 29.2265 5.76343C29.1711 5.81347 29.1106 5.8585 29.0502 5.91354C28.8789 6.06866 28.7076 6.25381 28.5463 6.46897C29.4532 6.49899 30.35 6.57405 31.2317 6.69414C32.2746 6.83425 33.2923 7.03441 34.2899 7.29461C45.5754 10.2219 53.9035 20.4147 53.9035 32.5391C53.9035 32.7192 53.8985 32.8943 53.8934 33.0695C53.833 35.1861 52.0243 39.9097 46.8853 39.9097C45.525 39.9097 44.2453 39.5995 43.1369 39.0391C40.8395 37.8832 39.2474 35.6665 39.1165 32.9043H39.1064L39.1165 32.8793C39.1165 32.8793 39.1165 32.8643 39.1165 32.8593C39.1165 32.7993 39.1114 32.7392 39.1114 32.6792C35.1665 33.4948 32.1839 35.8916 29.9218 39.6796C29.7857 39.9247 29.6447 40.1649 29.4935 40.4051C28.8234 41.4859 28.0224 42.4767 27.1105 43.3574C24.3798 45.9894 20.6515 47.6107 16.5454 47.6107C8.16186 47.6107 1.36535 40.8605 1.36535 32.534C1.37542 19.0537 11.6835 7.95512 24.9037 6.59407C25.075 6.10369 25.2715 5.62832 25.4882 5.16797C11.2301 6.25881 0 18.0979 0 32.5441C0 47.7057 12.3788 60.0002 27.6445 60.0002C29.8059 60.0002 31.9068 59.755 33.9271 59.2897C44.5073 56.8478 52.7548 48.3713 54.8003 37.708C55.1228 36.0367 55.289 34.3104 55.289 32.5441C55.289 19.6591 46.3513 8.8458 34.2949 5.88852Z" fill="#3066BF"/>
<path class="mob_logo" d="M29.0602 5.91333C29.0602 5.91333 29.03 5.93835 29.0149 5.95336C29.03 5.93835 29.0451 5.92834 29.0602 5.91333Z" fill="white"/>
<path class="mob_logo" d="M34.2949 5.88863C34.0027 5.81858 33.7055 5.74852 33.4082 5.68848C33.7055 5.74852 33.9977 5.81858 34.2949 5.88863Z" fill="white"/>
<path class="mob_logo" d="M32.3551 5.48801C32.078 5.44298 31.8009 5.39794 31.5188 5.35791C31.7959 5.39794 32.078 5.43797 32.3551 5.48801Z" fill="white"/>
<path class="mob_logo" d="M31.4634 5.353C31.1561 5.31297 30.8487 5.27294 30.5364 5.24292C30.8437 5.27294 31.1561 5.31297 31.4634 5.353Z" fill="white"/>
<path class="mob_logo" d="M31.0452 52.7846C30.1283 51.5937 29.6345 50.1326 29.6345 48.6214C29.6345 47.7558 29.7957 46.9101 30.1081 46.1145C30.5666 46.1295 31.02 46.1796 31.4533 46.2696C30.7681 47.5406 30.4507 48.7866 30.4759 50.0725C30.491 50.9632 30.6875 51.8739 31.0503 52.7846" fill="white"/>
<path class="mob_logo" d="M37.9879 47.3703C37.3027 46.0543 36.6931 45.2087 35.9575 44.5382C35.1262 43.7826 34.1035 43.2472 32.7583 42.8619C33.3981 42.4466 34.0934 42.1363 34.829 41.9512C35.1363 41.9612 35.4588 42.0162 35.7862 42.1063C37.2121 42.5116 38.3406 43.5324 38.8898 44.1078C39.6203 44.8784 40.1292 45.6891 40.1493 46.1144C39.8118 46.4146 39.454 46.6698 39.0863 46.88C38.7386 47.0751 38.3708 47.2352 37.9879 47.3603" fill="white"/>
<path class="mob_logo" d="M35.5948 47.7107C34.8189 46.9651 33.9624 46.3947 33.0455 46.0043C32.2243 45.6591 31.3476 45.4589 30.4307 45.3989C30.7531 44.7884 31.1662 44.238 31.66 43.7476C31.7809 43.6275 31.9018 43.5174 32.0227 43.4124C32.0429 43.4174 32.058 43.4274 32.0781 43.4274C33.5493 43.7876 34.6275 44.308 35.4638 45.0686C36.1137 45.6541 36.6528 46.4047 37.2675 47.5555C36.7737 47.6556 36.2347 47.7107 35.6704 47.7107H35.5948Z" fill="white"/>
<path class="mob_logo" d="M36.6327 55.4915C35.2371 54.4007 34.2748 53.0196 33.8617 51.5185C33.4889 50.1474 33.5896 48.7113 34.1489 47.4553C34.4814 47.6905 34.8038 47.9607 35.1162 48.2609C35.217 52.284 37.1315 53.7201 39.0258 55.0512C38.2701 55.3364 37.469 55.4915 36.6478 55.4965C36.6478 55.4965 36.6377 55.4915 36.6377 55.4865" fill="white"/>
<path class="mob_logo" d="M35.4285 55.4067C34.4461 55.2466 33.4989 54.8713 32.6726 54.3159C31.7154 52.8598 31.2216 51.4287 31.1964 50.0576C31.1712 48.8517 31.4937 47.6708 32.1688 46.4548C32.3703 46.5199 32.5618 46.5899 32.7432 46.665C33.0152 46.7801 33.2722 46.9102 33.5241 47.0503C32.854 48.4814 32.723 50.1277 33.1513 51.6989C33.5241 53.0549 34.31 54.3309 35.4285 55.4017" fill="white"/>
<path class="mob_logo" d="M39.5749 54.551C39.3028 54.3608 39.0509 54.1857 38.8091 54.0005C39.4489 53.9155 40.0989 53.7553 40.7538 53.5202C41.1367 53.3801 41.5146 53.2149 41.8773 53.0298C41.7463 53.1849 41.6053 53.34 41.4592 53.4801C40.9654 53.9705 40.4062 54.3808 39.7915 54.7011C39.7361 54.661 39.6656 54.616 39.5749 54.546" fill="white"/>
<path class="mob_logo" d="M40.7337 45.539C40.507 44.9636 40.0234 44.263 39.4137 43.6225C38.6479 42.8119 37.7562 42.1614 36.8594 41.7461C38.5975 41.8212 40.2198 42.5267 41.4592 43.7526C41.5751 43.8677 41.6809 43.9778 41.7817 44.0929C41.4592 44.6383 41.1066 45.1237 40.7337 45.539Z" fill="white"/>
<path class="mob_logo" d="M37.9929 53.345C37.3077 52.7296 36.824 52.0841 36.4814 51.3385C36.5268 51.3385 36.5721 51.3385 36.6175 51.3385C37.9778 51.3385 39.2121 51.0783 40.2853 50.5629C41.5196 49.9724 42.5776 49.0317 43.4341 47.7607C43.4694 48.046 43.4896 48.3312 43.4896 48.6164C43.4896 49.6622 43.2578 50.663 42.8094 51.5937C42.1393 52.1041 41.3433 52.5344 40.5019 52.8397C39.6505 53.1499 38.7839 53.325 37.9979 53.34" fill="white"/>
<path class="mob_logo" d="M36.6125 50.6128C36.4765 50.6128 36.3354 50.6128 36.1994 50.6028C35.9978 49.9523 35.8819 49.2417 35.8467 48.4311C37.2171 48.4061 38.391 48.1059 39.4389 47.5104C39.8923 47.2552 40.3206 46.94 40.7236 46.5697C40.7287 46.5697 40.7438 46.5547 40.7539 46.5447C41.298 46.0393 41.8018 45.4188 42.2552 44.6982C42.6885 45.3187 43.011 45.9992 43.2226 46.7248C42.3711 48.2109 41.2778 49.2818 39.9679 49.9073C38.9955 50.3726 37.867 50.6128 36.6125 50.6128Z" fill="white"/>
<path class="mob_logo" d="M23.8456 5.42295C24.8835 2.93604 27.191 -0.341486 31.2366 0.0287994C35.2571 0.394081 35.7609 5.53804 35.6904 7.2994L33.1411 6.34366L30.224 6.21356H26.7325L23.8406 5.42295H23.8456Z" fill="#3066BF"/>
<path class="mob_logo" d="M27.8862 14.8955C27.5184 15.2107 27.1305 15.511 26.7224 15.7912C26.5864 15.0856 26.5159 14.3651 26.5058 13.6345V13.3143C26.5058 12.8639 26.536 12.4236 26.5864 11.9883C27.2313 11.9432 27.8963 11.9582 28.5664 12.0383C29.0904 12.0983 29.5992 12.1834 30.093 12.2835C29.4985 13.2993 28.7427 14.1499 27.8812 14.8955M19.5783 42.2215C19.3163 42.2716 19.0442 42.2966 18.7621 42.2966C18.2532 42.1665 17.0441 42.2466 16.9534 40.6854C17.1851 39.8447 18.0366 39.6045 18.9384 39.5645C19.5883 39.5395 20.7018 40.0949 22.0873 40.8355C21.4021 41.531 20.5708 42.0364 19.5783 42.2115M47.0616 29.5368C47.0666 29.4767 47.0716 29.4167 47.0767 29.3566C47.0968 29.1465 47.1119 28.9363 47.1271 28.7262C47.1271 28.6511 47.1371 28.581 47.1422 28.506C47.1522 28.3008 47.1573 28.0907 47.1623 27.8805C47.1623 27.8054 47.1674 27.7354 47.1674 27.6603C47.1674 27.4001 47.1674 27.1349 47.1573 26.8697C47.1573 26.8597 47.1573 26.8447 47.1573 26.8347V26.8197C47.1472 26.6095 47.1371 26.3994 47.117 26.1892C47.117 26.1342 47.1069 26.0791 47.1019 26.0241C47.0868 25.8489 47.0666 25.6788 47.0464 25.5087C47.0313 25.3986 47.0162 25.2885 47.0011 25.1784C46.991 25.1234 46.986 25.0733 46.9809 25.0183C45.9532 18.0479 40.7084 12.3135 33.5844 10.1068C33.9573 9.16108 34.2041 8.21535 34.2898 7.28964C33.2922 7.02944 32.2695 6.82928 31.2316 6.68918C31.3172 7.33968 31.287 8.26039 31.156 9.50635C29.8814 9.26616 28.5563 9.14107 27.201 9.13106C27.5638 8.05022 28.0374 7.12451 28.5462 6.459H28.5362C28.6923 6.25884 28.8536 6.08871 29.0098 5.9436C29.0249 5.92859 29.04 5.91358 29.0551 5.90357C29.6143 5.40319 30.1534 5.21304 30.5363 5.22805C30.8487 5.25807 31.156 5.2981 31.4633 5.33814C31.4835 5.33814 31.5037 5.34314 31.5188 5.34814C31.7959 5.38817 32.078 5.42821 32.3501 5.47824C32.3954 5.48325 32.4357 5.49326 32.4811 5.49826C32.733 5.54329 32.9849 5.58833 33.2368 5.64337C33.2922 5.65338 33.3527 5.66339 33.4081 5.6784C33.7053 5.73844 33.9976 5.8085 34.2948 5.87855C34.0882 3.41666 32.8388 1.29502 30.8487 1.17993C29.3675 1.17993 28.1684 1.77039 27.2111 2.6961C27.2111 2.6961 27.1809 2.72612 27.1658 2.74113C26.4957 3.40164 25.9415 4.23729 25.4931 5.15299H25.4981C25.4729 5.20303 25.4528 5.25307 25.4276 5.30311C24.42 7.37971 24.2033 9.33121 24.2033 9.33121C12.2175 11.0726 7.46144 23.4621 13.2402 28.2958C16.9181 30.6426 21.4928 27.9055 21.7447 24.5479C18.8175 24.9032 17.8451 23.0718 17.8552 20.735C17.8754 16.782 20.4247 13.7246 23.9212 12.5137C23.9262 12.939 23.9413 13.3293 23.9766 13.6846C23.9968 13.8847 24.0219 14.0799 24.0371 14.28C24.1479 15.3058 24.2487 16.2766 24.3444 17.2173C23.1906 17.8428 21.9613 18.4332 20.7068 19.0637L20.7421 22.8666C21.9361 22.3613 23.2965 21.5706 24.682 20.5799C24.7424 21.2254 24.8079 21.8659 24.8633 22.5114C25.2362 26.5094 25.1908 30.1172 24.4552 35.5614C24.3041 36.6723 23.9464 37.9182 23.3619 39.0341C21.0645 38.1784 18.9283 37.2277 17.3061 37.1927C15.7694 37.1126 13.5778 37.8582 13.2604 39.9898C12.7918 43.1323 16.0264 44.8186 18.9485 44.5934C19.4271 44.5584 19.8906 44.4833 20.339 44.3732C21.8706 44.0029 23.2511 43.2273 24.5056 42.1365C25.3369 42.5668 26.2136 42.9921 27.1053 43.3574C28.0172 42.4767 28.8183 41.486 29.4884 40.4052C28.5059 40.4302 27.4983 40.2801 26.4907 40.0349C29.7756 35.8717 32.083 29.3466 33.9925 22.5114C30.6018 21.9209 28.6168 20.2897 27.5487 18.2431C28.1029 17.7327 28.652 17.1973 29.176 16.6418C30.2895 15.4559 31.3172 14.185 32.1485 12.8739C37.217 14.7854 39.8116 19.3639 40.129 25.2185C40.1441 25.4837 40.1542 25.7539 40.1542 26.0291C40.1542 26.0991 40.1542 26.1642 40.1542 26.2342C40.1542 26.5145 40.1542 26.7947 40.1492 27.0799V27.0949C40.0938 29.1965 39.7562 31.138 39.1063 32.8643V32.8844C39.1063 32.8844 39.1012 32.9044 39.0962 32.9094H39.1063C39.2373 35.6665 40.8243 37.8832 43.1267 39.0391C44.6432 37.2377 45.7819 35.066 46.457 32.6492H46.462C46.6686 31.8986 46.8298 31.123 46.9457 30.3274C46.9457 30.2974 46.9558 30.2673 46.9608 30.2373C46.9961 30.0071 47.0213 29.772 47.0464 29.5368" fill="white"/>
<path d="M77.1574 20.5955V20.5758C77.7948 20.1829 77.8599 19.0696 78.1656 18.5392C78.2697 18.3624 78.4128 18.2707 78.6404 18.2707C78.751 18.2707 78.9006 18.2838 79.0632 18.3427V17.2426C78.8746 17.1836 78.6274 17.1509 78.4323 17.1509C77.8989 17.1509 77.5151 17.3997 77.268 17.8581C76.7801 18.775 76.8126 20.1371 75.8565 20.1371H75.3166V17.2164H74.1067V20.1371H73.5799C72.6107 20.1371 72.6497 18.775 72.1684 17.8581C71.9082 17.3997 71.5309 17.1509 70.991 17.1509C70.7959 17.1509 70.5487 17.1836 70.3601 17.2426V18.3427C70.5227 18.2773 70.6723 18.2707 70.7959 18.2707C71.0236 18.2707 71.1602 18.3624 71.2577 18.5392C71.5764 19.0696 71.6415 20.1829 72.2789 20.5758V20.5955C71.9667 20.7003 71.7521 20.9622 71.4659 21.5516L70.2495 24.0532H71.6415L72.6042 21.879C72.8709 21.2896 73.0465 21.1325 73.2546 21.1325H74.1132V24.0532H75.3231V21.1325H76.1882C76.3963 21.1325 76.572 21.2896 76.8387 21.879L77.7883 24.0532H79.1933L77.964 21.5516C77.6843 20.9557 77.4566 20.7003 77.1574 20.5955Z" fill="#2696F5"/>
<path d="M83.5645 21.1129H85.7435V20.052H83.5645V18.2643H85.7435L86.0883 17.2034H82.3286V24.0533H86.0948V22.9924H83.5645V21.1129Z" fill="#2696F5"/>
<path d="M93.9913 20.0324H90.7391V17.2034H89.5032V24.0533H90.7391V21.0933H93.9913V24.0533H95.2402V17.2034H93.9913V20.0324Z" fill="#2696F5"/>
<path d="M102.181 23.1104C100.789 23.1104 99.9235 22.115 99.9235 20.6808C99.9235 19.3383 100.717 18.1989 102.226 18.1989C102.883 18.1989 103.455 18.3626 103.982 18.6442V17.4785C103.56 17.2886 102.942 17.1445 102.194 17.1445C100.008 17.1445 98.603 18.7228 98.603 20.707C98.603 22.6913 99.8129 24.1582 102.037 24.1582C102.72 24.1582 103.442 24.0337 104.197 23.6146L103.859 22.6258C103.371 22.9074 102.857 23.1038 102.187 23.1038L102.181 23.1104Z" fill="#2696F5"/>
<path d="M110.565 20.5498V20.5302C111.196 20.1438 111.378 19.0633 111.69 18.5459C111.794 18.3691 111.938 18.2644 112.178 18.2644C112.289 18.2644 112.425 18.284 112.595 18.3495V17.2362C112.406 17.1773 112.139 17.1445 111.931 17.1445C111.385 17.1445 111.001 17.3934 110.741 17.8518C110.253 18.7686 110.181 20.0849 109.212 20.0849H108.601V17.2035H107.352V24.0534H108.601V21.0999H109.55C109.759 21.0999 109.954 21.2571 110.233 21.8465L111.274 24.0468H112.712L111.339 21.3946C111.092 20.9166 110.864 20.6546 110.565 20.5433V20.5498Z" fill="#2696F5"/>
<path d="M117.844 20.9557C117.544 21.3617 117.297 21.6957 117.089 22.0166H117.069C117.082 21.6564 117.089 21.2373 117.089 20.864V17.2033H115.84V24.0532H116.965L119.873 20.1437C120.172 19.7573 120.413 19.4168 120.647 19.1024H120.666C120.634 19.3709 120.634 19.7704 120.634 20.1633V24.0467H121.883V17.1968H120.653L117.837 20.9492L117.844 20.9557Z" fill="#2696F5"/>
<path d="M127.587 20.9557C127.288 21.3617 127.041 21.6957 126.833 22.0166H126.813C126.826 21.6564 126.833 21.2373 126.833 20.864V17.2033H125.584V24.0532H126.709L129.617 20.1437C129.916 19.7573 130.157 19.4168 130.391 19.1024H130.41C130.378 19.3709 130.378 19.7704 130.378 20.1633V24.0467H131.627V17.1968H130.397L127.581 20.9492L127.587 20.9557Z" fill="#2696F5"/>
<path d="M128.641 16.9349C129.871 16.9349 130.547 16.1883 130.521 15.1667H129.487C129.487 15.6317 129.259 16.0181 128.641 16.0181C128.023 16.0181 127.802 15.6317 127.802 15.1667H126.768C126.735 16.1883 127.399 16.9349 128.635 16.9349H128.641Z" fill="#2696F5"/>
<path d="M143.094 20.3729V20.3533C143.628 20.0848 143.921 19.5347 143.921 18.9388C143.921 18.0481 143.257 17.2034 141.807 17.2034H139.816V24.0533H141.995C143.576 24.0533 144.382 23.0841 144.382 22.0297C144.382 21.2308 143.895 20.5759 143.101 20.3795L143.094 20.3729ZM141.052 18.2315H141.631C142.372 18.2315 142.698 18.6375 142.698 19.1483C142.698 19.6591 142.34 20.0651 141.644 20.0651H141.059V18.2381L141.052 18.2315ZM141.846 23.0251H141.052V21.0933H141.982C142.672 21.0933 143.114 21.4469 143.114 22.0297C143.114 22.7239 142.672 23.0251 141.846 23.0251Z" fill="#2696F5"/>
<path d="M150.835 17.1445C148.818 17.1445 147.407 18.5787 147.407 20.6546C147.407 22.7306 148.831 24.1582 150.835 24.1582C152.838 24.1582 154.263 22.7568 154.263 20.6546C154.263 18.5525 152.851 17.1445 150.835 17.1445ZM150.835 23.1104C149.573 23.1104 148.727 22.2067 148.727 20.6612C148.727 19.1157 149.573 18.1989 150.835 18.1989C152.097 18.1989 152.942 19.1419 152.942 20.6612C152.942 22.1805 152.084 23.1104 150.835 23.1104Z" fill="#2696F5"/>
<path d="M157.827 22.4947C157.632 22.7959 157.372 22.94 157.086 22.94C157.053 22.94 156.969 22.94 156.878 22.9204V24.0729C156.982 24.1057 157.164 24.1057 157.229 24.1057C157.866 24.1057 158.354 23.8896 158.725 23.3591C159.408 22.3834 159.863 20.2092 160.039 18.225H161.372V24.0533H162.608V17.2034H159.018C158.823 19.3055 158.426 21.5779 157.827 22.4947Z" fill="#2696F5"/>
<path d="M167.539 21.1129H169.718V20.052H167.539V18.2643H169.718L170.062 17.2034H166.303V24.0533H170.069V22.9924H167.539V21.1129Z" fill="#2696F5"/>
<path d="M176.535 16.9349C177.764 16.9349 178.44 16.1883 178.414 15.1667H177.38C177.38 15.6317 177.153 16.0181 176.535 16.0181C175.917 16.0181 175.696 15.6317 175.696 15.1667H174.661C174.629 16.1883 175.292 16.9349 176.528 16.9349H176.535Z" fill="#2696F5"/>
<path d="M175.481 20.9557C175.181 21.3617 174.934 21.6957 174.726 22.0166H174.707C174.72 21.6564 174.726 21.2373 174.726 20.864V17.2033H173.477V24.0532H174.603L177.51 20.1437C177.809 19.7573 178.05 19.4168 178.284 19.1024H178.304C178.271 19.3709 178.271 19.7704 178.271 20.1633V24.0467H179.52V17.1968H178.291L175.474 20.9492L175.481 20.9557Z" fill="#2696F5"/>
<path d="M186.825 20.1961C186.337 19.9342 185.712 19.8556 184.964 19.8556H184.47V18.225H187.196L187.527 17.2034H183.221V24.0533H185.036C187.046 24.0533 187.781 23.1627 187.781 21.925C187.781 21.0802 187.43 20.5235 186.818 20.1961H186.825ZM185.068 23.0251H184.47V20.8706H184.984C185.439 20.8706 185.817 20.923 186.09 21.0802C186.369 21.2374 186.526 21.5255 186.526 21.9512C186.526 22.6781 186.083 23.0251 185.068 23.0251Z" fill="#2696F5"/>
<path d="M194.266 17.1445C192.25 17.1445 190.838 18.5787 190.838 20.6546C190.838 22.7306 192.263 24.1582 194.266 24.1582C196.269 24.1582 197.694 22.7568 197.694 20.6546C197.694 18.5525 196.282 17.1445 194.266 17.1445ZM194.266 23.1104C193.004 23.1104 192.159 22.2067 192.159 20.6612C192.159 19.1157 193.004 18.1989 194.266 18.1989C195.528 18.1989 196.374 19.1419 196.374 20.6612C196.374 22.1805 195.515 23.1104 194.266 23.1104Z" fill="#2696F5"/>
<path d="M201.259 22.4947C201.063 22.7959 200.803 22.94 200.517 22.94C200.484 22.94 200.4 22.94 200.309 22.9204V24.0729C200.413 24.1057 200.595 24.1057 200.66 24.1057C201.298 24.1057 201.785 23.8896 202.156 23.3591C202.839 22.3834 203.294 20.2092 203.47 18.225H204.803V24.0533H206.039V17.2034H202.449C202.254 19.3055 201.857 21.5779 201.259 22.4947Z" fill="#2696F5"/>
<path d="M213.272 20.0848C212.791 19.836 212.167 19.7443 211.445 19.7443H210.983V17.21H209.734V24.0599H211.549C213.559 24.0599 214.294 23.1234 214.294 21.8792C214.294 21.0082 213.91 20.4254 213.272 20.0914V20.0848ZM211.581 23.0252H210.983V20.7724H211.477C211.965 20.7724 212.342 20.8248 212.615 21.0016C212.895 21.1785 213.038 21.4797 213.038 21.8923C213.038 22.6519 212.596 23.0252 211.581 23.0252Z" fill="#2696F5"/>
<path d="M222.015 20.0324H218.762V17.2034H217.52V24.0533H218.762V21.0933H222.015V24.0533H223.264V17.2034H222.015V20.0324Z" fill="#2696F5"/>
<path d="M233.385 17.2034H232.136V24.0533H233.385V17.2034Z" fill="#2696F5"/>
<path d="M230.353 20.0848C229.892 19.836 229.267 19.7443 228.539 19.7443H228.207V17.21H226.958V24.0599H228.61C230.633 24.0599 231.368 23.1234 231.368 21.8792C231.368 21.0082 230.997 20.4254 230.36 20.0914L230.353 20.0848ZM228.643 23.0252H228.207V20.7724H228.558C229.013 20.7724 229.371 20.8248 229.631 20.982C229.944 21.1588 230.106 21.447 230.106 21.8988C230.106 22.6585 229.664 23.0317 228.643 23.0317V23.0252Z" fill="#2696F5"/>
<path d="M239.083 20.9557C238.784 21.3617 238.536 21.6957 238.328 22.0166H238.309C238.322 21.6564 238.328 21.2373 238.328 20.864V17.2033H237.079V24.0532H238.205L241.112 20.1437C241.411 19.7573 241.652 19.4168 241.886 19.1024H241.906C241.873 19.3709 241.873 19.7704 241.873 20.1633V24.0467H243.122V17.1968H241.893L239.076 20.9492L239.083 20.9557Z" fill="#2696F5"/>
<path d="M240.136 16.9349C241.366 16.9349 242.042 16.1883 242.016 15.1667H240.982C240.982 15.6317 240.754 16.0181 240.136 16.0181C239.518 16.0181 239.297 15.6317 239.297 15.1667H238.263C238.231 16.1883 238.894 16.9349 240.13 16.9349H240.136Z" fill="#2696F5"/>
<path d="M254.518 20.5498V20.5302C255.149 20.1438 255.331 19.0633 255.643 18.5459C255.747 18.3691 255.891 18.2644 256.131 18.2644C256.248 18.2644 256.378 18.284 256.547 18.3495V17.2362C256.365 17.1773 256.092 17.1445 255.884 17.1445C255.338 17.1445 254.954 17.3934 254.7 17.8518C254.212 18.7686 254.141 20.0849 253.172 20.0849H252.56V17.2035H251.311V24.0534H252.56V21.0999H253.51C253.718 21.0999 253.913 21.2571 254.193 21.8465L255.234 24.0468H256.671L255.299 21.3946C255.051 20.9166 254.824 20.6546 254.525 20.5433L254.518 20.5498Z" fill="#2696F5"/>
<path d="M260.424 22.4947C260.229 22.7959 259.969 22.94 259.683 22.94C259.65 22.94 259.566 22.94 259.475 22.9204V24.0729C259.579 24.1057 259.761 24.1057 259.826 24.1057C260.463 24.1057 260.951 23.8896 261.322 23.3591C262.005 22.3834 262.46 20.2092 262.636 18.225H263.969V24.0533H265.205V17.2034H261.615C261.419 19.3055 261.023 21.5779 260.424 22.4947Z" fill="#2696F5"/>
<path d="M271.385 20.7986H271.365L269.661 17.2034H268.275L270.721 22.069C270.35 22.7567 270.123 23.0841 269.544 23.0841C269.407 23.0841 269.258 23.0644 269.121 23.0317V24.0926C269.31 24.1319 269.544 24.145 269.667 24.145C270.598 24.145 271.268 23.6669 271.879 22.3572L274.273 17.2034H272.913L271.385 20.7986Z" fill="#2696F5"/>
<path d="M280.933 20.1961C280.445 19.9342 279.821 19.8556 279.073 19.8556H278.578V18.225H281.304L281.636 17.2034H277.33V24.0533H279.144C281.154 24.0533 281.889 23.1627 281.889 21.925C281.889 21.0802 281.538 20.5235 280.927 20.1961H280.933ZM279.177 23.0251H278.578V20.8706H279.092C279.548 20.8706 279.925 20.923 280.198 21.0802C280.478 21.2374 280.634 21.5255 280.634 21.9512C280.634 22.6781 280.192 23.0251 279.177 23.0251Z" fill="#2696F5"/>
<path d="M201.408 31.2437L196.094 45.0155H199.008C199.008 45.0155 199.431 43.863 199.984 42.3437C200.653 42.6187 201.519 42.8283 202.598 42.8283C203.678 42.8283 204.563 42.6122 205.246 42.3371C205.799 43.863 206.221 45.0155 206.221 45.0155H209.259L203.704 31.2437H201.408ZM202.598 40.3987C201.811 40.3987 201.226 40.235 200.816 40.0516C201.681 37.6614 202.54 35.2645 202.585 35.0288H202.624C202.683 35.2514 203.548 37.6548 204.413 40.0516C203.977 40.235 203.379 40.3987 202.592 40.3987H202.598Z" fill="#3066BF"/>
<path d="M238.276 31.2437L232.962 45.0155H235.876C235.876 45.0155 236.305 43.8433 236.865 42.2978C237.548 42.5925 238.439 42.8283 239.571 42.8283C240.611 42.8283 241.457 42.6318 242.127 42.3699C242.673 43.8761 243.09 45.0155 243.09 45.0155H246.127L240.572 31.2437H238.276ZM239.571 40.3987C238.725 40.3987 238.114 40.2088 237.697 40.0123C238.556 37.6352 239.401 35.2645 239.454 35.0288H239.493C239.551 35.2514 240.429 37.681 241.294 40.0844C240.865 40.2546 240.299 40.3922 239.564 40.3922L239.571 40.3987Z" fill="#3066BF"/>
<path d="M282.039 45.0155L276.484 31.2437H274.188L268.874 45.0155H271.788C271.788 45.0155 272.217 43.8433 272.777 42.2978C273.46 42.5925 274.351 42.8283 275.482 42.8283C276.523 42.8283 277.369 42.6318 278.039 42.3699C278.585 43.8761 279.001 45.0155 279.001 45.0155H282.039ZM275.482 40.3987C274.637 40.3987 274.025 40.2088 273.609 40.0123C274.468 37.6352 275.313 35.2645 275.365 35.0288H275.404C275.463 35.2514 276.341 37.681 277.213 40.0844C276.783 40.2546 276.217 40.3922 275.482 40.3922V40.3987Z" fill="#3066BF"/>
<path d="M263.273 31.2634C259.312 31.2634 258.831 30.2942 256.034 30.2942C253.523 30.2942 252.079 31.2634 252.079 31.2634V31.3092H252.066V45.0156H254.895V32.894C255.247 32.8482 255.624 32.8154 256.034 32.8154C257.979 32.8154 258.805 33.2804 260.45 33.5685V45.0091H263.28V31.2961H263.267V31.2503L263.273 31.2634Z" fill="#3066BF"/>
<path d="M224.2 37.4258C222.281 37.1507 221.481 36.6072 219.393 36.6072C218.886 36.6072 218.437 36.653 218.021 36.7185V31.3093H215.191V45.0157H218.021V39.2463C218.437 39.1808 218.886 39.135 219.393 39.135C221.481 39.135 222.281 39.6785 224.2 39.9536V45.0157H227.03V31.3093H224.2V37.4258Z" fill="#3066BF"/>
<path d="M82.1854 31.2568H74.9003C74.0482 36.6071 72.8839 40.5101 71.1211 42.5795H70.2495V48.9514H72.9879V45.0222H81.3268V48.9514H84.0653V42.5795H82.1789V31.2568H82.1854ZM79.3429 42.5795H74.2173V42.5402C75.5052 40.5363 76.5395 37.2947 77.0793 33.5751H79.3429V42.5795Z" fill="#3066BF"/>
<path d="M94.2514 38.5062C93.7311 39.1938 93.2953 39.8028 92.8855 40.4053H92.8464C92.8855 39.6718 92.8855 38.755 92.8855 38.1067V31.2568H90.043V45.0221H92.6578L98.2843 37.478C98.8047 36.8101 99.2405 36.1814 99.6958 35.5789H99.7348C99.6698 36.0832 99.6698 36.9345 99.6698 37.6025V45.0156H102.512V31.2502H99.6893L94.2514 38.4996V38.5062Z" fill="#3066BF"/>
<path d="M154.224 36.1617C153.788 36.8493 153.437 37.4387 153.163 37.956H153.124C152.812 37.4125 152.48 36.8886 152.025 36.2403L148.519 31.2502H145.943V45.0155H148.786V37.5369C148.786 37.0982 148.786 36.4695 148.766 35.9914H148.805C149.098 36.5153 149.43 36.9541 149.716 37.347L152.474 41.2762H153.762L156.208 37.4714C156.435 37.1178 156.975 36.3254 157.144 35.9653H157.164C157.144 36.4433 157.144 37.072 157.144 37.6155V45.009H159.987V31.2437H157.391L154.217 36.1552L154.224 36.1617Z" fill="#3066BF"/>
<path d="M173.23 31.1062C169.119 31.1062 166.257 33.9876 166.257 38.1657C166.257 42.3437 169.119 45.2252 173.23 45.2252C177.341 45.2252 180.203 42.383 180.203 38.1657C180.203 33.9483 177.341 31.1062 173.23 31.1062ZM173.23 42.848C170.882 42.848 169.288 41.1977 169.288 38.1657C169.288 35.1336 170.889 33.5096 173.23 33.5096C175.572 33.5096 177.172 35.1795 177.172 38.1657C177.172 41.1519 175.572 42.848 173.23 42.848Z" fill="#3066BF"/>
<path d="M132.303 31.2568L126.996 45.0222H129.942C129.942 45.0222 130.371 43.8434 130.937 42.2914C131.627 42.5861 132.525 42.8284 133.676 42.8284C134.73 42.8284 135.582 42.6253 136.265 42.3699C136.818 43.8827 137.227 45.0222 137.227 45.0222H140.298L134.743 31.2568H132.303ZM133.669 40.3726C132.817 40.3726 132.193 40.1827 131.77 39.9797C132.635 37.5763 133.5 35.1729 133.546 34.9372H133.591C133.65 35.1664 134.534 37.6222 135.419 40.0583C134.983 40.2285 134.411 40.3726 133.669 40.3726Z" fill="#3066BF"/>
<path d="M118.605 37.3602C116.666 37.0851 115.853 36.535 113.739 36.535C113.225 36.535 112.77 36.5809 112.354 36.6464V31.2568H109.492V45.0221H112.354V39.2003C112.777 39.1349 113.232 39.089 113.739 39.089C115.853 39.089 116.66 39.6391 118.605 39.9141V45.0156H121.467V31.2502H118.605V37.3536V37.3602Z" fill="#3066BF"/>
<path d="M194.338 37.5239H184.041V39.8422H194.338V37.5239Z" fill="#3066BF"/>
</svg>