<svg width="315" height="20" viewBox="0 0 315 20" fill="none" xmlns="http://www.w3.org/2000/svg">
    <g clip-path="url(#clip0_343_5309)">
        <path d="M-41 15.9986C-37.5213 16.0409 -34.157 15.151 -31.2358 13.5125C-29.8425 12.7324 -28.5526 11.7821 -27.3951 10.6824L-27.3928 10.6737C-27.1355 10.435 -26.8848 10.1853 -26.6431 9.93346C-22.7274 6.1019 -18.3758 4.12579 -13.3546 4.29625C-13.3694 4.35312 -13.3785 4.40673 -13.3889 4.46471C-13.3912 4.47346 -13.4035 4.48436 -13.4103 4.49199L-13.3968 4.49533C-14.438 9.43147 -10.7627 14.1793 -5.94625 15.3794C-0.920922 16.6316 4.14837 15.8125 8.31812 13.4743C10.021 12.5209 11.5751 11.3047 12.9108 9.8953C16.8265 6.06373 21.1782 4.08761 26.1994 4.25807C26.1846 4.31494 26.1754 4.36855 26.1651 4.42653C26.1628 4.43528 26.1504 4.44619 26.1437 4.45382L26.1571 4.45716C25.3029 8.54383 27.3191 12.321 30.88 14.261C35.9692 17.1277 42.9784 16.1839 47.8765 13.4373C49.5794 12.4838 51.1334 11.2677 52.4692 9.85824C56.3849 6.02668 60.7366 4.05057 65.7578 4.22103C65.743 4.27789 65.7338 4.33151 65.7235 4.38949C65.7212 4.39824 65.7088 4.40913 65.7021 4.41676L65.7155 4.42011C64.8613 8.50678 66.8775 12.2839 70.4384 14.2239C75.5276 17.0907 82.5368 16.1469 87.4349 13.4002C89.1378 12.4468 90.6918 11.2306 92.0276 9.8212C95.8601 6.07139 100.11 4.10249 104.993 4.18258L105.05 4.23866C105.134 4.2412 105.22 4.24377 105.306 4.24196C105.296 4.28133 105.286 4.31632 105.281 4.35681C105.278 4.36556 105.266 4.37645 105.259 4.38409L105.273 4.38744C104.42 8.46973 106.435 12.2512 109.996 14.1912C115.002 17.0111 122.155 16.1255 126.99 13.4135C128.81 12.3943 130.182 11.3218 131.578 9.83338C135.488 6.00507 139.84 4.02895 144.856 4.1983C144.844 4.24642 144.831 4.29454 144.822 4.34815C144.82 4.3569 144.808 4.36778 144.801 4.37542L144.814 4.37876C144.02 8.16351 145.701 11.6896 148.784 13.7294C153.849 17.2182 161.463 16.2242 166.538 13.3786C167.931 12.5985 169.221 11.6482 170.379 10.5485C170.637 10.3055 170.888 10.0558 171.131 9.79959C175.06 5.95276 179.436 3.97345 184.481 4.16372C184.463 4.23371 184.449 4.30481 184.436 4.37154C184.434 4.38029 184.422 4.39119 184.415 4.39883L184.428 4.40217C183.477 8.93512 186.07 13.0935 190.374 14.7762C195.372 16.7715 201.483 15.925 206.092 13.3405C207.485 12.5603 208.775 11.6101 209.933 10.5104C210.191 10.2673 210.442 10.0177 210.685 9.76142C214.614 5.91458 218.986 3.93418 224.035 4.12556C224.018 4.19165 224.005 4.25484 223.992 4.32154L223.99 4.33339C223.988 4.34214 223.976 4.35304 223.969 4.36067L223.982 4.36401C223.031 8.89696 225.619 13.0543 229.923 14.7369C234.923 16.7329 241.035 15.8878 245.646 13.3023C247.039 12.5222 248.329 11.5719 249.487 10.4722C249.745 10.2291 249.996 9.9795 250.239 9.72326C254.168 5.87642 258.544 3.89713 263.589 4.0874C263.57 4.15739 263.558 4.22412 263.544 4.29522C263.542 4.30397 263.529 4.31486 263.523 4.3225L263.536 4.32583C262.617 8.71769 265.021 12.7592 269.091 14.5372C273.624 16.5775 280.735 15.7975 285.191 13.2991C286.584 12.519 287.874 11.5687 289.031 10.469C289.29 10.226 289.541 9.97633 289.783 9.72009C293.713 5.87325 298.089 3.89397 303.138 4.08535C303.123 4.14222 303.112 4.20456 303.101 4.26254C303.099 4.27129 303.087 4.28219 303.08 4.28983L303.093 4.29317C302.402 7.59115 303.588 10.6958 305.948 12.7883C312.343 18.5769 321.5 15.5 329.256 9.64764C337.012 3.79527 337.611 3.79654 342.7 4.01656C342.679 4.0953 342.667 4.18063 342.646 4.25937C342.644 4.26812 342.632 4.27902 342.625 4.28666L342.638 4.29C341.591 9.28347 344.846 13.8257 349.952 15.098" stroke="#3066BF" stroke-width="2"/>
    </g>
    <defs>
        <clipPath id="clip0_343_5309">
            <rect width="315" height="20" fill="white"/>
        </clipPath>
    </defs>
</svg>
