<svg width="60" height="60" viewBox="0 0 60 60" fill="none" xmlns="http://www.w3.org/2000/svg">
<path d="M6.10898 48.1661C2.13814 42.9695 0 36.5939 0 30C0 26.2227 0.698167 22.5327 2.05087 19.0611C4.03629 19.1266 5.9999 19.3449 7.87623 19.7379C4.90901 25.2838 3.53449 30.7205 3.64358 36.3319C3.70903 40.2184 4.55992 44.1922 6.13081 48.1661" fill="#3066BF"/>
<path d="M36.1723 24.5412C33.2051 18.7988 30.5651 15.1089 27.3797 12.1831C23.7798 8.88612 19.3507 6.54986 13.5254 4.86862C16.2963 3.05638 19.3071 1.70264 22.4925 0.894775C23.8234 0.938444 25.2197 1.17863 26.6379 1.57165C32.8123 3.34022 37.6995 7.7944 40.0777 10.3053C43.2412 13.6678 45.4448 17.205 45.5321 19.0609C44.0703 20.3709 42.5213 21.4845 40.9286 22.4015C39.4231 23.253 37.8304 23.9517 36.1723 24.4976" fill="#3066BF"/>
<path d="M25.81 26.0262C22.4501 22.7729 18.741 20.2838 14.7702 18.5808C11.2139 17.0742 7.41762 16.2008 3.44678 15.9388C4.84312 13.275 6.63217 10.8733 8.77032 8.73352C9.29395 8.2095 9.81757 7.72915 10.3412 7.27063C10.4285 7.29246 10.4939 7.33613 10.5812 7.33613C16.952 8.90819 21.621 11.179 25.2428 14.4978C28.0573 17.0524 30.3918 20.3275 33.0535 25.3494C30.9154 25.786 28.5809 26.0262 26.1373 26.0262H25.81V26.0262Z" fill="#3066BF"/>
<path d="M30.3033 59.9782C24.2597 55.2183 20.0925 49.192 18.3035 42.6418C16.689 36.6592 17.1253 30.3928 19.5471 24.9124C20.9871 25.9386 22.3834 27.1176 23.7361 28.4277C24.1725 45.9824 32.4632 52.2488 40.6667 58.0567C37.394 59.3013 33.925 59.9782 30.3687 60C30.3687 60 30.3251 59.9782 30.3251 59.9563" fill="#3066BF"/>
<path d="M25.0922 59.6073C20.8377 58.9086 16.7359 57.2711 13.1578 54.8475C9.01244 48.4937 6.87429 42.2491 6.76521 36.2666C6.65612 31.0045 8.05246 25.8516 10.976 20.5459C11.8488 20.8297 12.6778 21.1354 13.4633 21.4629C14.6414 21.9651 15.7541 22.5328 16.845 23.1442C13.9433 29.3888 13.376 36.5722 15.2305 43.4282C16.845 49.3452 20.2486 54.913 25.0922 59.5855" fill="#3066BF"/>
<path d="M43.0453 55.8733C41.8672 55.0436 40.7763 54.2794 39.729 53.4715C42.4999 53.1003 45.3144 52.4016 48.1507 51.3754C49.8088 50.7641 51.4452 50.0436 53.0161 49.2357C52.4488 49.9125 51.8379 50.5894 51.2052 51.2008C49.067 53.3405 46.6453 55.1309 43.9835 56.5283C43.7435 56.3536 43.438 56.1571 43.0453 55.8515" fill="#3066BF"/>
<path d="M48.066 16.5503C47.0842 14.0394 44.9897 10.9826 42.3497 8.18783C39.0334 4.65069 35.1717 1.81224 31.2881 0C38.8152 0.327513 45.8406 3.40614 51.2077 8.75553C51.7095 9.25772 52.1677 9.73807 52.6041 10.2403C51.2077 12.6202 49.6805 14.7381 48.066 16.5503" fill="#3066BF"/>
<path d="M36.1967 50.6117C33.2295 47.9261 31.135 45.1095 29.6514 41.8562C29.8477 41.8562 30.0441 41.8562 30.2404 41.8562C36.1312 41.8562 41.4766 40.7208 46.1238 38.4719C51.4692 35.8954 56.0509 31.7906 59.7599 26.2447C59.9127 27.4892 59.9999 28.7338 59.9999 29.9784C59.9999 34.5417 58.9963 38.9085 57.0545 42.9697C54.1528 45.1968 50.7055 47.0745 47.062 48.4064C43.3748 49.7602 39.6221 50.5243 36.2185 50.5899" fill="#3066BF"/>
<path d="M30.2186 38.6898C29.6296 38.6898 29.0187 38.6898 28.4296 38.6461C27.5569 35.8076 27.0551 32.7072 26.9023 29.17C32.8368 29.0609 37.9203 27.7508 42.4584 25.1525C44.422 24.039 46.2766 22.6634 48.022 21.0477C48.0438 21.0477 48.1092 20.9822 48.1529 20.9385C50.5092 18.7333 52.691 16.0258 54.6546 12.8817C56.5309 15.5892 57.9273 18.5586 58.8436 21.7246C55.1564 28.2093 50.4219 32.8819 44.7493 35.6111C40.5385 37.6417 35.6513 38.6898 30.2186 38.6898" fill="#3066BF"/>
</svg>
