<svg width="904" height="1378" viewBox="0 0 904 1378" fill="none" xmlns="http://www.w3.org/2000/svg">
<g opacity="0.05">
<path d="M140.458 1106.11C49.6619 986.722 0 840.746 0 688.749C0 601.966 16.0523 517.189 47.1538 437.428C92.8026 438.933 137.95 443.95 181.091 452.979C112.868 580.395 81.265 705.303 83.7732 834.224C85.2781 923.516 104.842 1014.81 140.96 1106.11" fill="#A7A7A7"/>
<path d="M831.712 563.841C763.49 431.91 702.792 347.134 629.553 279.914C546.783 204.167 444.951 150.491 311.014 111.865C374.722 70.2293 443.948 39.1278 517.186 20.5672C547.786 21.5704 579.891 27.0885 612.497 36.1179C754.46 76.7506 866.827 179.085 921.505 236.773C994.242 314.025 1044.91 395.291 1046.91 437.93C1013.3 468.028 977.688 493.612 941.069 514.681C906.456 534.245 869.836 550.297 831.712 562.838" fill="#A7A7A7"/>
<path d="M593.937 597.953C516.685 523.209 431.407 466.022 340.109 426.894C258.342 392.281 171.058 372.215 79.7601 366.196C111.865 304.996 152.999 249.816 202.159 200.655C214.198 188.616 226.238 177.58 238.277 167.046C240.284 167.547 241.788 168.55 243.795 168.55C390.273 204.668 497.623 256.839 580.894 333.088C645.605 391.779 699.28 467.025 760.48 582.402C711.319 592.435 657.644 597.953 601.461 597.953H593.937Z" fill="#A7A7A7"/>
<path d="M696.772 1377.5C557.819 1268.14 462.007 1129.69 420.872 979.198C383.751 841.749 393.784 697.779 449.466 571.867C482.574 595.444 514.678 622.533 545.78 652.631C555.812 1055.95 746.434 1199.92 935.049 1333.35C859.804 1361.95 780.044 1377.5 698.277 1378C698.277 1378 697.274 1377.5 697.274 1377" fill="#A7A7A7"/>
<path d="M577.383 1369.47C479.564 1353.42 385.256 1315.8 302.988 1260.12C207.677 1114.14 158.517 970.67 156.009 833.221C153.501 712.326 185.605 593.94 252.824 472.041C272.89 478.563 291.952 485.586 310.011 493.11C337.099 504.648 362.683 517.69 387.764 531.736C321.047 675.205 308.004 840.244 350.643 997.758C387.764 1133.7 466.02 1261.62 577.383 1368.97" fill="#A7A7A7"/>
<path d="M989.727 1283.69C962.639 1264.63 937.557 1247.07 913.479 1228.51C977.186 1219.98 1041.9 1203.93 1107.11 1180.35C1145.23 1166.31 1182.86 1149.75 1218.97 1131.19C1205.93 1146.74 1191.89 1162.3 1177.34 1176.34C1128.18 1225.5 1072.5 1266.64 1011.3 1298.74C1005.78 1294.73 998.757 1290.21 989.727 1283.19" fill="#A7A7A7"/>
<path d="M1105.1 380.242C1082.53 322.553 1034.37 252.324 973.675 188.114C897.426 106.849 808.637 41.636 719.346 0C892.41 7.52457 1053.94 78.2555 1177.34 201.157C1188.88 212.695 1199.41 223.731 1209.44 235.268C1177.34 289.947 1142.22 338.606 1105.1 380.242Z" fill="#A7A7A7"/>
<path d="M832.715 1162.3C764.493 1100.59 716.336 1035.88 682.225 961.139C686.739 961.139 691.254 961.139 695.769 961.139C831.211 961.139 954.111 935.053 1060.96 883.385C1183.86 824.191 1289.2 729.884 1374.48 602.467C1377.99 631.061 1380 659.654 1380 688.247C1380 793.09 1356.92 893.418 1312.28 986.722C1245.56 1037.89 1166.3 1081.03 1082.53 1111.63C997.754 1142.73 911.472 1160.29 833.217 1161.79" fill="#A7A7A7"/>
<path d="M695.267 888.903C681.723 888.903 667.677 888.903 654.133 887.899C634.068 822.686 622.53 751.454 619.019 670.189C755.463 667.68 872.344 637.582 976.685 577.887C1021.83 552.304 1064.47 520.7 1104.6 483.579C1105.1 483.579 1106.61 482.074 1107.61 481.071C1161.79 430.406 1211.95 368.202 1257.1 295.967C1300.24 358.17 1332.34 426.392 1353.41 499.13C1268.64 648.116 1159.78 755.467 1029.36 818.172C932.541 864.824 820.174 888.903 695.267 888.903Z" fill="#A7A7A7"/>
</g>
</svg>
