<svg width="310" height="100" viewBox="0 0 310 100" fill="none" xmlns="http://www.w3.org/2000/svg">
<path d="M8.28237 27.8447C8.18692 27.881 8.15755 27.9028 8.01804 27.9028C7.17366 27.9463 5.50691 27.9753 7.33519 26.103C7.36456 26.0668 7.5261 25.9289 7.62889 25.8781C7.87854 25.6894 17.4238 21.8142 27.2333 19.4194C37.0135 16.836 48.0493 16.4731 48.0493 16.4804C48.0493 16.4731 53.2845 16.3062 57.7928 16.611C65.4437 17.0682 63.263 17.0972 58.5638 17.3803C59.041 17.2496 46.8819 17.7358 46.8965 17.8882C46.9039 17.8737 36.874 19.0058 27.3508 21.5312C17.7909 23.8969 8.49531 27.6633 8.28972 27.8374" fill="#B8E4F9"/>
<path d="M2.0412 36.4731C1.93841 36.5312 1.90169 36.553 1.74016 36.5892C0.697524 36.865 -1.04265 37.0609 0.844374 34.8911C0.881087 34.8548 1.04996 34.6879 1.14542 34.6226C1.4024 34.3904 11.8508 28.5631 22.9453 24.8403C33.9664 20.8926 45.5308 19.3977 45.5234 19.4412C45.5234 19.4049 52.7998 18.1858 58.013 18.3382C66.8387 18.5341 63.072 18.7373 57.6606 19.1872C58.2113 18.984 45.2371 20.508 45.2664 20.7257C45.2738 20.7039 33.915 23.0769 23.1949 26.9448C12.4161 30.6023 2.27616 36.2554 2.04854 36.4731" fill="#B8E4F9"/>
<path d="M10.9844 68.1785C10.933 68.2438 10.9036 68.2656 10.7935 68.3164C10.1327 68.5704 8.67153 69.2162 9.44249 66.9956C9.45718 66.9594 9.53795 66.7852 9.59669 66.7126C9.74354 66.4731 16.0874 60.1306 23.1289 54.8258C30.0822 49.3977 37.6817 45.1234 37.6817 45.1234C37.6817 45.1234 42.7333 42.5544 46.4413 41.2772C52.7338 39.0929 50.3916 40.5805 46.7277 42.3948C47.0654 42.1263 38.1002 47.09 38.159 47.2061C38.1737 47.2061 30.8312 51.3715 24.0761 56.6618C17.2402 61.8287 11.0872 67.9826 10.9844 68.1713" fill="#B8E4F9"/>
<path d="M8.2897 78.2221C8.22361 78.3019 8.20159 78.3309 8.08411 78.4035C7.32783 78.955 5.92541 79.6444 6.58624 77.2714C6.60092 77.2279 6.67435 77.0247 6.72575 76.9448C6.85791 76.6836 13.1137 68.5704 20.5443 61.8142C27.8574 54.8839 36.2426 49.5501 36.2426 49.5791C36.2279 49.5646 41.7861 46.2917 45.9567 44.6952C52.9981 41.9594 50.3475 43.6284 46.2651 45.82C46.6175 45.4644 36.6905 51.4877 36.7859 51.6546C36.7859 51.64 28.7165 56.8287 21.653 63.5559C14.45 70.1379 8.39983 77.9898 8.2897 78.2221Z" fill="#B8E4F9"/>
<path d="M63.821 5.8563C62.9692 7.73584 60.9647 9.15819 60.9647 9.15819C63.1381 7.13351 63.4832 4.61537 63.4979 4.45572C63.4906 4.42669 63.4832 4.40492 63.4759 4.37589C63.2115 3.71552 62.9105 3.18576 62.6241 2.77938C62.3304 2.38025 62 2.0174 61.6256 1.68359C61.4861 5.76196 58.9015 7.99709 58.9015 7.99709C61.3759 4.66617 60.5756 0.936127 60.5756 0.936127C59.577 0.39186 58.6592 0.159639 58.0791 0.0580426C57.7487 0.00724431 57.4036 -0.0145264 57.0512 -0.0145264C55.5607 -0.0145264 54.1876 0.442658 53.0716 1.2264C55.1788 1.00144 57.4403 1.95209 57.4403 1.95209C54.6649 1.18286 52.3153 2.03917 51.9775 2.17706C51.28 2.92452 50.7587 3.83163 50.487 4.83308C50.4429 5.02902 50.4283 5.13787 50.4283 5.13787C54.1729 3.19302 57.433 4.23801 57.433 4.23801C53.4167 3.86791 50.5457 6.13206 50.2667 6.36428C50.2667 6.41508 50.2667 6.46588 50.2667 6.51668C50.2667 9.16544 51.9041 11.4441 54.2537 12.4673C52.9981 10.82 52.7265 8.46153 52.7265 8.46153C53.4313 11.1901 55.4138 12.7286 55.6635 12.9173C55.8764 12.9608 56.0893 12.9898 56.3096 13.0116C56.3463 13.0116 56.383 13.0116 56.4197 13.0189C56.4418 13.0189 56.4638 13.0189 56.4858 13.0189C58.1232 13.135 59.0924 12.7141 59.0924 12.7141C55.4872 10.5588 54.7897 7.32219 54.7897 7.32219C56.5372 11.0232 60.2672 12.2424 60.3113 12.2496C60.3333 12.2424 60.3406 12.2279 60.3626 12.2206C61.3025 11.6836 61.9486 11.0595 62.3231 10.6386C63.285 9.51378 63.8577 8.07691 63.8577 6.50942C63.8577 6.2772 63.843 6.05949 63.821 5.83453M56.8529 6.70536C54.0775 6.7489 51.7572 8.61392 51.1258 9.20173V9.18722C53.5268 6.4296 56.339 6.24092 56.8897 6.24092C56.919 6.24092 56.9484 6.24092 56.9704 6.24092C58.4169 3.73729 57.6606 0.653108 57.4917 0.0652995C58.9456 3.65021 57.5652 6.21915 57.3302 6.57473C58.7987 8.91871 61.6843 9.92016 62.5434 10.1379C58.6445 9.53555 57.0585 7.05369 56.8529 6.69084" fill="#EC1D24"/>
<path d="M83.7705 12.5181C85.2757 7.6923 76.8465 8.35993 75.4882 10.5588C74.1151 12.7576 74.9742 13.6502 76.2004 16.6183C78.4692 22.148 82.2653 17.3512 83.7778 12.5181" fill="#0B4D98"/>
<path d="M89.1085 25.7765C93.1542 26.27 97.0677 27.8302 103.992 27.2496C101.437 25.6241 95.2468 14.9637 94.5052 4.2598C93.5801 8.69376 92.2658 15.4572 97.0237 23.7591C51.1037 12.148 37.0796 34.4267 37.0796 34.4267C58.3288 22.1553 62.5213 25.254 73.0064 24.0131C71.7949 24.4267 67.3527 25.3991 66.5377 26.0885C62.6168 32.0392 62.9766 38.2874 63.5126 40.1742C65.6713 39.8839 69.9226 40.479 72.1253 41.3643C70.5907 40.9869 65.9282 41.0522 62.9986 43.955C62.6168 48.2583 64.6727 65.1306 69.0488 68.9405C71.883 71.4078 77.4192 75.2685 82.816 78.9187L82.8747 78.9986C82.8747 78.9986 90.6284 84.18 90.9882 84.18C89.7913 81.0014 84.0715 74.6372 80.9657 71.1031C79.9965 69.9927 78.7996 69.0639 77.4486 68.447C75.5763 67.6052 73.9976 67.627 72.5145 66.016C70.0327 63.3237 70.4806 58.1495 71.5232 54.1437C72.5585 50.1379 74.6878 43.2946 73.1312 39.492C71.582 35.6894 75.9654 33.5922 79.4751 31.5312C77.6248 31.6038 73.77 32.4311 69.9079 30.7475C74.9301 31.3135 84.0055 29.7388 89.0938 25.7692" fill="#0B4D98"/>
<path d="M114.337 20.6386C113.838 25.2249 113.162 32.1988 118.802 40.1596C76.9053 33.2728 64.4524 54.9201 64.4524 54.9201C74.9375 46.2699 88.6753 42.9753 94.4905 42.7213C93.3084 43.2511 89.5123 44.4557 88.756 45.2249C87.5005 50.1088 86.5313 56.582 87.2508 58.4397C89.4095 57.939 90.7018 58.0987 93.022 58.7881C91.4214 58.5559 90.3126 59.0638 87.6253 62.2859C87.662 66.6836 89.9455 83.8316 94.7549 87.2714C99.5642 90.7112 108.889 94.6879 116.445 100C115.086 97.3222 112.369 93.6212 106.738 89.0783C101.106 84.5355 99.6596 86.6908 96.8695 84.1945C94.0867 81.6981 93.9692 75.849 95.8195 72.0464C100.981 61.4514 95.8415 60.6168 93.8958 56.9085C91.95 53.2075 97.5377 49.9709 100.886 47.5471C98.8153 48.2728 92.2951 51.1103 91.5388 47.4746C94.8723 50.0653 102.898 45.0725 105.835 42.9245C109.968 43.0406 119.257 44.2815 126.225 43.0334C123.471 41.6328 116.144 31.4151 114.352 20.6386M95.9443 75.6821C96.3408 77.8302 96.2454 80.3773 101.936 82.9318C107.634 85.4789 112.509 87.8156 118.001 92.1553C115.644 86.299 107.612 80.7257 104.329 79.5065C101.055 78.2873 95.9443 75.6821 95.9443 75.6821ZM100.614 36.6836C103.015 35.2177 105.218 33.0261 105.379 31.357C106.209 32.6778 106.73 34.9056 105.321 36.9521C107.509 36.6981 110.717 37.0827 113.045 37.8374C111.459 31.9013 106.833 30.8635 105.321 30.6821C105.078 29.9274 104.241 29.3541 102.567 29.1364C99.6303 28.7518 98.639 28.2003 96.987 29.8911C95.3276 31.582 96.6492 39.0929 100.622 36.6763" fill="#EC1D24"/>
<path d="M71.2809 58.3091C71.2809 58.3091 77.6762 60.9724 79.7542 62.0827C81.8321 63.1858 85.4005 66.0087 87.4417 74.209C86.7148 73.4906 85.8558 72.8737 85.0775 72.2351C82.7205 70.3048 80.3709 68.4035 77.6983 66.9013C75.8333 65.8563 73.8141 64.8621 72.4264 63.1858C72.0519 62.7358 71.7362 62.2424 71.4939 61.7054C71.0313 60.6821 71.0239 59.3904 71.2809 58.3091Z" fill="#0B4D98"/>
<path d="M150.954 8.418H156.828C158.693 8.418 161.021 8.63571 162.673 9.92743C163.914 10.8999 164.442 12.2206 164.442 13.955C164.442 14.8911 164.288 16.2192 163.356 17.3222C162.548 18.2946 161.146 18.955 159.964 19.2017V19.2671C161.395 19.3614 162.702 19.9565 163.539 20.7765C164.413 21.6183 165 22.9463 165 24.5428C165 26.6473 164.156 27.9681 163.326 28.6938C161.52 30.2613 158.48 30.4209 156.74 30.4209H150.962V8.418H150.954ZM154.068 17.8157H155.778C157.144 17.8157 159.383 17.8157 160.5 16.7199C161.278 15.9652 161.337 14.9274 161.337 14.3904C161.337 13.3237 161.058 12.4456 160.213 11.8142C159.442 11.2192 158.319 10.9942 157.328 10.9942H154.068V17.8157ZM154.068 27.8447H156.395C157.731 27.8447 159.787 27.7504 160.874 26.6183C161.315 26.1466 161.711 25.3919 161.711 24.1945C161.711 22.7794 161.212 21.7126 159.846 21.0232C158.73 20.4572 157.364 20.3919 156.087 20.3919H154.068V27.8374V27.8447Z" fill="#EC1D24"/>
<path d="M186.609 11.4368C188.225 13.2873 189.282 16.0595 189.282 19.4194C189.282 22.7794 188.159 25.6458 186.609 27.4383C185.236 29.0348 182.813 30.7402 178.841 30.7402C174.869 30.7402 172.438 29.0421 171.073 27.4383C169.523 25.6458 168.4 22.8519 168.4 19.4194C168.4 15.9869 169.457 13.2873 171.073 11.4368C172.842 9.36137 175.361 8.10593 178.841 8.10593C182.321 8.10593 184.84 9.36863 186.609 11.4368ZM173.525 13.3889C172.409 14.8331 171.697 17.1553 171.697 19.4194C171.697 21.2772 172.189 23.73 173.525 25.4572C174.582 26.836 176.235 27.968 178.841 27.968C181.448 27.968 183.1 26.836 184.164 25.4572C185.493 23.73 185.993 21.2772 185.993 19.4194C185.993 17.1553 185.28 14.8331 184.164 13.3889C183.166 12.0972 181.389 10.8708 178.841 10.8708C176.293 10.8708 174.524 12.09 173.525 13.3889Z" fill="#EC1D24"/>
<path d="M207.374 8.418V30.4209H204.268V11.1829H197.403L197.278 16.5893C197.249 18.4761 197.212 19.5718 197.058 22.3367C196.904 24.8839 196.683 27.402 195.442 29.0348C194.51 30.2612 193.306 30.7329 191.72 30.7329C191 30.7329 190.413 30.6096 190.009 30.479L190.104 27.7504C190.442 27.8447 190.853 27.939 191.191 27.939C192.836 27.939 193.431 26.9666 193.739 25.9289C193.923 25.2685 194.106 24.2308 194.297 20.7765C194.363 19.6444 194.481 16.4369 194.481 15.6531L194.583 8.42526H207.381L207.374 8.418Z" fill="#EC1D24"/>
<path d="M213.219 8.418H225.37V11.1829H216.332V17.627H224.563V20.3919H216.332V27.656H225.37V30.4209H213.219V8.418Z" fill="#EC1D24"/>
<path d="M230.503 8.41799H233.609V23.4107L233.513 26.1466H233.667C234.416 24.6371 234.85 23.9477 235.628 22.685L244.329 8.41799H247.809V30.4209H244.696V15.4281L244.791 12.6923H244.637C243.829 14.4194 243.33 15.0798 242.677 16.1466L233.976 30.4136H230.496V8.41799H230.503ZM244.175 2.60522C244.079 4.55732 242.897 5.52975 242.53 5.78374C241.722 6.34977 240.356 6.72713 239.174 6.72713C237.992 6.72713 236.597 6.34977 235.819 5.78374C235.011 5.18867 234.292 4.08562 234.196 2.60522L236.281 2.35123C236.465 3.22931 236.994 3.70827 237.06 3.76632C237.684 4.33236 238.55 4.39041 239.174 4.39041C239.798 4.39041 240.636 4.3251 241.282 3.76632C241.59 3.4833 241.964 3.04063 242.089 2.35123L244.175 2.60522Z" fill="#EC1D24"/>
<path d="M253.661 8.418H266.151V11.1829H256.767V17.4673H259.594C261.092 17.4673 263.449 17.5617 265.248 18.8462C266.371 19.6662 267.7 21.1466 267.7 23.9042C267.7 26.3208 266.738 27.8302 265.813 28.6502C264.065 30.2177 261.65 30.4136 259.44 30.4136H253.661V8.418ZM256.774 27.656H259.102C260.313 27.656 262.178 27.656 263.302 26.7126C263.735 26.3353 264.418 25.4862 264.418 23.8897C264.418 22.4456 263.83 21.5965 263.331 21.1248C262.112 19.9927 260.284 20.0508 259.168 20.0508H256.774V27.656Z" fill="#EC1D24"/>
<path d="M289.125 11.4368C290.741 13.2873 291.798 16.0595 291.798 19.4194C291.798 22.7794 290.682 25.6458 289.125 27.4383C287.752 29.0348 285.329 30.7402 281.357 30.7402C277.385 30.7402 274.954 29.0421 273.589 27.4383C272.032 25.6458 270.909 22.8519 270.909 19.4194C270.909 15.9869 271.966 13.2873 273.589 11.4368C275.351 9.36137 277.869 8.10593 281.357 8.10593C284.845 8.10593 287.356 9.36863 289.125 11.4368ZM276.034 13.3889C274.918 14.8331 274.198 17.1553 274.198 19.4194C274.198 21.2772 274.697 23.73 276.034 25.4572C277.091 26.836 278.743 27.968 281.35 27.968C283.956 27.968 285.608 26.836 286.666 25.4572C288.002 23.73 288.501 21.2772 288.501 19.4194C288.501 17.1553 287.789 14.8331 286.666 13.3889C285.667 12.0972 283.897 10.8708 281.35 10.8708C278.802 10.8708 277.025 12.09 276.034 13.3889Z" fill="#EC1D24"/>
<path d="M309.89 8.418V30.4209H306.784V11.1829H299.911L299.794 16.5893C299.757 18.4761 299.728 19.5718 299.574 22.3367C299.412 24.8839 299.199 27.402 297.951 29.0348C297.026 30.2612 295.807 30.7329 294.221 30.7329C293.501 30.7329 292.921 30.6096 292.51 30.479L292.606 27.7504C292.951 27.8447 293.347 27.939 293.692 27.939C295.337 27.939 295.924 26.9666 296.24 25.9289C296.424 25.2685 296.615 24.2308 296.798 20.7765C296.864 19.6444 296.989 16.4369 296.989 15.6531L297.085 8.42526H309.883L309.89 8.418Z" fill="#EC1D24"/>
<path d="M160.859 57.8229C158.921 58.3164 157.313 58.418 156.322 58.418C153.201 58.418 151.879 57.4746 151.292 56.7489C150.477 55.7474 150.426 54.4557 150.426 53.7591V47.6778H152.974V52.91C152.974 53.6575 152.951 54.7025 153.869 55.4789C154.662 56.1466 155.962 56.2191 156.777 56.2191C158.084 56.2191 159.435 56.0668 160.859 55.6459V47.6633H163.415V65.1161H160.859V57.8157V57.8229Z" fill="#0B4D98"/>
<path d="M168.216 47.6705H178.195V49.8694H170.764V54.9782H177.534V57.1698H170.764V62.9245H178.195V65.1234H168.216V47.6705Z" fill="#0B4D98"/>
<path d="M182.402 47.6705H186.617L192.204 62.1771L197.697 47.6705H201.911V65.1234H199.356V50.0145H199.305L193.409 65.1234H190.905L185.009 50.0145H184.957V65.1234H182.402V47.6705Z" fill="#0B4D98"/>
<path d="M206.706 47.6705H220.003V65.1234H217.455V49.8694H209.254V65.1234H206.706V47.6705Z" fill="#0B4D98"/>
<path d="M224.805 47.6705H227.353V59.5573L227.279 61.7271H227.412C228.028 60.5297 228.381 59.9782 229.02 58.984L236.164 47.6633H239.02V65.1161H236.465V53.222L236.546 51.0522H236.414C235.745 52.4238 235.342 52.9463 234.806 53.7953L227.654 65.1088H224.798V47.656L224.805 47.6705Z" fill="#0B4D98"/>
<path d="M257.729 50.0653C259.058 51.5312 259.924 53.73 259.924 56.4006C259.924 59.0711 259.006 61.3353 257.729 62.7576C256.605 64.0276 254.616 65.3701 251.348 65.3701C248.081 65.3701 246.084 64.0203 244.96 62.7576C243.69 61.3353 242.765 59.1147 242.765 56.4006C242.765 53.6865 243.631 51.5385 244.96 50.0653C246.421 48.4252 248.485 47.4238 251.348 47.4238C254.212 47.4238 256.268 48.4252 257.729 50.0653ZM246.979 51.611C246.062 52.7576 245.474 54.6009 245.474 56.4006C245.474 57.8737 245.885 59.8113 246.979 61.1829C247.846 62.2859 249.197 63.1785 251.348 63.1785C253.5 63.1785 254.843 62.2859 255.71 61.1829C256.811 59.8113 257.215 57.8665 257.215 56.4006C257.215 54.6081 256.627 52.7576 255.71 51.611C254.895 50.5951 253.433 49.6226 251.348 49.6226C249.263 49.6226 247.794 50.5951 246.979 51.611Z" fill="#0B4D98"/>
<path d="M263.676 47.6705H266.231V54.9782H274.756V47.6705H277.304V65.1234H274.756V57.1698H266.231V65.1234H263.676V47.6705Z" fill="#0B4D98"/>
<path d="M287.613 47.6705H290.293L297.819 65.1234H295.043L293.222 60.7112H284.492L282.679 65.1234H279.999L287.605 47.6705H287.613ZM288.868 50.0145L285.322 58.6647H292.422L288.868 50.0145Z" fill="#0B4D98"/>
<path d="M301.909 49.8694H296.372V47.6705H310V49.8694H304.456V65.1234H301.909V49.8694Z" fill="#0B4D98"/>
<path d="M151.123 74.7823H155.793C157.151 74.7823 159.215 74.9347 160.698 76.0668C161.564 76.7271 162.482 77.91 162.482 80.0072C162.482 81.5893 161.924 82.7866 161.278 83.5123C159.743 85.2758 157.291 85.3774 156.175 85.3774H153.671V92.4456H151.116V74.7823H151.123ZM153.678 83.164H156.204C157.173 83.164 158.275 82.8592 158.906 82.2787C159.317 81.9013 159.773 81.1974 159.773 80.1088C159.773 79.0203 159.361 78.3164 158.598 77.7649C157.68 77.1045 156.63 77.0029 155.837 77.0029H153.671V83.164H153.678Z" fill="#0B4D98"/>
<path d="M179.502 77.2133C180.831 78.701 181.697 80.9216 181.697 83.6212C181.697 86.3207 180.779 88.6139 179.502 90.0508C178.379 91.3425 176.389 92.6995 173.121 92.6995C169.854 92.6995 167.864 91.3352 166.733 90.0508C165.456 88.6139 164.538 86.3643 164.538 83.6212C164.538 80.8781 165.404 78.701 166.733 77.2133C168.187 75.5442 170.265 74.5428 173.121 74.5428C175.978 74.5428 178.048 75.5515 179.502 77.2133ZM168.76 78.7736C167.835 79.9347 167.247 81.7997 167.247 83.6212C167.247 85.1088 167.658 87.0754 168.76 88.4688C169.626 89.5791 170.977 90.4862 173.121 90.4862C175.265 90.4862 176.616 89.5791 177.483 88.4688C178.584 87.0827 178.988 85.1088 178.988 83.6212C178.988 81.7997 178.401 79.9347 177.483 78.7736C176.668 77.7358 175.214 76.7561 173.121 76.7561C171.029 76.7561 169.575 77.7358 168.76 78.7736Z" fill="#0B4D98"/>
<path d="M197.344 77.7358C196.221 77.0827 194.951 76.7562 193.666 76.7562C192.087 76.7562 190.508 77.2351 189.304 78.164C187.872 79.2743 186.83 81.1684 186.83 83.6139C186.83 85.7547 187.623 87.2932 188.511 88.3019C189.745 89.717 191.5 90.4717 193.93 90.4717C194.796 90.4717 196.023 90.2975 197.425 89.6444L197.579 92.0609C196.096 92.6197 194.899 92.6923 193.856 92.6923C191.478 92.6923 188.673 92.2133 186.58 90.0943C185.251 88.73 184.128 86.4586 184.128 83.5849C184.128 81.7416 184.59 78.6357 187.446 76.4659C189.289 75.0798 191.588 74.5283 193.673 74.5283C195.611 74.5283 196.735 74.9056 197.557 75.283L197.352 77.7358H197.344Z" fill="#0B4D98"/>
<path d="M213.299 77.7358C212.176 77.0827 210.898 76.7562 209.628 76.7562C208.042 76.7562 206.456 77.2351 205.259 78.164C203.828 79.2743 202.778 81.1684 202.778 83.6139C202.778 85.7547 203.571 87.2932 204.466 88.3019C205.693 89.717 207.447 90.4717 209.878 90.4717C210.744 90.4717 211.97 90.2975 213.373 89.6444L213.527 92.0609C212.044 92.6197 210.847 92.6923 209.797 92.6923C207.425 92.6923 204.613 92.2133 202.521 90.0943C201.192 88.73 200.061 86.4586 200.061 83.5849C200.061 81.7416 200.523 78.6357 203.387 76.4659C205.23 75.0798 207.514 74.5283 209.614 74.5283C211.552 74.5283 212.675 74.9056 213.49 75.283L213.285 77.7358H213.299Z" fill="#0B4D98"/>
<path d="M217.073 74.7823H219.629V86.8215L219.555 89.0131H219.68C220.289 87.8012 220.649 87.2424 221.288 86.2409L228.432 74.7823H231.289V92.4456H228.733V80.4064L228.814 78.2148H228.689C228.028 79.6009 227.617 80.1306 227.081 80.9869L219.93 92.4383H217.073V74.775V74.7823Z" fill="#0B4D98"/>
<path d="M236.091 74.7823H238.638V86.8215L238.565 89.0131H238.69C239.307 87.8012 239.666 87.2424 240.298 86.2409L247.449 74.7823H250.313V92.4456H247.758V80.4064L247.839 78.2148H247.714C247.053 79.6009 246.642 80.1306 246.106 80.9869L238.961 92.4383H236.105V74.775L236.091 74.7823Z" fill="#0B4D98"/>
</svg>
