<svg width="292" height="80" viewBox="0 0 292 80" fill="none" xmlns="http://www.w3.org/2000/svg">
<path d="M83.2075 67.4421C83.2075 65.7019 84.5448 64.2852 86.8286 64.2852C88.218 64.2852 89.4511 64.7836 90.1371 65.5444L89.3469 66.6463C88.713 66.0079 87.9575 65.6581 86.9068 65.6581C85.5695 65.6581 84.7445 66.3665 84.7445 67.4421C84.7445 70.4329 90.606 69.3048 90.606 73.4325C90.606 75.4176 88.878 76.7119 86.6984 76.7119C85.2221 76.7119 83.5114 76.0385 82.9123 74.9017L83.7546 73.9047C84.458 74.8405 85.7084 75.3389 86.7244 75.3389C87.9749 75.3389 89.0777 74.6831 89.0777 73.4587C89.0777 70.5029 83.2075 71.4561 83.2075 67.4509" fill="#3066BF"/>
<path d="M93.0462 68.7713H94.4182V69.6895C94.9479 69.0686 95.9813 68.6051 97.0407 68.6051C99.2377 68.6051 100.61 70.2492 100.61 72.5404C100.61 74.8316 99.0119 76.7205 96.5978 76.7205C95.7729 76.7205 94.9653 76.5456 94.4182 76.1871V79.9999H93.0462V68.7713V68.7713ZM94.4182 70.9663V74.8141C95.1042 75.2776 95.7382 75.4175 96.4763 75.4175C98.1175 75.4175 99.1509 74.2282 99.1509 72.5841C99.1509 70.94 98.2391 69.8906 96.65 69.8906C95.7382 69.8906 94.8958 70.3541 94.4182 70.9575" fill="#3066BF"/>
<path d="M106.523 68.5964C108.989 68.5964 110.639 70.328 110.639 72.6542C110.639 74.9803 108.998 76.7119 106.523 76.7119C104.048 76.7119 102.407 74.9891 102.407 72.6542C102.407 70.3192 104.057 68.5964 106.523 68.5964ZM106.523 75.4176C108.069 75.4176 109.181 74.3157 109.181 72.6542C109.181 70.9926 108.069 69.8907 106.523 69.8907C104.978 69.8907 103.866 71.0101 103.866 72.6542C103.866 74.2982 104.986 75.4176 106.523 75.4176Z" fill="#3066BF"/>
<path d="M112.941 68.7714H114.313V69.6897C114.712 69.1038 115.277 68.6403 116.249 68.6403C116.883 68.6403 117.196 68.7452 117.447 68.9376L116.97 70.2319C116.596 70.0045 116.388 69.9345 115.919 69.9345C115.025 69.9345 114.599 70.468 114.313 71.0364V76.5458H112.941V68.7714V68.7714Z" fill="#3066BF"/>
<path d="M118.941 66.6113H120.313V68.7713H123.144V70.0656H120.313V73.4499C120.313 74.6742 120.713 75.3826 121.685 75.3826C122.215 75.3826 122.623 75.1552 122.901 74.9541L123.326 76.021C122.918 76.362 122.215 76.6769 121.355 76.6769C119.627 76.6769 118.932 75.5662 118.932 73.5811V66.6025L118.941 66.6113Z" fill="#3066BF"/>
<path d="M125.245 70.7914C125.245 69.4272 126.34 68.5964 127.868 68.5964C129.136 68.5964 130.065 69.0687 130.525 69.5147L129.874 70.5728C129.414 70.1618 128.745 69.812 127.937 69.812C127.13 69.812 126.704 70.258 126.704 70.7827C126.704 72.4268 130.873 71.6485 130.873 74.3769C130.873 76.0123 129.431 76.7294 127.885 76.7294C126.635 76.7294 125.402 76.0735 125.037 75.5225L125.81 74.5343C126.253 75.0503 127.269 75.5225 128.042 75.5225C128.762 75.5225 129.414 75.1552 129.414 74.4469C129.414 72.8728 125.245 73.6511 125.245 70.8002" fill="#3066BF"/>
<path d="M144.94 74.9541C144.185 75.9336 143.038 76.7119 141.25 76.7119C138.974 76.7119 137.377 75.2602 137.377 73.2576C137.377 71.2549 138.801 70.0306 140.225 69.0599C139.296 68.7451 138.627 67.9318 138.627 66.7775C138.627 65.2733 139.878 64.2764 141.267 64.2764C142.656 64.2764 143.924 65.2733 143.924 66.7775C143.924 67.9056 143.117 68.885 142.144 69.0774L145.062 72.864C145.644 71.8234 146.06 70.4067 146.06 68.7713H147.415C147.415 70.6865 146.868 72.5929 145.904 73.9747L147.91 76.5457H146.199L144.949 74.9541H144.94ZM144.098 73.8522L141.093 69.882C139.843 70.8352 138.914 71.7622 138.914 72.9952C138.914 74.3769 140.008 75.3476 141.284 75.3476C142.561 75.3476 143.499 74.7617 144.098 73.861M141.267 68.1592C142.04 68.1592 142.639 67.5383 142.639 66.7949C142.639 66.0516 142.022 65.4132 141.267 65.4132C140.511 65.4132 139.912 66.0166 139.912 66.7949C139.912 67.5733 140.511 68.1592 141.267 68.1592Z" fill="#3066BF"/>
<path d="M163.341 71.0712H156.733V76.5456H155.274V64.4512H156.733V69.6895H163.341V64.4512H164.791V76.5456H163.341V71.0712Z" fill="#3066BF"/>
<path d="M174.682 75.6974C173.926 76.3882 172.815 76.7205 171.782 76.7205C169.272 76.7205 167.648 75.1114 167.648 72.6628C167.648 70.3978 169.09 68.6051 171.625 68.6051C173.614 68.6051 175.212 70.0218 175.212 72.1644C175.212 72.5491 175.177 72.8552 175.125 73.1001H169.194C169.315 74.5692 170.384 75.435 171.886 75.435C172.884 75.435 173.753 75.0852 174.248 74.6217L174.673 75.7061L174.682 75.6974ZM169.107 71.9632H173.788C173.718 70.6864 172.893 69.8906 171.556 69.8906C170.149 69.8906 169.255 70.7739 169.107 71.9632Z" fill="#3066BF"/>
<path d="M177.469 69.3048C178.155 68.8763 179.085 68.5964 180.04 68.5964C182.237 68.5964 183.01 69.7508 183.01 71.7709V76.537H181.707V75.5313C181.247 76.1172 180.509 76.6594 179.241 76.6594C177.834 76.6594 176.879 75.7587 176.879 74.2545C176.879 72.6716 178.129 71.7884 179.797 71.7884C180.396 71.7884 181.203 71.9108 181.716 72.2869C181.716 70.8352 181.49 69.8382 179.97 69.8382C179.024 69.8382 178.459 70.0831 177.843 70.4067L177.487 69.3048H177.469ZM181.707 74.4207V73.4325C181.229 73.0827 180.648 72.9165 179.979 72.9165C179.154 72.9165 178.329 73.2925 178.329 74.1933C178.329 74.9366 178.824 75.4176 179.719 75.4176C180.735 75.4176 181.316 74.8841 181.707 74.4207" fill="#3066BF"/>
<path d="M185.65 64.4599H187.022V73.8521C187.022 74.9015 187.282 75.3913 187.933 75.3913C188.307 75.3913 188.654 75.2164 188.915 75.0415L189.227 76.0996C188.819 76.4232 188.211 76.6855 187.412 76.6855C186.249 76.6855 185.667 75.9772 185.667 74.473V64.4512L185.65 64.4599Z" fill="#3066BF"/>
<path d="M190.782 66.6113H192.154V68.7713H194.984V70.0656H192.154V73.4499C192.154 74.6742 192.544 75.3826 193.526 75.3826C194.055 75.3826 194.472 75.1552 194.741 74.9541L195.167 76.021C194.759 76.362 194.055 76.6769 193.196 76.6769C191.459 76.6769 190.773 75.5662 190.773 73.5811V66.6025L190.782 66.6113Z" fill="#3066BF"/>
<path d="M197.347 64.46H198.719V69.6808C199.283 69.0949 200.264 68.6401 201.237 68.6401C203.243 68.6401 204.441 69.6633 204.441 72.0944V76.5544H203.069V72.2868C203.069 70.7302 202.331 69.9344 200.907 69.9344C200.047 69.9344 199.187 70.3629 198.71 70.9226V76.5544H197.338V64.46H197.347Z" fill="#3066BF"/>
<path d="M211.866 76.5457V64.4512C212.534 64.4512 214.749 64.4163 215.087 64.4163C218.361 64.4163 219.36 66.0603 219.36 68.0017C219.36 69.9431 218.075 71.08 216.755 71.4211L220.749 76.5369H218.96L215.27 71.7009H213.316V76.5369H211.857L211.866 76.5457ZM213.325 65.8417V70.3279H215.087C216.477 70.3279 217.814 69.4622 217.814 68.028C217.814 66.7862 217.128 65.798 215.001 65.798C214.627 65.798 213.889 65.8155 213.325 65.833" fill="#3066BF"/>
<path d="M228.443 75.6974C227.687 76.3882 226.576 76.7205 225.543 76.7205C223.033 76.7205 221.409 75.1114 221.409 72.6628C221.409 70.3978 222.851 68.6051 225.386 68.6051C227.375 68.6051 228.973 70.0218 228.973 72.1644C228.973 72.5491 228.938 72.8552 228.886 73.1001H222.955C223.076 74.5692 224.144 75.435 225.647 75.435C226.645 75.435 227.514 75.0852 228.009 74.6217L228.434 75.7061L228.443 75.6974ZM222.868 71.9632H227.549C227.479 70.6864 226.654 69.8906 225.317 69.8906C223.91 69.8906 223.016 70.7739 222.868 71.9632Z" fill="#3066BF"/>
<path d="M230.926 70.7914C230.926 69.4272 232.021 68.5964 233.549 68.5964C234.817 68.5964 235.746 69.0687 236.206 69.5147L235.555 70.5728C235.095 70.1618 234.426 69.812 233.618 69.812C232.811 69.812 232.385 70.258 232.385 70.7827C232.385 72.4268 236.554 71.6485 236.554 74.3769C236.554 76.0123 235.112 76.7294 233.566 76.7294C232.316 76.7294 231.083 76.0735 230.718 75.5225L231.491 74.5343C231.934 75.0503 232.95 75.5225 233.723 75.5225C234.443 75.5225 235.095 75.1552 235.095 74.4469C235.095 72.8728 230.926 73.6511 230.926 70.8002" fill="#3066BF"/>
<path d="M242.493 68.5964C244.968 68.5964 246.609 70.328 246.609 72.6542C246.609 74.9803 244.968 76.7119 242.493 76.7119C240.018 76.7119 238.377 74.9891 238.377 72.6542C238.377 70.3192 240.027 68.5964 242.493 68.5964ZM242.493 75.4176C244.039 75.4176 245.15 74.3157 245.15 72.6542C245.15 70.9926 244.039 69.8907 242.493 69.8907C240.948 69.8907 239.836 71.0101 239.836 72.6542C239.836 74.2982 240.948 75.4176 242.493 75.4176Z" fill="#3066BF"/>
<path d="M248.919 68.7714H250.291V69.6897C250.682 69.1038 251.255 68.6403 252.228 68.6403C252.862 68.6403 253.174 68.7452 253.426 68.9376L252.948 70.2319C252.575 70.0045 252.367 69.9345 251.898 69.9345C251.003 69.9345 250.578 70.468 250.291 71.0364V76.5458H248.919V68.7714Z" fill="#3066BF"/>
<path d="M254.92 66.6113H256.292V68.7713H259.123V70.0656H256.292V73.4499C256.292 74.6742 256.691 75.3826 257.664 75.3826C258.193 75.3826 258.602 75.1552 258.879 74.9541L259.305 76.021C258.897 76.362 258.193 76.6769 257.334 76.6769C255.597 76.6769 254.911 75.5662 254.911 73.5811V66.6025L254.92 66.6113Z" fill="#3066BF"/>
<path d="M62.1929 55.6711C44.5562 55.6711 35.3688 49.5058 27.2669 44.0664C19.851 39.0904 13.4598 34.7966 0 34.7966V20.8832C17.6367 20.8832 26.824 27.0485 34.926 32.4879C42.3332 37.4639 48.7331 41.7577 62.1842 41.7577V55.6711H62.1929Z" fill="#3066BF"/>
<path d="M62.1929 62.6322H0V76.5544H62.1929V62.6322Z" fill="#3066BF"/>
<path d="M34.5526 13.9134C34.5526 21.6003 40.7441 27.8268 48.3771 27.8268C56.0101 27.8268 62.2016 21.6003 62.2016 13.9134C62.2016 6.2265 56.0014 0 48.3684 0C40.7354 0 34.5439 6.2265 34.5439 13.9134" fill="#3066BF"/>
<path d="M100.167 34.7617L94.0622 48.509L87.9575 34.7617H82.921L92.2994 55.6974H95.7902L105.177 34.7617H100.167Z" fill="#3066BF"/>
<path d="M121.138 35.9074C119.532 34.9979 117.699 34.5344 115.702 34.5344C113.705 34.5344 111.872 34.9979 110.266 35.9249C108.642 36.8519 107.357 38.1461 106.436 39.764C105.525 41.3818 105.056 43.2183 105.056 45.2297C105.056 47.241 105.516 49.0862 106.436 50.7041C107.357 52.3394 108.651 53.6337 110.275 54.5519C111.881 55.4614 113.713 55.9249 115.711 55.9249C117.708 55.9249 119.54 55.4614 121.147 54.5344C122.771 53.6074 124.056 52.3132 124.976 50.6953C125.888 49.0775 126.357 47.241 126.357 45.2209C126.357 43.2008 125.897 41.3643 124.976 39.7465C124.056 38.1112 122.762 36.8169 121.138 35.8987M115.702 51.4124C114.521 51.4124 113.496 51.1588 112.593 50.6254C111.699 50.1007 111.013 49.4011 110.509 48.4741C109.988 47.5296 109.736 46.4715 109.736 45.2297C109.736 43.9879 109.988 42.9297 110.509 41.9852C111.021 41.0583 111.699 40.3586 112.593 39.8339C113.505 39.3092 114.521 39.0469 115.702 39.0469C116.883 39.0469 117.899 39.3005 118.811 39.8339C119.705 40.3586 120.391 41.0583 120.895 41.9852C121.416 42.9297 121.668 43.9966 121.668 45.2297C121.668 46.4627 121.416 47.5296 120.904 48.4741C120.391 49.4011 119.714 50.1094 118.811 50.6254C117.908 51.1588 116.883 51.4124 115.702 51.4124Z" fill="#3066BF"/>
<path d="M134.051 34.7617H129.448V55.6974H144.723V51.1937H134.051V34.7617Z" fill="#3066BF"/>
<path d="M152.156 34.7617H147.545V55.6974H162.829V51.1937H152.156V34.7617Z" fill="#3066BF"/>
<path d="M170.253 47.4858H180.552V42.9733H170.253V39.2479H181.968V34.7617H165.651V55.6974H182.219V51.1937H170.253V47.4858Z" fill="#3066BF"/>
<path d="M199.752 34.7617L194.325 43.2357L188.871 34.7617H183.479L191.997 47.8618V55.6974H196.626V47.9406L205.171 34.7617H199.752Z" fill="#3066BF"/>
<path d="M212.343 39.8252C213.264 39.3004 214.288 39.0468 215.478 39.0468C217.189 39.0468 218.622 39.6153 219.855 40.7871L220.949 41.8278L224.092 38.6621L222.998 37.5602C222.008 36.5632 220.853 35.8024 219.559 35.2865C218.292 34.788 216.911 34.5256 215.452 34.5256C213.455 34.5256 211.623 34.9979 210.016 35.9161C208.392 36.8431 207.107 38.1374 206.187 39.7727C205.275 41.3993 204.806 43.2357 204.806 45.2471C204.806 47.2585 205.266 49.0774 206.187 50.704C207.107 52.3394 208.401 53.6336 210.042 54.5519C211.657 55.4614 213.49 55.9248 215.487 55.9248C216.963 55.9248 218.378 55.6537 219.716 55.1116C221.053 54.5694 222.243 53.7998 223.259 52.8203L223.736 52.3656V44.6437H219.256V50.2843C218.179 51.0451 216.954 51.4211 215.539 51.4211C214.332 51.4211 213.29 51.1675 212.361 50.6428C211.458 50.1269 210.763 49.436 210.259 48.509C209.747 47.5646 209.495 46.4889 209.495 45.2384C209.495 43.9878 209.747 42.9122 210.268 41.9677C210.772 41.0407 211.458 40.3499 212.361 39.8339" fill="#3066BF"/>
<path d="M243.136 46.9174C244.49 45.6669 245.176 43.9791 245.176 41.8977C245.176 39.6328 244.325 37.7788 242.71 36.5283C241.199 35.3564 239.098 34.7705 236.475 34.7705H228.235V55.7062H232.863V49.06H235.06L241.078 55.7062H247.2L240.618 48.4128C241.599 48.0543 242.441 47.5558 243.136 46.9174ZM232.863 39.2567H236.475C237.952 39.2567 239.054 39.5191 239.749 40.0263C240.131 40.3061 240.574 40.7784 240.574 41.9065C240.574 43.0346 240.149 43.5331 239.775 43.8042C239.098 44.2939 237.952 44.5563 236.458 44.5563H232.872V39.2655L232.863 39.2567Z" fill="#3066BF"/>
<path d="M257.759 34.7617L248.103 55.6974H253.131L255.154 51.2899H263.829L265.852 55.6974H270.88L261.233 34.7617H257.768H257.759ZM257.186 46.8037L259.479 41.7928L261.771 46.8037H257.186Z" fill="#3066BF"/>
<path d="M290.393 39.7377C289.464 38.1374 288.126 36.8868 286.424 36.0298C284.774 35.1903 282.847 34.7705 280.71 34.7705H272.313V55.7062H280.71C282.855 55.7062 284.774 55.2777 286.424 54.4469C288.126 53.5812 289.464 52.3306 290.393 50.7303C291.304 49.1562 291.765 47.311 291.765 45.2384C291.765 43.1658 291.304 41.3206 290.393 39.7465M276.95 39.2567H280.641C282.013 39.2567 283.194 39.5103 284.166 40.0001C285.096 40.481 285.799 41.1369 286.294 42.0027C286.798 42.8859 287.058 43.9703 287.058 45.2384C287.058 46.5064 286.798 47.5558 286.294 48.4478C285.79 49.3223 285.096 49.9695 284.166 50.4504C283.194 50.9489 282.013 51.2025 280.667 51.2025H276.95V39.2655V39.2567Z" fill="#3066BF"/>
</svg>
