<svg width="119" height="80" viewBox="0 0 119 80" fill="none" xmlns="http://www.w3.org/2000/svg">
<path d="M0.539246 5.75098H24.0534V7.9974H0.539246V5.75098ZM94.5958 5.75098H118.11V7.9974H94.5958V5.75098ZM0.539246 5.75098H2.78567V75.2296H0.539246V5.75098ZM118.11 75.2296H94.5958V72.9832H118.11V75.2296ZM24.0534 75.2296H0.539246V72.9832H24.0534V75.2296ZM118.11 75.2296H115.864V5.75098H118.11V75.2296Z" fill="#3066BF"/>
<path d="M40.0543 43.4782C35.5612 43.4782 31.9058 47.1343 31.9058 51.6274C31.9058 56.1205 35.5612 59.7775 40.0543 59.7775C44.5482 59.7775 48.2036 56.1213 48.2036 51.6282C48.2036 47.1351 44.5482 43.4782 40.0543 43.4782ZM59.5398 43.4782C55.0467 43.4782 51.3905 47.1343 51.3905 51.6274C51.3905 56.1205 55.0467 59.7775 59.5398 59.7775C64.0329 59.7775 67.6883 56.1213 67.6883 51.6282C67.6883 47.1351 64.0329 43.4782 59.5398 43.4782ZM78.8747 43.4782C74.3808 43.4782 70.7262 47.1343 70.7262 51.6274C70.7262 56.1205 74.3808 59.7775 78.8747 59.7775C83.3686 59.7775 87.0232 56.1213 87.0232 51.6282C87.0232 47.1351 83.3686 43.4782 78.8747 43.4782ZM32.5042 35.8528C33.1969 36.5463 34.408 36.5463 35.0999 35.8528L40.0535 30.8992L45.0071 35.8536C45.3543 36.1999 45.8155 36.3901 46.3053 36.3901C46.7967 36.3901 47.2572 36.1999 47.6036 35.8528C47.9507 35.5056 48.1425 35.0444 48.1425 34.5545C48.1425 34.0647 47.9507 33.6034 47.6036 33.2563L42.65 28.3027L47.323 23.6297C47.6665 23.2851 47.8595 22.8185 47.8596 22.332C47.8598 21.8455 47.6671 21.3787 47.3238 21.034C46.6303 20.3405 45.4208 20.3397 44.7281 21.034L40.0543 25.707L35.3813 21.034C34.6878 20.3405 33.4783 20.3405 32.7856 21.034C32.4422 21.3786 32.2494 21.8453 32.2494 22.3318C32.2494 22.8183 32.4422 23.285 32.7856 23.6297L37.4586 28.3027L32.505 33.2563C32.1613 33.6009 31.9682 34.0677 31.968 34.5544C31.9679 35.0411 32.1607 35.508 32.5042 35.8528ZM51.9889 35.8536C52.684 36.5463 53.8927 36.5463 54.5846 35.8528L59.539 30.8992L64.4918 35.8528C64.839 36.1999 65.3002 36.3901 65.7908 36.3901C66.2807 36.3901 66.7411 36.1999 67.0899 35.8528C67.4329 35.5079 67.6254 35.0413 67.6254 34.5549C67.6254 34.0685 67.4329 33.6019 67.0899 33.2571L62.1363 28.3035L66.8093 23.6305C67.1527 23.2858 67.3455 22.8191 67.3455 22.3326C67.3455 21.8461 67.1527 21.3794 66.8093 21.0348C66.1158 20.3413 64.9055 20.3413 64.2128 21.0348L59.5398 25.7078L54.8668 21.0348C54.1733 20.3413 52.9638 20.3413 52.2703 21.0348C51.9269 21.3794 51.7341 21.8461 51.7341 22.3326C51.7341 22.8191 51.9269 23.2858 52.2703 23.6305L56.9433 28.3035L51.9897 33.2571C51.646 33.6017 51.4529 34.0685 51.4527 34.5552C51.4526 35.0419 51.6454 35.5088 51.9889 35.8536ZM71.3254 35.8528C72.0181 36.5463 73.2284 36.5463 73.9211 35.8528L78.8747 30.8992L83.8283 35.8528C84.1754 36.1999 84.6367 36.3901 85.1273 36.3901C85.6179 36.3901 86.0784 36.1999 86.4256 35.8528C86.7687 35.5079 86.9612 35.0412 86.961 34.5548C86.9609 34.0683 86.7681 33.6017 86.4248 33.2571L81.4712 28.3035L86.145 23.6305C86.4884 23.2858 86.6812 22.8191 86.6812 22.3326C86.6812 21.8461 86.4884 21.3794 86.145 21.0348C85.4523 20.3413 84.2428 20.3405 83.5485 21.0348L78.8755 25.7078L74.2025 21.0348C73.5089 20.3413 72.3003 20.3413 71.6068 21.0348C71.2596 21.3819 71.0686 21.8432 71.0686 22.333C71.0686 22.8228 71.2596 23.2841 71.6068 23.6312L76.2798 28.3043L71.3262 33.2579C70.9822 33.602 70.7888 34.0686 70.7887 34.5552C70.7885 35.0417 70.9816 35.5085 71.3254 35.8528Z" fill="#3066BF"/>
<path fill-rule="evenodd" clip-rule="evenodd" d="M44.3769 20.6833C45.2639 19.7944 46.7878 19.7961 47.6748 20.683L47.6751 20.6834L47.6755 20.6837C48.1114 21.1215 48.3561 21.7143 48.3559 22.3321C48.3557 22.9499 48.1107 23.5425 47.6745 23.98L47.6742 23.9803L43.3519 28.3026L47.9545 32.9053C48.3943 33.3451 48.6388 33.9324 48.6388 34.5545C48.6388 35.1766 48.3943 35.7639 47.9545 36.2036C47.5146 36.6444 46.9277 36.8864 46.3054 36.8864C45.6844 36.8864 45.097 36.6442 44.6566 36.2048L44.6564 36.2046L40.0535 31.601L35.4513 36.2032L35.4511 36.2034C34.5652 37.0912 33.0395 37.0909 32.1531 36.2034L32.5042 35.8527L32.1527 36.203C31.7164 35.7652 31.4716 35.1722 31.4718 34.5542C31.472 33.9361 31.7172 33.3433 32.1537 32.9057L32.1539 32.9055L32.1541 32.9053L36.7568 28.3026L32.4344 23.9802L32.434 23.9799C31.998 23.5422 31.7531 22.9496 31.7531 22.3318C31.7531 21.7139 31.998 21.1213 32.434 20.6836L32.4343 20.6834L32.4345 20.6832C33.3212 19.7955 34.845 19.7958 35.7322 20.683L40.0544 25.0051L44.3768 20.6834L44.3769 20.6833ZM32.8558 35.5024C33.3549 36.0015 34.2508 36.0011 34.7486 35.5022L34.7488 35.502L34.749 35.5018L40.0536 30.1972L45.3577 35.5022C45.6116 35.7555 45.9467 35.8938 46.3054 35.8938C46.6657 35.8938 46.9995 35.7555 47.2523 35.5022L47.2525 35.502L47.2527 35.5018C47.5072 35.2472 47.6463 34.912 47.6463 34.5545C47.6463 34.197 47.5072 33.8617 47.2527 33.6072L41.9482 28.3026L46.9716 23.2792L46.9718 23.279C47.2225 23.0274 47.3633 22.6869 47.3634 22.3318C47.3635 21.9768 47.223 21.6362 46.9726 21.3845C46.4725 20.8848 45.5778 20.885 45.0795 21.3844L45.0793 21.3846L45.079 21.3849L40.0543 26.4088L35.0304 21.3848C34.5306 20.8851 33.6358 20.8853 33.137 21.3844C32.8864 21.636 32.7457 21.9766 32.7457 22.3318C32.7457 22.6868 32.8864 23.0275 33.1369 23.2791L33.1372 23.2793L38.1605 28.3026L32.8564 33.6067L32.8563 33.6068C32.6054 33.8584 32.4644 34.1991 32.4643 34.5545C32.4642 34.9098 32.605 35.2507 32.8558 35.5024ZM83.1976 20.6838C84.0858 19.7957 85.6096 19.7964 86.4961 20.684L86.4966 20.6844C86.9327 21.1221 87.1775 21.7147 87.1775 22.3326C87.1775 22.9504 86.9327 23.543 86.4966 23.9807L82.1731 28.3035L86.7757 32.9061L86.7761 32.9064L86.7764 32.9068C87.2123 33.3444 87.4572 33.9369 87.4574 34.5546C87.4575 35.1722 87.2131 35.7649 86.7774 36.2027L86.777 36.2032L86.7765 36.2036C86.3361 36.6441 85.7493 36.8864 85.1273 36.8864C84.5057 36.8864 83.918 36.6442 83.4774 36.2036L78.8747 31.601L74.2722 36.2034L74.272 36.2036C73.3854 37.091 71.8608 37.091 70.9743 36.2034C70.5375 35.766 70.2922 35.1731 70.2924 34.555C70.2926 33.9368 70.5382 33.3441 70.9753 32.9069L75.578 28.3042L71.2559 23.9821C70.8157 23.542 70.5724 22.9545 70.5724 22.3329C70.5724 21.7114 70.8157 21.1239 71.2559 20.6838C72.1432 19.7965 73.6661 19.7965 74.5534 20.6838L78.8755 25.0059L83.1976 20.6838ZM71.6765 35.502C72.1754 36.0014 73.0711 36.0014 73.57 35.502L73.5702 35.5018L78.8747 30.1973L84.1792 35.5018C84.4329 35.7555 84.7678 35.8938 85.1273 35.8938C85.4863 35.8938 85.8203 35.7559 86.074 35.5024C86.3244 35.2506 86.4649 34.9099 86.4648 34.5549C86.4647 34.2 86.3241 33.8595 86.0739 33.6079C86.0737 33.6077 86.0734 33.6075 86.0732 33.6073L80.7693 28.3034L85.7935 23.2801C85.7936 23.28 85.7937 23.2798 85.7939 23.2797C86.0443 23.0281 86.185 22.6876 86.185 22.3326C86.185 21.9774 86.0442 21.6366 85.7935 21.385M71.6765 35.502C71.4257 35.2508 71.2849 34.9103 71.285 34.5553C71.2851 34.2002 71.4261 33.8598 71.6771 33.6087L76.9817 28.3042L71.9577 23.2803C71.7035 23.0261 71.5649 22.691 71.5649 22.3329C71.5649 21.9749 71.7035 21.6398 71.9577 21.3856C72.4574 20.8859 73.3519 20.8859 73.8516 21.3856L78.8755 26.4096L83.8995 21.3856C84.3998 20.8853 85.2945 20.886 85.7935 21.385M51.9194 20.6838C52.8067 19.7965 54.3304 19.7965 55.2177 20.6838L59.5398 25.0059L63.8617 20.684L63.8619 20.6838C64.7486 19.7963 66.2731 19.7967 67.1602 20.6838L67.1606 20.6841L67.1609 20.6844C67.597 21.1221 67.8418 21.7147 67.8418 22.3326C67.8418 22.9504 67.597 23.543 67.1609 23.9807L67.1606 23.981L67.1602 23.9813L62.8381 28.3034L67.4408 32.9061L67.4418 32.907C67.8773 33.3449 68.1217 33.9373 68.1217 34.5549C68.1217 35.1724 67.8773 35.7649 67.4418 36.2027L67.4409 36.2036L67.44 36.2044C66.9986 36.6439 66.4123 36.8864 65.7909 36.8864C65.1692 36.8864 64.5815 36.6442 64.1409 36.2036L59.539 31.601L54.9359 36.2032C54.0497 37.0915 52.527 37.0903 51.6386 36.205L51.9889 35.8535L51.6374 36.2038C51.2011 35.766 50.9563 35.173 50.9565 34.555C50.9567 33.9369 51.2019 33.3441 51.6384 32.9065L51.6386 32.9063L51.6388 32.9061L56.2415 28.3034L51.9191 23.981L51.9187 23.9807C51.4827 23.543 51.2378 22.9504 51.2378 22.3326C51.2378 21.7147 51.4827 21.1221 51.9187 20.6844L51.9194 20.6838ZM52.3398 35.5025C52.8417 36.0021 53.7359 36.0008 54.2333 35.5022L59.5391 30.1973L64.8428 35.5018C65.0964 35.7555 65.4314 35.8938 65.7909 35.8938C66.1487 35.8938 66.483 35.7561 66.7389 35.5018C66.9889 35.2501 67.1292 34.9097 67.1292 34.5549C67.1292 34.2 66.9888 33.8595 66.7387 33.6077C66.7385 33.6075 66.7383 33.6072 66.738 33.607L61.4345 28.3034L66.4578 23.2801L66.458 23.2798C66.7086 23.0282 66.8493 22.6876 66.8493 22.3326C66.8493 21.9775 66.7086 21.6368 66.458 21.3852C65.9581 20.8858 65.0626 20.8862 64.564 21.3854L59.5398 26.4096L54.5159 21.3856C54.0162 20.8859 53.1209 20.8859 52.6212 21.3856C52.3709 21.6372 52.2304 21.9776 52.2304 22.3326C52.2304 22.6875 52.3709 23.0279 52.6212 23.2795L57.6452 28.3034M31.4096 51.6274C31.4096 46.8602 35.2871 42.9818 40.0543 42.9818C44.8224 42.9818 48.6999 46.861 48.6999 51.6282C48.6999 56.3953 44.8224 60.2737 40.0543 60.2737C35.287 60.2737 31.4096 56.3944 31.4096 51.6274ZM40.0543 43.9744C35.8354 43.9744 32.4021 47.4083 32.4021 51.6274C32.4021 55.8465 35.8354 59.2811 40.0543 59.2811C44.2741 59.2811 47.7073 55.8472 47.7073 51.6282C47.7073 47.409 44.2741 43.9744 40.0543 43.9744ZM50.8943 51.6274C50.8943 46.8602 54.7726 42.9818 59.5398 42.9818C64.3071 42.9818 68.1846 46.8611 68.1846 51.6282C68.1846 56.3953 64.3071 60.2737 59.5398 60.2737C54.7726 60.2737 50.8943 56.3945 50.8943 51.6274ZM59.5398 43.9744C55.3208 43.9744 51.8868 47.4083 51.8868 51.6274C51.8868 55.8465 55.3209 59.2811 59.5398 59.2811C63.7588 59.2811 67.192 55.8473 67.192 51.6282C67.192 47.409 63.7587 43.9744 59.5398 43.9744ZM70.23 51.6274C70.23 46.8603 74.1066 42.9818 78.8747 42.9818C83.6429 42.9818 87.5195 46.8611 87.5195 51.6282C87.5195 56.3953 83.6428 60.2737 78.8747 60.2737C74.1066 60.2737 70.23 56.3944 70.23 51.6274ZM78.8747 43.9744C74.655 43.9744 71.2225 47.4082 71.2225 51.6274C71.2225 55.8466 74.655 59.2811 78.8747 59.2811C83.0944 59.2811 86.5269 55.8473 86.5269 51.6282C86.5269 47.409 83.0944 43.9744 78.8747 43.9744Z" fill="#3066BF"/>
<path d="M34.1289 11.3107C35.1145 11.3107 35.8924 11.0777 36.4596 10.6115C37.0296 10.1426 37.316 9.47428 37.316 8.60379V6.98637C37.316 6.12431 37.0942 5.50935 36.6533 5.1415C36.2125 4.77084 35.6312 4.53496 34.9152 4.43107L32.621 4.12499C32.489 4.11376 32.3851 4.06321 32.3149 3.97055C32.2419 3.87788 32.2054 3.76556 32.2054 3.63078C32.2054 3.4988 32.2419 3.38929 32.3149 3.30224C32.3851 3.21519 32.489 3.17026 32.621 3.17026H36.2069C36.4006 3.17026 36.5438 3.12814 36.6309 3.03828C36.7179 2.95124 36.76 2.81083 36.76 2.61708V0.786247C36.76 0.589685 36.7179 0.449283 36.6309 0.362235C36.5438 0.275186 36.4006 0.230258 36.2069 0.230258H31.8994C30.9025 0.230258 30.1247 0.463324 29.5603 0.932265C28.9959 1.3984 28.7122 2.06671 28.7122 2.94V4.55462C28.7122 5.41668 28.9313 6.03164 29.3665 6.4023C29.8018 6.77015 30.3802 7.00603 31.0991 7.10992L33.4073 7.43284C33.5392 7.44408 33.6403 7.48901 33.7077 7.57044C33.7723 7.65468 33.806 7.78104 33.806 7.95514C33.806 8.07869 33.7723 8.1854 33.7077 8.27244C33.6403 8.35949 33.5392 8.40161 33.4073 8.40161H29.2682C29.0717 8.40161 28.9313 8.44654 28.8442 8.53359C28.7572 8.62064 28.7122 8.76104 28.7122 8.9576V10.7575C28.7122 10.9513 28.7572 11.0917 28.8442 11.1788C28.9313 11.2658 29.0717 11.3107 29.2682 11.3107H34.1289ZM35.3757 1.61742V1.76906H31.9611C31.5287 1.76906 31.1861 1.88699 30.9278 2.12287C30.6722 2.35874 30.5431 2.65639 30.5431 3.01582V4.27943C30.5431 4.63605 30.6161 4.88877 30.7593 5.03198C30.9025 5.17519 31.0934 5.26786 31.3293 5.30998L34.5754 5.96986C34.8843 6.03164 35.137 6.16643 35.3364 6.37141C35.5386 6.5764 35.6368 6.94425 35.6368 7.47777V8.37073C35.6368 8.82282 35.4852 9.19348 35.1763 9.48832C34.8674 9.78036 34.4518 9.92637 33.9296 9.92637H30.0966V9.77193H33.9296C34.4013 9.77193 34.7776 9.63995 35.0612 9.37881C35.342 9.11766 35.4852 8.7807 35.4852 8.37073V7.47777C35.4852 6.9976 35.3982 6.66625 35.2297 6.48654C35.0612 6.30683 34.8337 6.18608 34.5445 6.12431L31.2984 5.46442C31.0317 5.41107 30.8126 5.30717 30.6442 5.14711C30.4757 4.98986 30.3914 4.69783 30.3914 4.27943V3.01582C30.3914 2.60585 30.5347 2.26888 30.8211 2.00774C31.1075 1.74659 31.4894 1.61742 31.9611 1.61742H35.3757ZM41.9324 11.3107C42.1262 11.3107 42.2666 11.2658 42.3536 11.1788C42.4407 11.0917 42.4856 10.9513 42.4856 10.7575V8.20224H44.2547C45.6503 8.20224 46.605 7.92425 47.116 7.37107C47.6299 6.81789 47.8854 6.09342 47.8854 5.20046V3.23204C47.8854 2.33909 47.6299 1.61742 47.116 1.06143C46.605 0.508252 45.6503 0.230258 44.2547 0.230258H39.5456C39.3519 0.230258 39.2115 0.275186 39.1244 0.362235C39.0345 0.449283 38.9924 0.589685 38.9924 0.786247V10.7575C38.9924 10.9513 39.0345 11.0917 39.1244 11.1788C39.2115 11.2658 39.3519 11.3107 39.5456 11.3107H41.9324ZM44.0384 6.8937H40.871V9.92637H40.7166V1.61742H44.0384C44.5214 1.61742 44.9146 1.67078 45.2178 1.77748C45.5183 1.88419 45.7542 2.03301 45.917 2.21553C46.0799 2.40086 46.195 2.6227 46.2568 2.87823C46.3158 3.13376 46.3466 3.41175 46.3466 3.7094V4.84665C46.3466 5.1443 46.3158 5.41949 46.2568 5.67221C46.195 5.92213 46.0799 6.13835 45.917 6.31806C45.7542 6.49777 45.5183 6.63817 45.2178 6.73926C44.9146 6.84316 44.5214 6.8937 44.0384 6.8937ZM40.871 6.73926H44.0384C44.4905 6.73926 44.8584 6.69433 45.1392 6.60167C45.4228 6.509 45.639 6.37984 45.7935 6.20855C45.9479 6.04006 46.0518 5.84069 46.108 5.61044C46.1669 5.37737 46.195 5.12465 46.195 4.84665V3.7094C46.195 3.43141 46.1669 3.17588 46.108 2.94C46.0518 2.70413 45.9479 2.49914 45.7935 2.32505C45.639 2.15095 45.4228 2.01335 45.1392 1.91507C44.8584 1.8196 44.4905 1.76906 44.0384 1.76906H40.871V6.73926ZM42.4547 3.10849H43.8391C44.1367 3.10849 44.3333 3.18711 44.4231 3.33874C44.5158 3.49318 44.5636 3.66728 44.5636 3.86384V4.67817C44.5636 4.87473 44.5158 5.04883 44.4231 5.20046C44.3333 5.35491 44.1367 5.43353 43.8391 5.43353H42.4547V3.10849ZM58.8733 8.40161V3.15622C58.8733 2.68447 58.8031 2.25485 58.6655 1.87015C58.5279 1.48545 58.2808 1.1541 57.9269 0.878911C57.5731 0.600917 57.0873 0.3847 56.4668 0.230258C55.8462 0.0786246 55.0571 0 54.1024 0C53.1505 0 52.3586 0.0786246 51.7324 0.230258C51.1091 0.3847 50.6177 0.600917 50.2638 0.878911C49.91 1.1541 49.6629 1.48545 49.5253 1.87015C49.3877 2.25485 49.3175 2.68447 49.3175 3.15622V8.40161C49.3175 8.87336 49.3877 9.30299 49.5253 9.68769C49.6629 10.0724 49.91 10.4009 50.2638 10.6733C50.6177 10.9429 51.1091 11.1563 51.7324 11.3107C52.3586 11.4652 53.1505 11.541 54.1024 11.541C55.0571 11.541 55.8462 11.4652 56.4668 11.3107C57.0873 11.1563 57.5731 10.9429 57.9269 10.6733C58.2808 10.4009 58.5279 10.0724 58.6655 9.68769C58.8031 9.30299 58.8733 8.87336 58.8733 8.40161ZM57.1969 8.0478C57.1969 8.66276 56.975 9.1654 56.5342 9.5501C56.0933 9.9348 55.2734 10.1257 54.0715 10.1257C52.8725 10.1257 52.0582 9.9348 51.6257 9.5501C51.1961 9.1654 50.9799 8.66276 50.9799 8.0478V3.51003C50.9799 2.89227 51.1961 2.39244 51.6257 2.00774C52.0582 1.62304 52.8725 1.43209 54.0715 1.43209C55.2734 1.43209 56.0933 1.62304 56.5342 2.00774C56.975 2.39244 57.1969 2.89227 57.1969 3.51003V8.0478ZM51.1343 8.0478C51.1343 8.62345 51.3393 9.08677 51.7493 9.44058C52.1593 9.7944 52.9343 9.9713 54.0715 9.9713C55.2116 9.9713 55.9922 9.7944 56.4106 9.44058C56.8318 9.08677 57.0424 8.62345 57.0424 8.0478V3.51003C57.0424 2.93439 56.8318 2.47106 56.4106 2.11725C55.9922 1.76344 55.2116 1.58653 54.0715 1.58653C52.9343 1.58653 52.1593 1.76344 51.7493 2.11725C51.3393 2.47106 51.1343 2.93439 51.1343 3.51003V8.0478ZM52.8107 7.84843V3.7094C52.8107 3.51284 52.8865 3.34717 53.041 3.20957C53.1954 3.06917 53.5492 3.00178 54.1024 3.00178C54.6584 3.00178 55.0122 3.06917 55.1638 3.20957C55.3183 3.34717 55.3969 3.51284 55.3969 3.7094V7.84843C55.3969 8.05342 55.3183 8.22471 55.1638 8.36511C55.0122 8.5027 54.6584 8.5729 54.1024 8.5729C53.5492 8.5729 53.1954 8.5027 53.041 8.36511C52.8865 8.22471 52.8107 8.05342 52.8107 7.84843ZM65.9972 1.76906H62.6444V6.21697H65.9972C66.6346 6.21697 67.0615 6.06253 67.2749 5.75645C67.4911 5.44757 67.5978 5.01233 67.5978 4.44791V3.36963C67.5978 2.89788 67.4686 2.51318 67.2075 2.21553C66.9435 1.91788 66.542 1.76906 65.9972 1.76906ZM64.3068 3.00178H65.4609C65.7276 3.00178 65.9074 3.06917 65.9972 3.20957C66.0899 3.34717 66.1376 3.51846 66.1376 3.72344V4.24854C66.1376 4.45353 66.0899 4.62482 65.9972 4.76241C65.9074 4.90281 65.7276 4.97021 65.4609 4.97021H64.3068V3.00178ZM62.6444 9.92637H62.49V1.61742H65.9972C66.5925 1.61742 67.0334 1.7831 67.3226 2.11725C67.609 2.4486 67.7522 2.86699 67.7522 3.36963V4.43107C67.7522 4.90281 67.6905 5.29032 67.5669 5.59359C67.4462 5.89685 67.1991 6.10465 66.8284 6.21697H66.9997C67.6231 6.21697 68.092 6.35737 68.3981 6.64098C68.707 6.92178 68.8614 7.32895 68.8614 7.86247V9.92637H68.707V7.86247C68.707 7.35984 68.5694 6.98356 68.2914 6.73365C68.0134 6.48093 67.5837 6.35456 66.9997 6.35456H62.6444V9.92637ZM63.7508 11.3107C63.9474 11.3107 64.0878 11.2658 64.1748 11.1788C64.2619 11.0917 64.3068 10.9513 64.3068 10.7575V7.74173H66.4605C66.6768 7.74173 66.8256 7.79508 66.9126 7.90179C67.0025 8.0113 67.0446 8.17697 67.0446 8.40161V10.7575C67.0446 10.9513 67.0895 11.0917 67.1766 11.1788C67.2636 11.2658 67.404 11.3107 67.5978 11.3107H69.9846C70.1784 11.3107 70.3188 11.2658 70.4058 11.1788C70.4957 11.0917 70.5378 10.9513 70.5378 10.7575V7.49462C70.5378 6.84878 70.3665 6.32929 70.0211 5.93898C69.6785 5.55147 69.2293 5.32402 68.6761 5.26224C68.9934 5.13026 69.218 4.91124 69.3444 4.60797C69.4735 4.30751 69.5381 3.93966 69.5381 3.51003V2.80241C69.5381 2.04144 69.3191 1.42367 68.8839 0.946305C68.4486 0.46894 67.6539 0.230258 66.5055 0.230258H61.3808C61.1871 0.230258 61.0467 0.275186 60.9596 0.362235C60.8726 0.449283 60.8276 0.589685 60.8276 0.786247V10.7575C60.8276 10.9513 60.8726 11.0917 60.9596 11.1788C61.0467 11.2658 61.1871 11.3107 61.3808 11.3107H63.7508ZM77.0328 11.3107C77.2265 11.3107 77.3669 11.2658 77.454 11.1788C77.541 11.0917 77.5859 10.9513 77.5859 10.7575V3.20115H79.8464C80.043 3.20115 80.1834 3.15622 80.2704 3.06917C80.3575 2.98212 80.4024 2.84172 80.4024 2.64797V0.786247C80.4024 0.589685 80.3575 0.449283 80.2704 0.362235C80.1834 0.275186 80.043 0.230258 79.8464 0.230258H71.7228C71.529 0.230258 71.3858 0.275186 71.2988 0.362235C71.2117 0.449283 71.1696 0.589685 71.1696 0.786247V2.64797C71.1696 2.84172 71.2117 2.98212 71.2988 3.06917C71.3858 3.15622 71.529 3.20115 71.7228 3.20115H73.986V10.7575C73.986 10.9513 74.0282 11.0917 74.1152 11.1788C74.2023 11.2658 74.3427 11.3107 74.5392 11.3107H77.0328ZM75.7074 9.92637V1.76906H72.554V1.61742H79.018V1.76906H75.8618V9.92637H75.7074ZM87.035 11.3107C88.0178 11.3107 88.7956 11.0777 89.3656 10.6115C89.9356 10.1426 90.2193 9.47428 90.2193 8.60379V6.98637C90.2193 6.12431 89.9974 5.50935 89.5566 5.1415C89.1157 4.77084 88.5372 4.53496 87.8184 4.43107L85.527 4.12499C85.3923 4.11376 85.2912 4.06321 85.2182 3.97055C85.1451 3.87788 85.1115 3.76556 85.1115 3.63078C85.1115 3.4988 85.1451 3.38929 85.2182 3.30224C85.2912 3.21519 85.3923 3.17026 85.527 3.17026H89.1101C89.3066 3.17026 89.447 3.12814 89.5341 3.03828C89.6211 2.95124 89.6661 2.81083 89.6661 2.61708V0.786247C89.6661 0.589685 89.6211 0.449283 89.5341 0.362235C89.447 0.275186 89.3066 0.230258 89.1101 0.230258H84.8026C83.8085 0.230258 83.0279 0.463324 82.4635 0.932265C81.8991 1.3984 81.6183 2.06671 81.6183 2.94V4.55462C81.6183 5.41668 81.8345 6.03164 82.2725 6.4023C82.7078 6.77015 83.2834 7.00603 84.0023 7.10992L86.3105 7.43284C86.4453 7.44408 86.5435 7.48901 86.6109 7.57044C86.6783 7.65468 86.712 7.78104 86.712 7.95514C86.712 8.07869 86.6783 8.1854 86.6109 8.27244C86.5435 8.35949 86.4453 8.40161 86.3105 8.40161H82.1714C81.9777 8.40161 81.8345 8.44654 81.7474 8.53359C81.6604 8.62064 81.6183 8.76104 81.6183 8.9576V10.7575C81.6183 10.9513 81.6604 11.0917 81.7474 11.1788C81.8345 11.2658 81.9777 11.3107 82.1714 11.3107H87.035ZM88.2817 1.61742V1.76906H84.8643C84.4347 1.76906 84.0893 1.88699 83.8338 2.12287C83.5755 2.35874 83.4491 2.65639 83.4491 3.01582V4.27943C83.4491 4.63605 83.5193 4.88877 83.6653 5.03198C83.8085 5.17519 83.9967 5.26786 84.2325 5.30998L87.4814 5.96986C87.7875 6.03164 88.043 6.16643 88.2424 6.37141C88.4418 6.5764 88.5429 6.94425 88.5429 7.47777V8.37073C88.5429 8.82282 88.3884 9.19348 88.0795 9.48832C87.7735 9.78036 87.3579 9.92637 86.8328 9.92637H83.0026V9.77193H86.8328C87.3045 9.77193 87.6836 9.63995 87.9644 9.37881C88.248 9.11766 88.3884 8.7807 88.3884 8.37073V7.47777C88.3884 6.9976 88.3042 6.66625 88.1329 6.48654C87.9644 6.30683 87.737 6.18608 87.4505 6.12431L84.2016 5.46442C83.9349 5.41107 83.7187 5.30717 83.5474 5.14711C83.3789 4.98986 83.2947 4.69783 83.2947 4.27943V3.01582C83.2947 2.60585 83.4379 2.26888 83.7243 2.00774C84.0135 1.74659 84.3926 1.61742 84.8643 1.61742H88.2817Z" fill="#3066BF"/>
<path d="M29.2261 71.851L33.9324 77.147V71.75H34.0615V78.6577H33.9324V77.3407L29.0969 71.9156C29.0885 71.9072 29.0773 71.8988 29.066 71.8904C29.052 71.8819 29.0408 71.8763 29.0323 71.8763C29.0239 71.8763 29.0183 71.8819 29.0127 71.8904C29.0099 71.8988 29.0071 71.9072 29.0071 71.9156V78.6577H28.8807V71.8904C28.8807 71.837 28.8976 71.8005 28.9313 71.7752C28.965 71.75 28.9986 71.7359 29.0323 71.7359C29.066 71.7359 29.0969 71.7443 29.1222 71.7612C29.1475 71.778 29.1812 71.8089 29.2261 71.851ZM29.9169 79.809C30.0769 79.809 30.1949 79.7725 30.2679 79.6995C30.3409 79.6265 30.3774 79.5113 30.3774 79.3485V75.1252L32.5648 77.776V79.3485C32.5648 79.5113 32.6013 79.6265 32.6744 79.6995C32.7446 79.7725 32.8625 79.809 33.0254 79.809H34.9432C35.1061 79.809 35.224 79.7725 35.2971 79.6995C35.3673 79.6265 35.4038 79.5113 35.4038 79.3485V71.0564C35.4038 70.8963 35.3673 70.7784 35.2971 70.7054C35.224 70.6324 35.1061 70.5959 34.9432 70.5959H33.0254C32.8625 70.5959 32.7446 70.6324 32.6744 70.7054C32.6013 70.7784 32.5648 70.8963 32.5648 71.0564V73.783L30.0825 70.9412C29.9702 70.8149 29.8579 70.725 29.7428 70.6745C29.6276 70.6239 29.4901 70.5959 29.3272 70.5959H27.9962C27.8361 70.5959 27.7182 70.6324 27.6452 70.7054C27.5722 70.7784 27.5357 70.8963 27.5357 71.0564V79.3485C27.5357 79.5113 27.5722 79.6265 27.6452 79.6995C27.7182 79.7725 27.8361 79.809 27.9962 79.809H29.9169ZM43.5667 79.809C43.7296 79.809 43.8475 79.7725 43.9205 79.6995C43.9907 79.6265 44.0272 79.5113 44.0272 79.3485V77.8518C44.0272 77.6889 43.9907 77.571 43.9205 77.5008C43.8475 77.4278 43.7296 77.3913 43.5667 77.3913H40.037V76.2905H42.5305C42.6934 76.2905 42.8113 76.254 42.8843 76.181C42.9545 76.108 42.991 75.9929 42.991 75.83V74.4597C42.991 74.2996 42.9545 74.1817 42.8843 74.1087C42.8113 74.0357 42.6934 73.9992 42.5305 73.9992H40.037V73.0164H43.5667C43.7296 73.0164 43.8475 72.9799 43.9205 72.9069C43.9907 72.8339 44.0272 72.7159 44.0272 72.5559V71.0564C44.0272 70.8963 43.9907 70.7784 43.9205 70.7054C43.8475 70.6324 43.7296 70.5959 43.5667 70.5959H37.6305C37.4677 70.5959 37.3525 70.6324 37.2795 70.7054C37.2065 70.7784 37.17 70.8963 37.17 71.0564V79.3485C37.17 79.5113 37.2065 79.6265 37.2795 79.6995C37.3525 79.7725 37.4677 79.809 37.6305 79.809H43.5667ZM42.8759 78.5285V78.6577H38.5656V71.75H42.8759V71.8763H38.692V75.0887H41.8398V75.2151H38.692V78.5285H42.8759ZM49.8876 79.809C50.0504 79.809 50.1684 79.7725 50.2386 79.6995C50.3116 79.6265 50.3481 79.5113 50.3481 79.3485V73.0669H52.2295C52.3923 73.0669 52.5074 73.0304 52.5805 72.9574C52.6535 72.8844 52.69 72.7693 52.69 72.6064V71.0564C52.69 70.8963 52.6535 70.7784 52.5805 70.7054C52.5074 70.6324 52.3923 70.5959 52.2295 70.5959H45.4733C45.3105 70.5959 45.1953 70.6324 45.1223 70.7054C45.0493 70.7784 45.0128 70.8963 45.0128 71.0564V72.6064C45.0128 72.7665 45.0493 72.8844 45.1223 72.9574C45.1953 73.0304 45.3105 73.0669 45.4733 73.0669H47.3547V79.3485C47.3547 79.5113 47.3912 79.6265 47.4642 79.6995C47.5344 79.7725 47.6524 79.809 47.8152 79.809H49.8876ZM48.7868 78.6577V71.8763H46.1641V71.75H51.5387V71.8763H48.916V78.6577H48.7868ZM58.6654 75.3948C58.8002 75.3948 58.9126 75.4341 58.9968 75.5155C59.0838 75.5969 59.1793 75.757 59.2916 75.9957L60.3418 78.3516C60.3755 78.4359 60.4261 78.4864 60.4935 78.5033C60.5637 78.5201 60.6254 78.5285 60.6872 78.5285H60.749C60.8192 78.5285 60.881 78.5004 60.9428 78.4471C61.0017 78.3909 61.0354 78.3292 61.0438 78.2618L61.364 76.8016C61.3977 76.6415 61.4173 76.4309 61.4229 76.1754C61.4257 75.9199 61.4285 75.698 61.4285 75.5099V71.75H61.5549V75.5239C61.5549 75.7093 61.5549 75.9311 61.5493 76.1894C61.5465 76.445 61.5268 76.6528 61.4931 76.8156L61.173 78.2618C61.1393 78.3966 61.086 78.4976 61.013 78.5622C60.9399 78.6268 60.8529 78.6577 60.749 78.6577H60.662C60.5833 78.6577 60.5019 78.6437 60.4177 78.6128C60.3334 78.5819 60.2716 78.5257 60.2379 78.4387L59.1905 76.0603C59.0867 75.83 58.9996 75.684 58.9266 75.6194C58.8536 75.5548 58.7665 75.5239 58.6654 75.5239H58.0898C57.9859 75.5239 57.8989 75.5548 57.8258 75.6194C57.7528 75.684 57.6658 75.83 57.5647 76.0603L56.5145 78.4387C56.4808 78.5257 56.4218 78.5819 56.3348 78.6128C56.2505 78.6437 56.1691 78.6577 56.0933 78.6577H56.0034C55.9023 78.6577 55.8125 78.6268 55.7423 78.5622C55.6693 78.4976 55.6159 78.3966 55.5822 78.2618L55.2621 76.8156C55.2284 76.6528 55.2088 76.445 55.2031 76.1894C55.2003 75.9311 55.1975 75.7093 55.1975 75.5239V71.75H55.3267V75.5099C55.3267 75.698 55.3267 75.9199 55.3323 76.1754C55.3351 76.4309 55.3548 76.6415 55.3885 76.8016L55.7086 78.2618C55.717 78.3292 55.7507 78.3909 55.8125 78.4471C55.8715 78.5004 55.936 78.5285 56.0034 78.5285H56.068C56.127 78.5285 56.1916 78.5201 56.259 78.5033C56.3264 78.4864 56.3797 78.4359 56.4134 78.3516L57.4608 75.9957C57.5731 75.757 57.6714 75.5969 57.7556 75.5155C57.8427 75.4341 57.9522 75.3948 58.0898 75.3948H58.6654ZM60.5468 70.5959C60.384 70.5959 60.266 70.6324 60.193 70.7054C60.12 70.7784 60.0835 70.8963 60.0835 71.0564V75.7654L59.3422 74.1536C59.2748 74.0076 59.1849 73.9065 59.0754 73.8475C58.9631 73.7858 58.8255 73.7577 58.6654 73.7577H58.1263C57.9662 73.7577 57.8287 73.7858 57.7191 73.8475C57.6068 73.9065 57.517 74.0076 57.4496 74.1536L56.7083 75.7654V71.0564C56.7083 70.8963 56.6717 70.7784 56.5987 70.7054C56.5257 70.6324 56.4078 70.5959 56.2477 70.5959H54.2765C54.1136 70.5959 53.9957 70.6324 53.9255 70.7054C53.8525 70.7784 53.816 70.8963 53.816 71.0564V75.9957C53.816 76.2681 53.8272 76.5236 53.8469 76.7567C53.8693 76.9925 53.9339 77.2677 54.0462 77.5822L54.6865 79.3485C54.7286 79.4861 54.7988 79.5956 54.8971 79.6798C54.9954 79.7669 55.1133 79.809 55.2481 79.809H56.9385C57.0733 79.809 57.1884 79.7781 57.2839 79.7135C57.3766 79.6489 57.4411 79.5535 57.4748 79.4243L58.0758 77.3407C58.101 77.2537 58.1347 77.1975 58.1712 77.1666C58.2105 77.1357 58.2555 77.1217 58.306 77.1217H58.4211C58.4717 77.1217 58.5166 77.1357 58.5559 77.1666C58.5952 77.1975 58.6261 77.2537 58.6514 77.3407L59.2411 79.4243C59.2748 79.5619 59.3478 79.6602 59.4573 79.7191C59.5696 79.7781 59.6932 79.809 59.828 79.809H61.5296C61.6672 79.809 61.7767 79.7641 61.8582 79.6742C61.9368 79.5843 61.9986 79.4776 62.0435 79.3485L62.6809 77.6075C62.7932 77.293 62.8578 77.0178 62.8803 76.7819C62.9028 76.5489 62.9112 76.2961 62.9112 76.021V71.0564C62.9112 70.8963 62.8775 70.7784 62.8045 70.7054C62.7315 70.6324 62.6135 70.5959 62.4507 70.5959H60.5468ZM72.3686 77.3913V73.0276C72.3686 72.6345 72.3096 72.2807 72.1945 71.9606C72.0794 71.6404 71.8744 71.3653 71.5796 71.135C71.2875 70.9047 70.8804 70.725 70.3637 70.5959C69.8498 70.4695 69.1955 70.4049 68.4009 70.4049C67.609 70.4049 66.9519 70.4695 66.4296 70.5959C65.9101 70.725 65.503 70.9047 65.2081 71.135C64.9133 71.3653 64.7111 71.6404 64.596 71.9606C64.4809 72.2807 64.4219 72.6345 64.4219 73.0276V77.3913C64.4219 77.7844 64.4809 78.1382 64.596 78.4583C64.7111 78.7784 64.9133 79.0508 65.2081 79.2783C65.503 79.5029 65.9101 79.6798 66.4296 79.809C66.9519 79.9382 67.609 79.9999 68.4009 79.9999C69.1955 79.9999 69.8498 79.9382 70.3637 79.809C70.8804 79.6798 71.2875 79.5029 71.5796 79.2783C71.8744 79.0508 72.0794 78.7784 72.1945 78.4583C72.3096 78.1382 72.3686 77.7844 72.3686 77.3913ZM70.973 77.0964C70.973 77.6075 70.7905 78.0231 70.4226 78.3432C70.0548 78.6633 69.3725 78.8234 68.3756 78.8234C67.3787 78.8234 66.6992 78.6633 66.3426 78.3432C65.9832 78.0231 65.8034 77.6075 65.8034 77.0964V73.3224C65.8034 72.8114 65.9832 72.3958 66.3426 72.0757C66.6992 71.7556 67.3787 71.5955 68.3756 71.5955C69.3725 71.5955 70.0548 71.7556 70.4226 72.0757C70.7905 72.3958 70.973 72.8114 70.973 73.3224V77.0964ZM65.9326 77.0964C65.9326 77.5738 66.1011 77.9613 66.4437 78.2533C66.7834 78.5482 67.4293 78.697 68.3756 78.697C69.3219 78.697 69.9706 78.5482 70.3216 78.2533C70.6698 77.9613 70.8439 77.5738 70.8439 77.0964V73.3224C70.8439 72.8451 70.6698 72.4576 70.3216 72.1655C69.9706 71.8707 69.3219 71.7219 68.3756 71.7219C67.4293 71.7219 66.7834 71.8707 66.4437 72.1655C66.1011 72.4576 65.9326 72.8451 65.9326 73.3224V77.0964ZM67.3254 76.9308V73.4881C67.3254 73.3253 67.39 73.1877 67.5191 73.0725C67.6455 72.9574 67.9404 72.9012 68.4009 72.9012C68.8614 72.9012 69.1562 72.9574 69.2826 73.0725C69.4118 73.1877 69.4763 73.3253 69.4763 73.4881V76.9308C69.4763 77.1021 69.4118 77.2425 69.2826 77.3576C69.1562 77.4727 68.8614 77.5317 68.4009 77.5317C67.9404 77.5317 67.6455 77.4727 67.5191 77.3576C67.39 77.2425 67.3254 77.1021 67.3254 76.9308ZM78.2907 71.8763H75.5024V75.5745H78.2907C78.8186 75.5745 79.1753 75.4453 79.3522 75.1898C79.5319 74.9343 79.6217 74.572 79.6217 74.1031V73.2073C79.6217 72.8142 79.5122 72.4941 79.296 72.247C79.077 71.9999 78.7428 71.8763 78.2907 71.8763ZM76.8839 72.9012H77.8443C78.0661 72.9012 78.2149 72.9574 78.2907 73.0725C78.3666 73.1877 78.4059 73.3309 78.4059 73.5022V73.9374C78.4059 74.1059 78.3666 74.2491 78.2907 74.3642C78.2149 74.4794 78.0661 74.5383 77.8443 74.5383H76.8839V72.9012ZM75.5024 78.6577H75.3732V71.75H78.2907C78.785 71.75 79.1528 71.8875 79.3915 72.1655C79.6302 72.4407 79.7509 72.7889 79.7509 73.2073V74.089C79.7509 74.4822 79.6976 74.8051 79.5965 75.055C79.4926 75.3077 79.2904 75.479 78.9815 75.5745H79.1219C79.6442 75.5745 80.0317 75.6924 80.2872 75.9255C80.5428 76.1614 80.672 76.4983 80.672 76.942V78.6577H80.5428V76.942C80.5428 76.5264 80.4277 76.2119 80.1974 76.0013C79.9671 75.7935 79.6077 75.6896 79.1219 75.6896H75.5024V78.6577ZM76.4234 79.809C76.5863 79.809 76.7014 79.7725 76.7744 79.6995C76.8474 79.6265 76.8839 79.5113 76.8839 79.3485V76.8409H78.6754C78.8551 76.8409 78.9787 76.8858 79.0517 76.9757C79.1247 77.0655 79.1612 77.2031 79.1612 77.3913V79.3485C79.1612 79.5113 79.1977 79.6265 79.2707 79.6995C79.3437 79.7725 79.4589 79.809 79.6217 79.809H81.6042C81.7671 79.809 81.885 79.7725 81.958 79.6995C82.0282 79.6265 82.0647 79.5113 82.0647 79.3485V76.6359C82.0647 76.0996 81.9215 75.6671 81.6379 75.3442C81.3515 75.0185 80.978 74.8332 80.5175 74.7798C80.7815 74.6703 80.9668 74.4878 81.0735 74.2379C81.1802 73.9851 81.2336 73.6819 81.2336 73.3224V72.7328C81.2336 72.1038 81.0538 71.5899 80.6888 71.1912C80.3266 70.7952 79.6695 70.5959 78.7119 70.5959H74.4522C74.2921 70.5959 74.1742 70.6324 74.1012 70.7054C74.0282 70.7784 73.9916 70.8963 73.9916 71.0564V79.3485C73.9916 79.5113 74.0282 79.6265 74.1012 79.6995C74.1742 79.7725 74.2921 79.809 74.4522 79.809H76.4234ZM85.0216 78.6577H84.8924V71.75H85.0216V75.1505H87.7959L89.2673 71.75H89.4105L87.9391 75.1505H88.4614C88.9837 75.1505 89.3712 75.2488 89.6267 75.4453C89.8823 75.6419 90.0114 75.962 90.0114 76.4057V78.6577H89.8823V76.4057C89.8823 75.9957 89.7643 75.7065 89.5257 75.5352C89.287 75.3639 88.9304 75.2796 88.4614 75.2796H85.0216V78.6577ZM85.9426 79.809C86.1055 79.809 86.2206 79.7725 86.2936 79.6995C86.3666 79.6265 86.4031 79.5113 86.4031 79.3485V76.4197H88.0907C88.2283 76.4197 88.3294 76.4562 88.3996 76.5348C88.467 76.6106 88.5007 76.7174 88.5007 76.8521V79.3485C88.5007 79.5113 88.5372 79.6265 88.6102 79.6995C88.6832 79.7725 88.7984 79.809 88.9612 79.809H90.9325C91.0953 79.809 91.2105 79.7725 91.2835 79.6995C91.3565 79.6265 91.393 79.5113 91.393 79.3485V75.7402C91.393 75.2291 91.2498 74.8163 90.9634 74.5046C90.6769 74.1957 90.2951 74.0273 89.8177 73.9992L91.1234 71.0199C91.1824 70.8823 91.188 70.7784 91.1375 70.7054C91.0841 70.6324 90.9886 70.5959 90.8426 70.5959H88.8714C88.7113 70.5959 88.5765 70.6296 88.4754 70.6941C88.3744 70.7559 88.2929 70.8654 88.2312 71.0199L86.9142 73.9992H86.4031V71.0564C86.4031 70.8963 86.3666 70.7784 86.2936 70.7054C86.2206 70.6324 86.1055 70.5959 85.9426 70.5959H83.9601C83.7973 70.5959 83.6793 70.6324 83.6063 70.7054C83.5333 70.7784 83.4996 70.8963 83.4996 71.0564V79.3485C83.4996 79.5113 83.5333 79.6265 83.6063 79.6995C83.6793 79.7725 83.7973 79.809 83.9601 79.809H85.9426Z" fill="#3066BF"/>
<path d="M87.3029 39.8975H31.626V40.3937H87.3029V39.8975Z" fill="#3066BF"/>
</svg>
